<!-- Render-Inputs-SHA256: 8d9f7727d271d01aad48b383c01fed2f532195f741eae25cc3ccf7d102952ee5 -->
<svg id="my-svg" width="100%" xmlns="http://www.w3.org/2000/svg" xmlns:xlink="http://www.w3.org/1999/xlink" class="flowchart" style="max-width: 696.816px; background-color: transparent;" viewBox="0 -52 696.81640625 1689.9930419921875" role="graphics-document document" aria-roledescription="flowchart-v2"><style>#my-svg{font-family:Inter,-apple-system,BlinkMacSystemFont,Segoe UI,sans-serif;font-size:15px;fill:#1d1d1f;}@keyframes edge-animation-frame{from{stroke-dashoffset:0;}}@keyframes dash{to{stroke-dashoffset:0;}}#my-svg .edge-animation-slow{stroke-dasharray:9,5!important;stroke-dashoffset:900;animation:dash 50s linear infinite;stroke-linecap:round;}#my-svg .edge-animation-fast{stroke-dasharray:9,5!important;stroke-dashoffset:900;animation:dash 20s linear infinite;stroke-linecap:round;}#my-svg .error-icon{fill:hsl(60, 11.1111111111%, 100%);}#my-svg .error-text{fill:rgb(0, 0, 0);stroke:rgb(0, 0, 0);}#my-svg .edge-thickness-normal{stroke-width:1px;}#my-svg .edge-thickness-thick{stroke-width:3.5px;}#my-svg .edge-pattern-solid{stroke-dasharray:0;}#my-svg .edge-thickness-invisible{stroke-width:0;fill:none;}#my-svg .edge-pattern-dashed{stroke-dasharray:3;}#my-svg .edge-pattern-dotted{stroke-dasharray:2;}#my-svg .marker{fill:#6e6e73;stroke:#6e6e73;}#my-svg .marker.cross{stroke:#6e6e73;}#my-svg svg{font-family:Inter,-apple-system,BlinkMacSystemFont,Segoe UI,sans-serif;font-size:15px;}#my-svg p{margin:0;}#my-svg .label{font-family:Inter,-apple-system,BlinkMacSystemFont,Segoe UI,sans-serif;color:#1d1d1f;}#my-svg .cluster-label text{fill:rgb(0, 0, 0);}#my-svg .cluster-label span{color:rgb(0, 0, 0);}#my-svg .cluster-label span p{background-color:transparent;}#my-svg .label text,#my-svg span{fill:#1d1d1f;color:#1d1d1f;}#my-svg .node rect,#my-svg .node circle,#my-svg .node ellipse,#my-svg .node polygon,#my-svg .node path{fill:#f5f5f7;stroke:hsl(240, 0%, 86.4705882353%);stroke-width:1px;}#my-svg .rough-node .label text,#my-svg .node .label text,#my-svg .image-shape .label,#my-svg .icon-shape .label{text-anchor:middle;}#my-svg .node .katex path{fill:#000;stroke:#000;stroke-width:1px;}#my-svg .rough-node .label,#my-svg .node .label,#my-svg .image-shape .label,#my-svg .icon-shape .label{text-align:center;}#my-svg .node.clickable{cursor:pointer;}#my-svg .root .anchor path{fill:#6e6e73!important;stroke-width:0;stroke:#6e6e73;}#my-svg .arrowheadPath{fill:#000000;}#my-svg .edgePath .path{stroke:#6e6e73;stroke-width:1px;}#my-svg .flowchart-link{stroke:#6e6e73;fill:none;}#my-svg .edgeLabel{background-color:hsl(120, 11.1111111111%, 96.4705882353%);text-align:center;}#my-svg .edgeLabel p{background-color:hsl(120, 11.1111111111%, 96.4705882353%);}#my-svg .edgeLabel rect{opacity:0.5;background-color:hsl(120, 11.1111111111%, 96.4705882353%);fill:hsl(120, 11.1111111111%, 96.4705882353%);}#my-svg .labelBkg{background-color:rgba(245, 247, 245, 0.5);}#my-svg .cluster rect{fill:hsl(60, 11.1111111111%, 100%);stroke:hsl(60, 0%, 90%);stroke-width:1px;}#my-svg .cluster text{fill:rgb(0, 0, 0);}#my-svg .cluster span{color:rgb(0, 0, 0);}#my-svg div.mermaidTooltip{position:absolute;text-align:center;max-width:200px;padding:2px;font-family:Inter,-apple-system,BlinkMacSystemFont,Segoe UI,sans-serif;font-size:12px;background:hsl(60, 11.1111111111%, 100%);border:1px solid hsl(60, 0%, 90%);border-radius:2px;pointer-events:none;z-index:100;}#my-svg .flowchartTitleText{text-anchor:middle;font-size:18px;fill:#1d1d1f;}#my-svg rect.text{fill:none;stroke-width:0;}#my-svg .icon-shape,#my-svg .image-shape{background-color:hsl(120, 11.1111111111%, 96.4705882353%);text-align:center;}#my-svg .icon-shape p,#my-svg .image-shape p{background-color:hsl(120, 11.1111111111%, 96.4705882353%);padding:2px;}#my-svg .icon-shape .label rect,#my-svg .image-shape .label rect{opacity:0.5;background-color:hsl(120, 11.1111111111%, 96.4705882353%);fill:hsl(120, 11.1111111111%, 96.4705882353%);}#my-svg .label-icon{display:inline-block;height:1em;overflow:visible;vertical-align:-0.125em;}#my-svg .node .label-icon path{fill:currentColor;stroke:revert;stroke-width:revert;}#my-svg .node .neo-node{stroke:hsl(240, 0%, 86.4705882353%);}#my-svg [data-look="neo"].node rect,#my-svg [data-look="neo"].cluster rect,#my-svg [data-look="neo"].node polygon{stroke:url(#my-svg-gradient);filter:drop-shadow( 1px 2px 2px rgba(185,185,185,1));}#my-svg [data-look="neo"].swimlane.cluster rect{filter:none;}#my-svg [data-look="neo"].node path{stroke:url(#my-svg-gradient);stroke-width:1px;}#my-svg [data-look="neo"].node .outer-path{filter:drop-shadow( 1px 2px 2px rgba(185,185,185,1));}#my-svg [data-look="neo"].node .neo-line path{stroke:hsl(240, 0%, 86.4705882353%);filter:none;}#my-svg [data-look="neo"].node circle{stroke:url(#my-svg-gradient);filter:drop-shadow( 1px 2px 2px rgba(185,185,185,1));}#my-svg [data-look="neo"].node circle .state-start{fill:#000000;}#my-svg [data-look="neo"].icon-shape .icon{fill:url(#my-svg-gradient);filter:drop-shadow( 1px 2px 2px rgba(185,185,185,1));}#my-svg [data-look="neo"].icon-shape .icon-neo path{stroke:url(#my-svg-gradient);filter:drop-shadow( 1px 2px 2px rgba(185,185,185,1));}#my-svg :root{--mermaid-font-family:Inter,-apple-system,BlinkMacSystemFont,Segoe UI,sans-serif;}#my-svg .interface&gt;*{fill:rgb(245, 245, 247)!important;stroke:rgb(134, 134, 139)!important;color:rgb(29, 29, 31)!important;}#my-svg .interface span{fill:rgb(245, 245, 247)!important;stroke:rgb(134, 134, 139)!important;color:rgb(29, 29, 31)!important;}#my-svg .interface tspan{fill:rgb(29, 29, 31)!important;}#my-svg .application&gt;*{fill:rgb(232, 241, 251)!important;stroke:rgb(94, 143, 196)!important;color:rgb(16, 42, 67)!important;}#my-svg .application span{fill:rgb(232, 241, 251)!important;stroke:rgb(94, 143, 196)!important;color:rgb(16, 42, 67)!important;}#my-svg .application tspan{fill:rgb(16, 42, 67)!important;}#my-svg .data&gt;*{fill:rgb(238, 247, 238)!important;stroke:rgb(95, 149, 98)!important;color:rgb(24, 59, 27)!important;}#my-svg .data span{fill:rgb(238, 247, 238)!important;stroke:rgb(95, 149, 98)!important;color:rgb(24, 59, 27)!important;}#my-svg .data tspan{fill:rgb(24, 59, 27)!important;}#my-svg .external&gt;*{fill:rgb(241, 237, 255)!important;stroke:rgb(136, 114, 198)!important;color:rgb(46, 36, 80)!important;}#my-svg .external span{fill:rgb(241, 237, 255)!important;stroke:rgb(136, 114, 198)!important;color:rgb(46, 36, 80)!important;}#my-svg .external tspan{fill:rgb(46, 36, 80)!important;}#my-svg .warning&gt;*{fill:rgb(255, 243, 205)!important;stroke:rgb(183, 139, 32)!important;color:rgb(77, 57, 0)!important;stroke-dasharray:5,4!important;}#my-svg .warning span{fill:rgb(255, 243, 205)!important;stroke:rgb(183, 139, 32)!important;color:rgb(77, 57, 0)!important;stroke-dasharray:5,4!important;}#my-svg .warning tspan{fill:rgb(77, 57, 0)!important;}</style><g><marker id="my-svg_flowchart-v2-pointEnd" class="marker flowchart-v2" viewBox="0 0 10 10" refX="5" refY="5" markerUnits="userSpaceOnUse" markerWidth="8" markerHeight="8" orient="auto"><path d="M 0 0 L 10 5 L 0 10 z" class="arrowMarkerPath" style="stroke-width: 1; stroke-dasharray: 1, 0;"/></marker><marker id="my-svg_flowchart-v2-pointStart" class="marker flowchart-v2" viewBox="0 0 10 10" refX="4.5" refY="5" markerUnits="userSpaceOnUse" markerWidth="8" markerHeight="8" orient="auto"><path d="M 0 5 L 10 10 L 10 0 z" class="arrowMarkerPath" style="stroke-width: 1; stroke-dasharray: 1, 0;"/></marker><marker id="my-svg_flowchart-v2-pointEnd-margin" class="marker flowchart-v2" viewBox="0 0 11.5 14" refX="11.5" refY="7" markerUnits="userSpaceOnUse" markerWidth="10.5" markerHeight="14" orient="auto"><path d="M 0 0 L 11.5 7 L 0 14 z" class="arrowMarkerPath" style="stroke-width: 0; stroke-dasharray: 1, 0;"/></marker><marker id="my-svg_flowchart-v2-pointStart-margin" class="marker flowchart-v2" viewBox="0 0 11.5 14" refX="1" refY="7" markerUnits="userSpaceOnUse" markerWidth="11.5" markerHeight="14" orient="auto"><polygon points="0,7 11.5,14 11.5,0" class="arrowMarkerPath" style="stroke-width: 0; stroke-dasharray: 1, 0;"/></marker><marker id="my-svg_flowchart-v2-circleEnd" class="marker flowchart-v2" viewBox="0 0 10 10" refX="11" refY="5" markerUnits="userSpaceOnUse" markerWidth="11" markerHeight="11" orient="auto"><circle cx="5" cy="5" r="5" class="arrowMarkerPath" style="stroke-width: 1; stroke-dasharray: 1, 0;"/></marker><marker id="my-svg_flowchart-v2-circleStart" class="marker flowchart-v2" viewBox="0 0 10 10" refX="-1" refY="5" markerUnits="userSpaceOnUse" markerWidth="11" markerHeight="11" orient="auto"><circle cx="5" cy="5" r="5" class="arrowMarkerPath" style="stroke-width: 1; stroke-dasharray: 1, 0;"/></marker><marker id="my-svg_flowchart-v2-circleEnd-margin" class="marker flowchart-v2" viewBox="0 0 10 10" refY="5" refX="12.25" markerUnits="userSpaceOnUse" markerWidth="14" markerHeight="14" orient="auto"><circle cx="5" cy="5" r="5" class="arrowMarkerPath" style="stroke-width: 0; stroke-dasharray: 1, 0;"/></marker><marker id="my-svg_flowchart-v2-circleStart-margin" class="marker flowchart-v2" viewBox="0 0 10 10" refX="-2" refY="5" markerUnits="userSpaceOnUse" markerWidth="14" markerHeight="14" orient="auto"><circle cx="5" cy="5" r="5" class="arrowMarkerPath" style="stroke-width: 0; stroke-dasharray: 1, 0;"/></marker><marker id="my-svg_flowchart-v2-crossEnd" class="marker cross flowchart-v2" viewBox="0 0 11 11" refX="12" refY="5.2" markerUnits="userSpaceOnUse" markerWidth="11" markerHeight="11" orient="auto"><path d="M 1,1 l 9,9 M 10,1 l -9,9" class="arrowMarkerPath" style="stroke-width: 2; stroke-dasharray: 1, 0;"/></marker><marker id="my-svg_flowchart-v2-crossStart" class="marker cross flowchart-v2" viewBox="0 0 11 11" refX="-1" refY="5.2" markerUnits="userSpaceOnUse" markerWidth="11" markerHeight="11" orient="auto"><path d="M 1,1 l 9,9 M 10,1 l -9,9" class="arrowMarkerPath" style="stroke-width: 2; stroke-dasharray: 1, 0;"/></marker><marker id="my-svg_flowchart-v2-crossEnd-margin" class="marker cross flowchart-v2" viewBox="0 0 15 15" refX="17.7" refY="7.5" markerUnits="userSpaceOnUse" markerWidth="12" markerHeight="12" orient="auto"><path d="M 1,1 L 14,14 M 1,14 L 14,1" class="arrowMarkerPath" style="stroke-width: 2.5;"/></marker><marker id="my-svg_flowchart-v2-crossStart-margin" class="marker cross flowchart-v2" viewBox="0 0 15 15" refX="-3.5" refY="7.5" markerUnits="userSpaceOnUse" markerWidth="12" markerHeight="12" orient="auto"><path d="M 1,1 L 14,14 M 1,14 L 14,1" class="arrowMarkerPath" style="stroke-width: 2.5; stroke-dasharray: 1, 0;"/></marker><g class="root"><g class="clusters"/><g class="edgePaths"><path d="M127.82,46L127.737,50.083C127.654,54.167,127.487,62.333,127.404,69.917C127.32,77.5,127.32,84.5,127.32,88L127.32,91.5" id="my-svg-L_Ask_Supervisor_0" class="edge-thickness-normal edge-pattern-solid edge-thickness-normal edge-pattern-solid flowchart-link" style=";" data-edge="true" data-et="edge" data-id="L_Ask_Supervisor_0" data-points="W3sieCI6MTI3LjgyMDMxMjUsInkiOjQ2LjAwMDAwMDAwMDAwMDAxfSx7IngiOjEyNy4zMjAzMTI1LCJ5Ijo3MC41fSx7IngiOjEyNy4zMjAzMTI1LCJ5Ijo5NS41fV0=" data-look="classic" marker-end="url(#my-svg_flowchart-v2-pointEnd)"/><path d="M127.32,170.5L127.32,174.667C127.32,178.833,127.32,187.167,127.32,194.833C127.32,202.5,127.32,209.5,127.32,213L127.32,216.5" id="my-svg-L_Supervisor_Job_0" class="edge-thickness-normal edge-pattern-solid edge-thickness-normal edge-pattern-solid flowchart-link" style=";" data-edge="true" data-et="edge" data-id="L_Supervisor_Job_0" data-points="W3sieCI6MTI3LjMyMDMxMjUsInkiOjE3MC41fSx7IngiOjEyNy4zMjAzMTI1LCJ5IjoxOTUuNX0seyJ4IjoxMjcuMzIwMzEyNSwieSI6MjIwLjV9XQ==" data-look="classic" marker-end="url(#my-svg_flowchart-v2-pointEnd)"/><path d="M127.32,297.809L127.32,301.976C127.32,306.143,127.32,314.476,127.32,325.893C127.32,337.309,127.32,351.809,127.32,359.059L127.32,366.309" id="my-svg-L_Job_Worker_0" class="edge-thickness-normal edge-pattern-solid edge-thickness-normal edge-pattern-solid flowchart-link" style=";" data-edge="true" data-et="edge" data-id="L_Job_Worker_0" data-points="W3sieCI6MTI3LjMyMDMxMjUsInkiOjI5Ny44MDkzODcyMDcwMzEyNX0seyJ4IjoxMjcuMzIwMzEyNSwieSI6MzIyLjgwOTM4NzIwNzAzMTI1fSx7IngiOjEyNy4zMjAzMTI1LCJ5IjozNzAuMzA5Mzg3MjA3MDMxMjV9XQ==" data-look="classic" marker-end="url(#my-svg_flowchart-v2-pointEnd)"/><path d="M127.32,422.809L127.32,430.726C127.32,438.643,127.32,454.476,141.985,471.824C156.649,489.171,185.978,508.034,200.643,517.465L215.307,526.896" id="my-svg-L_Worker_Research_0" class="edge-thickness-normal edge-pattern-solid edge-thickness-normal edge-pattern-solid flowchart-link" style=";" data-edge="true" data-et="edge" data-id="L_Worker_Research_0" data-points="W3sieCI6MTI3LjMyMDMxMjUsInkiOjQyMi44MDkzODcyMDcwMzEyNX0seyJ4IjoxMjcuMzIwMzEyNSwieSI6NDcwLjMwOTM4NzIwNzAzMTI1fSx7IngiOjIxOC42NzEzMTY5NjQyODU3MiwieSI6NTI5LjA1OTM4NzIwNzAzMTJ9XQ==" data-look="classic" marker-end="url(#my-svg_flowchart-v2-pointEnd)"/><path d="M276.98,604.059L276.98,613.851C276.98,623.643,276.98,643.226,277.542,656.526C278.103,669.826,279.226,676.843,279.787,680.351L280.349,683.86" id="my-svg-L_Research_Outline_0" class="edge-thickness-normal edge-pattern-solid edge-thickness-normal edge-pattern-solid flowchart-link" style=";" data-edge="true" data-et="edge" data-id="L_Research_Outline_0" data-points="W3sieCI6Mjc2Ljk4MDQ2ODc1LCJ5Ijo2MDQuMDU5Mzg3MjA3MDMxMn0seyJ4IjoyNzYuOTgwNDY4NzUsInkiOjY2Mi44MDkzODcyMDcwMzEyfSx7IngiOjI4MC45ODA0Njg3NSwieSI6Njg3LjgwOTM4NzIwNzAzMTJ9XQ==" data-look="classic" marker-end="url(#my-svg_flowchart-v2-pointEnd)"/><path d="M286.98,762.809L286.98,766.976C286.98,771.143,286.98,779.476,295.107,787.522C303.233,795.568,319.485,803.327,327.612,807.207L335.738,811.086" id="my-svg-L_Outline_Slide_0" class="edge-thickness-normal edge-pattern-solid edge-thickness-normal edge-pattern-solid flowchart-link" style=";" data-edge="true" data-et="edge" data-id="L_Outline_Slide_0" data-points="W3sieCI6Mjg2Ljk4MDQ2ODc1LCJ5Ijo3NjIuODA5Mzg3MjA3MDMxMn0seyJ4IjoyODYuOTgwNDY4NzUsInkiOjc4Ny44MDkzODcyMDcwMzEyfSx7IngiOjMzOS4zNDc2NTYyNSwieSI6ODEyLjgwOTM4NzIwNzAzMTJ9XQ==" data-look="classic" marker-end="url(#my-svg_flowchart-v2-pointEnd)"/><path d="M417.898,887.809L417.898,891.976C417.898,896.143,417.898,904.476,417.898,912.143C417.898,919.809,417.898,926.809,417.898,930.309L417.898,933.809" id="my-svg-L_Slide_Compile_0" class="edge-thickness-normal edge-pattern-solid edge-thickness-normal edge-pattern-solid flowchart-link" style=";" data-edge="true" data-et="edge" data-id="L_Slide_Compile_0" data-points="W3sieCI6NDE3Ljg5ODQzNzUsInkiOjg4Ny44MDkzODcyMDcwMzEyfSx7IngiOjQxNy44OTg0Mzc1LCJ5Ijo5MTIuODA5Mzg3MjA3MDMxMn0seyJ4Ijo0MTcuODk4NDM3NSwieSI6OTM3LjgwOTM4NzIwNzAzMTJ9XQ==" data-look="classic" marker-end="url(#my-svg_flowchart-v2-pointEnd)"/><path d="M417.898,1035.309L417.898,1039.476C417.898,1043.643,417.898,1051.976,417.898,1059.643C417.898,1067.309,417.898,1074.309,417.898,1077.809L417.898,1081.309" id="my-svg-L_Compile_Visual_0" class="edge-thickness-normal edge-pattern-solid edge-thickness-normal edge-pattern-solid flowchart-link" style=";" data-edge="true" data-et="edge" data-id="L_Compile_Visual_0" data-points="W3sieCI6NDE3Ljg5ODQzNzUsInkiOjEwMzUuMzA5Mzg3MjA3MDMxMn0seyJ4Ijo0MTcuODk4NDM3NSwieSI6MTA2MC4zMDkzODcyMDcwMzEyfSx7IngiOjQxNy44OTg0Mzc1LCJ5IjoxMDg1LjMwOTM4NzIwNzAzMTJ9XQ==" data-look="classic" marker-end="url(#my-svg_flowchart-v2-pointEnd)"/><path d="M450.667,1217.978L458.213,1229.481C465.76,1240.984,480.853,1263.991,488.399,1280.869C495.945,1297.747,495.945,1308.497,495.945,1313.872L495.945,1319.247" id="my-svg-L_Visual_Image_0" class="edge-thickness-normal edge-pattern-solid edge-thickness-normal edge-pattern-solid flowchart-link" style=";" data-edge="true" data-et="edge" data-id="L_Visual_Image_0" data-points="W3sieCI6NDUwLjY2NzEwNzIwMDIxNDEsInkiOjEyMTcuOTc4MjE3NTA2ODE3MX0seyJ4Ijo0OTUuOTQ1MzEyNSwieSI6MTI4Ni45OTY4ODcyMDcwMzEyfSx7IngiOjQ5NS45NDUzMTI1LCJ5IjoxMzIzLjI0Njg4NzIwNzAzMTJ9XQ==" data-look="classic" marker-end="url(#my-svg_flowchart-v2-pointEnd)"/><path d="M385.13,1217.978L377.583,1229.481C370.037,1240.984,354.944,1263.991,347.398,1285.91C339.852,1307.83,339.852,1328.664,339.852,1347.622C339.852,1366.58,339.852,1383.664,344.534,1395.955C349.217,1408.247,358.583,1415.747,363.265,1419.497L367.948,1423.247" id="my-svg-L_Visual_Render_0" class="edge-thickness-normal edge-pattern-solid edge-thickness-normal edge-pattern-solid flowchart-link" style=";" data-edge="true" data-et="edge" data-id="L_Visual_Render_0" data-points="W3sieCI6Mzg1LjEyOTc2Nzc5OTc4NTksInkiOjEyMTcuOTc4MjE3NTA2ODE3MX0seyJ4IjozMzkuODUxNTYyNSwieSI6MTI4Ni45OTY4ODcyMDcwMzEyfSx7IngiOjMzOS44NTE1NjI1LCJ5IjoxMzQ5LjQ5Njg4NzIwNzAzMTJ9LHsieCI6MzM5Ljg1MTU2MjUsInkiOjE0MDAuNzQ2ODg3MjA3MDMxMn0seyJ4IjozNzEuMDcwMzEyNSwieSI6MTQyNS43NDY4ODcyMDcwMzEyfV0=" data-look="classic" marker-end="url(#my-svg_flowchart-v2-pointEnd)"/><path d="M495.945,1375.747L495.945,1379.914C495.945,1384.08,495.945,1392.414,491.263,1400.33C486.58,1408.247,477.214,1415.747,472.532,1419.497L467.849,1423.247" id="my-svg-L_Image_Render_0" class="edge-thickness-normal edge-pattern-solid edge-thickness-normal edge-pattern-solid flowchart-link" style=";" data-edge="true" data-et="edge" data-id="L_Image_Render_0" data-points="W3sieCI6NDk1Ljk0NTMxMjUsInkiOjEzNzUuNzQ2ODg3MjA3MDMxMn0seyJ4Ijo0OTUuOTQ1MzEyNSwieSI6MTQwMC43NDY4ODcyMDcwMzEyfSx7IngiOjQ2NC43MjY1NjI1LCJ5IjoxNDI1Ljc0Njg4NzIwNzAzMTJ9XQ==" data-look="classic" marker-end="url(#my-svg_flowchart-v2-pointEnd)"/><path d="M417.898,1500.747L417.898,1504.914C417.898,1509.08,417.898,1517.414,417.898,1525.08C417.898,1532.747,417.898,1539.747,417.898,1543.247L417.898,1546.747" id="my-svg-L_Render_Revision_0" class="edge-thickness-normal edge-pattern-solid edge-thickness-normal edge-pattern-solid flowchart-link" style=";" data-edge="true" data-et="edge" data-id="L_Render_Revision_0" data-points="W3sieCI6NDE3Ljg5ODQzNzUsInkiOjE1MDAuNzQ2ODg3MjA3MDMxMn0seyJ4Ijo0MTcuODk4NDM3NSwieSI6MTUyNS43NDY4ODcyMDcwMzEyfSx7IngiOjQxNy44OTg0Mzc1LCJ5IjoxNTUwLjc0Njg4NzIwNzAzMTJ9XQ==" data-look="classic" marker-end="url(#my-svg_flowchart-v2-pointEnd)"/><path d="M461.903,637.809L456.236,641.976C450.568,646.143,439.233,654.476,424.781,662.539C410.328,670.602,392.758,678.395,383.973,682.291L375.188,686.188" id="my-svg-L_Decides_Outline_0" class="edge-thickness-normal edge-pattern-dotted edge-thickness-normal edge-pattern-solid flowchart-link" style=";" data-edge="true" data-et="edge" data-id="L_Decides_Outline_0" data-points="W3sieCI6NDYxLjkwMzEwNDcwNzc5MjIsInkiOjYzNy44MDkzODcyMDcwMzEyfSx7IngiOjQyNy44OTg0Mzc1LCJ5Ijo2NjIuODA5Mzg3MjA3MDMxMn0seyJ4IjozNzEuNTMxMjUsInkiOjY4Ny44MDkzODcyMDcwMzEyfV0=" data-look="classic" marker-end="url(#my-svg_flowchart-v2-pointEnd)"/><path d="M566.219,637.809L566.652,641.976C567.085,646.143,567.951,654.476,568.384,669.059C568.816,683.643,568.816,704.476,568.816,725.309C568.816,746.143,568.816,766.976,559.371,781.304C549.926,795.633,531.035,803.456,521.59,807.367L512.145,811.279" id="my-svg-L_Decides_Slide_0" class="edge-thickness-normal edge-pattern-dotted edge-thickness-normal edge-pattern-solid flowchart-link" style=";" data-edge="true" data-et="edge" data-id="L_Decides_Slide_0" data-points="W3sieCI6NTY2LjIxOTAwMzY1MjU5NzQsInkiOjYzNy44MDkzODcyMDcwMzEyfSx7IngiOjU2OC44MTY0MDYyNSwieSI6NjYyLjgwOTM4NzIwNzAzMTJ9LHsieCI6NTY4LjgxNjQwNjI1LCJ5Ijo3MjUuMzA5Mzg3MjA3MDMxMn0seyJ4Ijo1NjguODE2NDA2MjUsInkiOjc4Ny44MDkzODcyMDcwMzEyfSx7IngiOjUwOC40NDkyMTg3NSwieSI6ODEyLjgwOTM4NzIwNzAzMTJ9XQ==" data-look="classic" marker-end="url(#my-svg_flowchart-v2-pointEnd)"/><path d="M426.641,445.309L426.641,449.476C426.641,453.643,426.641,461.976,411.976,475.574C397.312,489.171,367.983,508.034,353.318,517.465L338.654,526.896" id="my-svg-L_Boundary_Research_0" class="edge-thickness-normal edge-pattern-dotted edge-thickness-normal edge-pattern-solid flowchart-link" style=";" data-edge="true" data-et="edge" data-id="L_Boundary_Research_0" data-points="W3sieCI6NDI2LjY0MDYyNSwieSI6NDQ1LjMwOTM4NzIwNzAzMTI1fSx7IngiOjQyNi42NDA2MjUsInkiOjQ3MC4zMDkzODcyMDcwMzEyNX0seyJ4IjozMzUuMjg5NjIwNTM1NzE0MywieSI6NTI5LjA1OTM4NzIwNzAzMTJ9XQ==" data-look="classic" marker-end="url(#my-svg_flowchart-v2-pointEnd)"/></g><g class="edgeLabels"><g class="edgeLabel"><g class="label" data-id="L_Ask_Supervisor_0" transform="translate(0, 0)"><foreignObject width="0" height="0"><div xmlns="http://www.w3.org/1999/xhtml" class="labelBkg" style="display: table-cell; white-space: nowrap; line-height: 1.5; max-width: 200px; text-align: center;"><span class="edgeLabel"></span></div></foreignObject></g></g><g class="edgeLabel"><g class="label" data-id="L_Supervisor_Job_0" transform="translate(0, 0)"><foreignObject width="0" height="0"><div xmlns="http://www.w3.org/1999/xhtml" class="labelBkg" style="display: table-cell; white-space: nowrap; line-height: 1.5; max-width: 200px; text-align: center;"><span class="edgeLabel"></span></div></foreignObject></g></g><g class="edgeLabel"><g class="label" data-id="L_Job_Worker_0" transform="translate(0, 0)"><foreignObject width="0" height="0"><div xmlns="http://www.w3.org/1999/xhtml" class="labelBkg" style="display: table-cell; white-space: nowrap; line-height: 1.5; max-width: 200px; text-align: center;"><span class="edgeLabel"></span></div></foreignObject></g></g><g class="edgeLabel"><g class="label" data-id="L_Worker_Research_0" transform="translate(0, 0)"><foreignObject width="0" height="0"><div xmlns="http://www.w3.org/1999/xhtml" class="labelBkg" style="display: table-cell; white-space: nowrap; line-height: 1.5; max-width: 200px; text-align: center;"><span class="edgeLabel"></span></div></foreignObject></g></g><g class="edgeLabel"><g class="label" data-id="L_Research_Outline_0" transform="translate(0, 0)"><foreignObject width="0" height="0"><div xmlns="http://www.w3.org/1999/xhtml" class="labelBkg" style="display: table-cell; white-space: nowrap; line-height: 1.5; max-width: 200px; text-align: center;"><span class="edgeLabel"></span></div></foreignObject></g></g><g class="edgeLabel"><g class="label" data-id="L_Outline_Slide_0" transform="translate(0, 0)"><foreignObject width="0" height="0"><div xmlns="http://www.w3.org/1999/xhtml" class="labelBkg" style="display: table-cell; white-space: nowrap; line-height: 1.5; max-width: 200px; text-align: center;"><span class="edgeLabel"></span></div></foreignObject></g></g><g class="edgeLabel"><g class="label" data-id="L_Slide_Compile_0" transform="translate(0, 0)"><foreignObject width="0" height="0"><div xmlns="http://www.w3.org/1999/xhtml" class="labelBkg" style="display: table-cell; white-space: nowrap; line-height: 1.5; max-width: 200px; text-align: center;"><span class="edgeLabel"></span></div></foreignObject></g></g><g class="edgeLabel"><g class="label" data-id="L_Compile_Visual_0" transform="translate(0, 0)"><foreignObject width="0" height="0"><div xmlns="http://www.w3.org/1999/xhtml" class="labelBkg" style="display: table-cell; white-space: nowrap; line-height: 1.5; max-width: 200px; text-align: center;"><span class="edgeLabel"></span></div></foreignObject></g></g><g class="edgeLabel" transform="translate(495.9453125, 1286.9968872070312)"><g class="label" data-id="L_Visual_Image_0" transform="translate(-68, -11.25)"><foreignObject width="136" height="22.5"><div xmlns="http://www.w3.org/1999/xhtml" class="labelBkg" style="display: table-cell; white-space: nowrap; line-height: 1.5; max-width: 200px; text-align: center;"><span class="edgeLabel"><p>bounded, best effort</p></span></div></foreignObject></g></g><g class="edgeLabel" transform="translate(339.8515625, 1349.4968872070312)"><g class="label" data-id="L_Visual_Render_0" transform="translate(-8.640625, -11.25)"><foreignObject width="17.28125" height="22.5"><div xmlns="http://www.w3.org/1999/xhtml" class="labelBkg" style="display: table-cell; white-space: nowrap; line-height: 1.5; max-width: 200px; text-align: center;"><span class="edgeLabel"><p>no</p></span></div></foreignObject></g></g><g class="edgeLabel"><g class="label" data-id="L_Image_Render_0" transform="translate(0, 0)"><foreignObject width="0" height="0"><div xmlns="http://www.w3.org/1999/xhtml" class="labelBkg" style="display: table-cell; white-space: nowrap; line-height: 1.5; max-width: 200px; text-align: center;"><span class="edgeLabel"></span></div></foreignObject></g></g><g class="edgeLabel"><g class="label" data-id="L_Render_Revision_0" transform="translate(0, 0)"><foreignObject width="0" height="0"><div xmlns="http://www.w3.org/1999/xhtml" class="labelBkg" style="display: table-cell; white-space: nowrap; line-height: 1.5; max-width: 200px; text-align: center;"><span class="edgeLabel"></span></div></foreignObject></g></g><g class="edgeLabel"><g class="label" data-id="L_Decides_Outline_0" transform="translate(0, 0)"><foreignObject width="0" height="0"><div xmlns="http://www.w3.org/1999/xhtml" class="labelBkg" style="display: table-cell; white-space: nowrap; line-height: 1.5; max-width: 200px; text-align: center;"><span class="edgeLabel"></span></div></foreignObject></g></g><g class="edgeLabel"><g class="label" data-id="L_Decides_Slide_0" transform="translate(0, 0)"><foreignObject width="0" height="0"><div xmlns="http://www.w3.org/1999/xhtml" class="labelBkg" style="display: table-cell; white-space: nowrap; line-height: 1.5; max-width: 200px; text-align: center;"><span class="edgeLabel"></span></div></foreignObject></g></g><g class="edgeLabel"><g class="label" data-id="L_Boundary_Research_0" transform="translate(0, 0)"><foreignObject width="0" height="0"><div xmlns="http://www.w3.org/1999/xhtml" class="labelBkg" style="display: table-cell; white-space: nowrap; line-height: 1.5; max-width: 200px; text-align: center;"><span class="edgeLabel"></span></div></foreignObject></g></g></g><g class="nodes"><g class="node default interface" id="my-svg-flowchart-Ask-0" data-look="classic" transform="translate(127.3203125, 26.75)"><g class="basic label-container outer-path"><path d="M-87.1328125 -18.75 C-34.2069847221848 -18.75, 18.7188430556304 -18.75, 87.1328125 -18.75 C87.1328125 -18.75, 87.1328125 -18.75, 87.1328125 -18.75 C87.4637870350117 -18.739386290865024, 87.7947615700234 -18.728772581730052, 88.33412912463837 -18.711476114068805 C88.64487356447701 -18.681498971682437, 88.95561800431565 -18.651521829296072, 89.53050928158449 -18.596062759185866 C89.94911402396893 -18.52838599076541, 90.36771876635339 -18.460709222344953, 90.71703678815072 -18.40423419358248 C91.06119345254584 -18.325682680766413, 91.40535011694094 -18.247131167950347, 91.88883594830325 -18.136778681981802 C92.20332317024014 -18.04344052528805, 92.51781039217701 -17.950102368594298, 93.04109158794289 -17.794795256450037 C93.43885673595794 -17.648414005079776, 93.83662188397301 -17.50203275370951, 94.16906884148827 -17.37968920023791 C94.4143193109407 -17.27112409250801, 94.65956978039311 -17.162558984778116, 95.26813260845421 -16.89316627317036 C95.52712002578731 -16.75805270343704, 95.7861074431204 -16.622939133703724, 96.33376660007383 -16.337225702313553 C96.63415525494986 -16.15512833444803, 96.93454390982588 -15.973030966582503, 97.36159189769779 -15.714151966722014 C97.74353749657665 -15.447723251102609, 98.12548309545551 -15.181294535483202, 98.34738494671029 -15.026505410024187 C98.56848723830598 -14.850182216255714, 98.78958952990166 -14.67385902248724, 99.28709491202103 -14.277111719421272 C99.58128130204707 -14.009939423744973, 99.8754676920731 -13.742767128068673, 100.17686032381538 -13.469050314332392 C100.34432166792959 -13.296132727702423, 100.5117830120438 -13.123215141072453, 101.01302494516216 -12.605641692399693 C101.19135725783829 -12.39616241053426, 101.36968957051441 -12.186683128668827, 101.79215279627556 -11.690433784851255 C102.03894220911695 -11.359758454621813, 102.28573162195835 -11.029083124392372, 102.51104227369292 -10.727187377290685 C102.70700080663707 -10.426142448454572, 102.90295933958122 -10.125097519618459, 103.16673930635024 -9.719860655822346 C103.31046218311819 -9.464666134601455, 103.45418505988613 -9.209471613380565, 103.75654949449375 -8.672592942015662 C103.90408383590912 -8.366234725337431, 104.0516181773245 -8.059876508659201, 104.27804918154648 -7.589687683544889 C104.3694848417972 -7.363839834937365, 104.46092050204793 -7.13799198632984, 104.729095413433 -6.475594770399527 C104.80888937321204 -6.235268076986035, 104.88868333299108 -5.9949413835725425, 105.10783474443738 -5.334892249331864 C105.21120612267109 -4.940692382688052, 105.31457750090478 -4.546492516044242, 105.4127108534092 -4.172267511680897 C105.46229335468729 -3.9176718468832146, 105.51187585596539 -3.663076182085532, 105.64247093902094 -2.9924980318758676 C105.6961049286744 -2.5765233993527827, 105.74973891832788 -2.160548766829698, 105.79617086779747 -1.8004317357690365 C105.81303493756594 -1.5377602366928818, 105.82989900733442 -1.275088737616727, 105.8731790537629 -0.6009670794685343 C105.8731790537629 -0.15429519333067176, 105.8731790537629 0.2923766928071908, 105.8731790537629 0.6009670794685298 C105.84864592156129 0.9830904162964679, 105.82411278935969 1.365213753124406, 105.79617086779747 1.8004317357690236 C105.7507442572468 2.152751556701145, 105.70531764669613 2.505071377633267, 105.64247093902094 2.9924980318758543 C105.57485412461133 3.3396960830503613, 105.50723731020175 3.6868941342248682, 105.4127108534092 4.172267511680893 C105.32458307932666 4.508336909076494, 105.23645530524412 4.844406306472094, 105.10783474443738 5.334892249331851 C105.0254177581957 5.583119080528313, 104.94300077195402 5.8313459117247755, 104.72909541343301 6.475594770399514 C104.59102577623501 6.816629443673412, 104.45295613903701 7.157664116947309, 104.27804918154649 7.589687683544883 C104.08352600959745 7.993619212226181, 103.8890028376484 8.397550740907478, 103.75654949449375 8.672592942015656 C103.60786594882198 8.936595633197486, 103.45918240315021 9.200598324379317, 103.16673930635024 9.719860655822343 C103.0010286667708 9.97443669775363, 102.83531802719133 10.229012739684917, 102.51104227369292 10.727187377290674 C102.23279484963685 11.100013576664, 101.95454742558078 11.472839776037329, 101.79215279627556 11.690433784851251 C101.49535947230997 12.039064111199776, 101.1985661483444 12.387694437548301, 101.01302494516217 12.605641692399683 C100.8396945351189 12.78461957146069, 100.66636412507562 12.963597450521698, 100.17686032381538 13.469050314332389 C99.9002118570562 13.720295132125742, 99.62356339029705 13.971539949919093, 99.28709491202105 14.27711171942126 C98.97427545386579 14.52657691282469, 98.66145599571054 14.776042106228122, 98.3473849467103 15.026505410024184 C97.96242315747098 15.29503808947027, 97.57746136823165 15.563570768916353, 97.36159189769779 15.714151966722007 C97.13058097631642 15.85419214483425, 96.89957005493507 15.994232322946496, 96.33376660007383 16.337225702313553 C96.07529497778799 16.4720701821011, 95.81682335550217 16.606914661888645, 95.26813260845422 16.89316627317036 C94.92970297419869 17.04297903309687, 94.59127333994317 17.192791793023382, 94.16906884148827 17.379689200237905 C93.72716828252072 17.542312690821955, 93.28526772355316 17.704936181406, 93.0410915879429 17.794795256450033 C92.79300860435713 17.86842498376414, 92.54492562077135 17.942054711078242, 91.88883594830328 18.1367786819818 C91.63687406127293 18.194287338491502, 91.3849121742426 18.251795995001206, 90.71703678815074 18.404234193582475 C90.44773156643886 18.447773373335664, 90.17842634472699 18.491312553088854, 89.5305092815845 18.596062759185862 C89.16684451936678 18.63114506142614, 88.80317975714905 18.66622736366642, 88.33412912463837 18.711476114068805 C88.08320288842462 18.71952283006589, 87.83227665221087 18.727569546062977, 87.1328125 18.75 C87.1328125 18.75, 87.1328125 18.75, 87.1328125 18.75 C33.784000531572815 18.75, -19.56481143685437 18.75, -87.1328125 18.75 C-87.53088289128114 18.737234657348626, -87.92895328256228 18.724469314697252, -88.33412912463837 18.711476114068805 C-88.7003806058775 18.676144274155515, -89.06663208711663 18.64081243424223, -89.53050928158449 18.596062759185862 C-89.951457471274 18.52800712037883, -90.37240566096351 18.459951481571796, -90.71703678815074 18.404234193582475 C-91.06211314610235 18.3254727667137, -91.40718950405396 18.24671133984492, -91.88883594830325 18.136778681981802 C-92.26567529508047 18.02493474192842, -92.6425146418577 17.913090801875036, -93.04109158794287 17.79479525645004 C-93.49222174300216 17.628775189186783, -93.94335189806147 17.462755121923525, -94.16906884148827 17.37968920023791 C-94.47075628830584 17.246141116771916, -94.7724437351234 17.112593033305924, -95.26813260845421 16.893166273170362 C-95.52330702114355 16.760041945517347, -95.7784814338329 16.62691761786433, -96.33376660007383 16.337225702313557 C-96.54988489072508 16.206213524468716, -96.76600318137635 16.075201346623874, -97.36159189769778 15.714151966722019 C-97.64808304365116 15.514308145306762, -97.93457418960455 15.314464323891505, -98.34738494671029 15.026505410024189 C-98.5577121528142 14.858775060198333, -98.76803935891813 14.691044710372475, -99.28709491202103 14.277111719421274 C-99.52519704528295 14.060873661830026, -99.76329917854487 13.84463560423878, -100.17686032381536 13.469050314332401 C-100.43118740907865 13.206436718156036, -100.68551449434193 12.943823121979673, -101.01302494516217 12.60564169239969 C-101.27362465576682 12.299526443779861, -101.53422436637146 11.993411195160034, -101.79215279627556 11.690433784851257 C-101.93867687276564 11.494104870972516, -102.08520094925574 11.297775957093775, -102.51104227369292 10.727187377290688 C-102.66671278534373 10.488035668009642, -102.82238329699454 10.248883958728594, -103.16673930635024 9.719860655822355 C-103.32649897640597 9.436191184217577, -103.48625864646172 9.152521712612797, -103.75654949449375 8.672592942015664 C-103.94527503583576 8.280700317339292, -104.13400057717776 7.8888076926629225, -104.27804918154648 7.5896876835448905 C-104.40986132170592 7.264109148936695, -104.54167346186537 6.938530614328501, -104.729095413433 6.475594770399529 C-104.8765160217306 6.031587386491326, -105.02393663002819 5.587580002583123, -105.10783474443738 5.334892249331858 C-105.19379323632522 5.007095265117488, -105.27975172821306 4.679298280903116, -105.4127108534092 4.172267511680899 C-105.46315730562286 3.9132356414251936, -105.51360375783652 3.654203771169488, -105.64247093902094 2.9924980318758694 C-105.68241630143125 2.6826896891255005, -105.72236166384155 2.3728813463751317, -105.79617086779746 1.8004317357690471 C-105.81777386049933 1.4639476868156178, -105.8393768532012 1.1274636378621885, -105.8731790537629 0.6009670794685367 C-105.8731790537629 0.2384824673334564, -105.8731790537629 -0.12400214480162386, -105.8731790537629 -0.6009670794685276 C-105.84336414515715 -1.0653583471640833, -105.81354923655141 -1.529749614859639, -105.79617086779747 -1.8004317357690214 C-105.75085133413587 -2.1519210894941834, -105.70553180047428 -2.5034104432193454, -105.64247093902094 -2.9924980318758605 C-105.58775955206639 -3.273429440631781, -105.53304816511182 -3.5543608493877015, -105.4127108534092 -4.17226751168089 C-105.3057977726989 -4.579973424851518, -105.19888469198861 -4.987679338022146, -105.10783474443738 -5.334892249331849 C-105.01538501227708 -5.613336112734217, -104.92293528011677 -5.891779976136585, -104.72909541343301 -6.475594770399505 C-104.59334687476638 -6.810896285425553, -104.45759833609974 -7.1461978004516, -104.27804918154649 -7.589687683544882 C-104.13853677723968 -7.879388176175224, -103.99902437293287 -8.169088668805568, -103.75654949449375 -8.672592942015655 C-103.53133586686764 -9.07248254321855, -103.30612223924152 -9.472372144421445, -103.16673930635024 -9.719860655822348 C-102.93930771024209 -10.069256661379178, -102.71187611413394 -10.418652666936007, -102.51104227369292 -10.727187377290681 C-102.22689087038282 -11.107924371000838, -101.94273946707271 -11.488661364710996, -101.79215279627556 -11.690433784851251 C-101.62076717611261 -11.89175308641271, -101.44938155594966 -12.093072387974166, -101.01302494516217 -12.605641692399683 C-100.69153164604866 -12.937609918825123, -100.37003834693515 -13.269578145250563, -100.17686032381538 -13.469050314332382 C-99.87421328873836 -13.743906343987586, -99.57156625366135 -14.01876237364279, -99.28709491202105 -14.277111719421258 C-99.0977885518729 -14.428078503985597, -98.90848219172474 -14.579045288549938, -98.3473849467103 -15.026505410024182 C-98.13906219475236 -15.17182234364346, -97.93073944279442 -15.317139277262736, -97.36159189769779 -15.714151966722005 C-97.11728292316783 -15.862253502800966, -96.87297394863786 -16.010355038879926, -96.33376660007383 -16.33722570231355 C-96.05405218754483 -16.4831525321643, -95.77433777501582 -16.62907936201505, -95.26813260845422 -16.89316627317036 C-95.03961781723166 -16.994322992594153, -94.81110302600908 -17.09547971201795, -94.16906884148827 -17.379689200237905 C-93.8600328446272 -17.49341730378022, -93.55099684776613 -17.60714540732253, -93.0410915879429 -17.794795256450033 C-92.6280332360741 -17.917388807097158, -92.21497488420532 -18.039982357744282, -91.88883594830328 -18.136778681981795 C-91.62099120700009 -18.197912496333966, -91.35314646569688 -18.25904631068614, -90.71703678815074 -18.40423419358247 C-90.44619737292327 -18.448021409845417, -90.1753579576958 -18.49180862610836, -89.5305092815845 -18.596062759185862 C-89.2099371925872 -18.626987963067087, -88.88936510358991 -18.657913166948312, -88.33412912463837 -18.711476114068805 C-87.9970020320201 -18.722287123750995, -87.65987493940183 -18.733098133433185, -87.1328125 -18.75 C-87.1328125 -18.75, -87.1328125 -18.75, -87.1328125 -18.75" stroke="none" stroke-width="0" fill="#f5f5f7" style="fill:#f5f5f7 !important;stroke:#86868b !important"/><path d="M-87.1328125 -18.75 C-43.036937876824 -18.75, 1.0589367463520034 -18.75, 87.1328125 -18.75 M-87.1328125 -18.75 C-31.29905101250425 -18.75, 24.5347104749915 -18.75, 87.1328125 -18.75 M87.1328125 -18.75 C87.1328125 -18.75, 87.1328125 -18.75, 87.1328125 -18.75 M87.1328125 -18.75 C87.1328125 -18.75, 87.1328125 -18.75, 87.1328125 -18.75 M87.1328125 -18.75 C87.38824812293 -18.74180867674791, 87.64368374585997 -18.733617353495827, 88.33412912463837 -18.711476114068805 M87.1328125 -18.75 C87.54560280502747 -18.736762618365354, 87.95839311005496 -18.72352523673071, 88.33412912463837 -18.711476114068805 M88.33412912463837 -18.711476114068805 C88.79570632734281 -18.666948316451712, 89.25728353004725 -18.62242051883462, 89.53050928158449 -18.596062759185866 M88.33412912463837 -18.711476114068805 C88.68550795437487 -18.677579020958998, 89.03688678411137 -18.643681927849187, 89.53050928158449 -18.596062759185866 M89.53050928158449 -18.596062759185866 C89.94121248059339 -18.529663451020983, 90.35191567960229 -18.4632641428561, 90.71703678815072 -18.40423419358248 M89.53050928158449 -18.596062759185866 C89.81176902867516 -18.55059086447816, 90.09302877576583 -18.505118969770457, 90.71703678815072 -18.40423419358248 M90.71703678815072 -18.40423419358248 C90.99093607081647 -18.341718469673875, 91.26483535348223 -18.279202745765275, 91.88883594830325 -18.136778681981802 M90.71703678815072 -18.40423419358248 C90.97823315340366 -18.344617827679066, 91.23942951865662 -18.285001461775654, 91.88883594830325 -18.136778681981802 M91.88883594830325 -18.136778681981802 C92.12213557758955 -18.067536576624377, 92.35543520687582 -17.998294471266952, 93.04109158794289 -17.794795256450037 M91.88883594830325 -18.136778681981802 C92.27081647409521 -18.023408866983445, 92.65279699988717 -17.910039051985088, 93.04109158794289 -17.794795256450037 M93.04109158794289 -17.794795256450037 C93.4183304822162 -17.655967856199343, 93.79556937648954 -17.51714045594865, 94.16906884148827 -17.37968920023791 M93.04109158794289 -17.794795256450037 C93.45484701417662 -17.642529434882793, 93.86860244041036 -17.490263613315545, 94.16906884148827 -17.37968920023791 M94.16906884148827 -17.37968920023791 C94.44606135381655 -17.257072831721118, 94.72305386614482 -17.134456463204327, 95.26813260845421 -16.89316627317036 M94.16906884148827 -17.37968920023791 C94.40394320989965 -17.27571728464278, 94.63881757831102 -17.171745369047656, 95.26813260845421 -16.89316627317036 M95.26813260845421 -16.89316627317036 C95.59557304974165 -16.72234080468632, 95.92301349102908 -16.551515336202275, 96.33376660007383 -16.337225702313553 M95.26813260845421 -16.89316627317036 C95.4820124771361 -16.78158528267561, 95.695892345818 -16.670004292180863, 96.33376660007383 -16.337225702313553 M96.33376660007383 -16.337225702313553 C96.73291192391362 -16.09526146136359, 97.13205724775341 -15.85329722041363, 97.36159189769779 -15.714151966722014 M96.33376660007383 -16.337225702313553 C96.73165957979936 -16.096020639725246, 97.12955255952488 -15.854815577136938, 97.36159189769779 -15.714151966722014 M97.36159189769779 -15.714151966722014 C97.70463689622278 -15.474858625929624, 98.04768189474777 -15.235565285137234, 98.34738494671029 -15.026505410024187 M97.36159189769779 -15.714151966722014 C97.67457094175904 -15.495831334229338, 97.98754998582028 -15.277510701736661, 98.34738494671029 -15.026505410024187 M98.34738494671029 -15.026505410024187 C98.7087042551189 -14.738362876678924, 99.07002356352753 -14.45022034333366, 99.28709491202103 -14.277111719421272 M98.34738494671029 -15.026505410024187 C98.62402871792077 -14.805889364283763, 98.90067248913124 -14.585273318543337, 99.28709491202103 -14.277111719421272 M99.28709491202103 -14.277111719421272 C99.5051181915731 -14.07910874551195, 99.72314147112517 -13.88110577160263, 100.17686032381538 -13.469050314332392 M99.28709491202103 -14.277111719421272 C99.48816959374906 -14.094501013620421, 99.6892442754771 -13.91189030781957, 100.17686032381538 -13.469050314332392 M100.17686032381538 -13.469050314332392 C100.47752432485795 -13.158590048282365, 100.77818832590053 -12.84812978223234, 101.01302494516216 -12.605641692399693 M100.17686032381538 -13.469050314332392 C100.37666066132985 -13.26274006193592, 100.57646099884431 -13.056429809539448, 101.01302494516216 -12.605641692399693 M101.01302494516216 -12.605641692399693 C101.28373851254223 -12.287646132116711, 101.55445207992229 -11.96965057183373, 101.79215279627556 -11.690433784851255 M101.01302494516216 -12.605641692399693 C101.29381410370033 -12.275810769425021, 101.5746032622385 -11.945979846450351, 101.79215279627556 -11.690433784851255 M101.79215279627556 -11.690433784851255 C101.97729064017967 -11.44236594042429, 102.1624284840838 -11.194298095997324, 102.51104227369292 -10.727187377290685 M101.79215279627556 -11.690433784851255 C102.04756696175923 -11.348202071812294, 102.3029811272429 -11.005970358773332, 102.51104227369292 -10.727187377290685 M102.51104227369292 -10.727187377290685 C102.6981748801345 -10.439701441655634, 102.88530748657607 -10.152215506020584, 103.16673930635024 -9.719860655822346 M102.51104227369292 -10.727187377290685 C102.64756091030436 -10.517458091068633, 102.78407954691582 -10.30772880484658, 103.16673930635024 -9.719860655822346 M103.16673930635024 -9.719860655822346 C103.37299050798208 -9.353640762126133, 103.57924170961392 -8.987420868429918, 103.75654949449375 -8.672592942015662 M103.16673930635024 -9.719860655822346 C103.34505359082574 -9.403245587456828, 103.52336787530125 -9.086630519091312, 103.75654949449375 -8.672592942015662 M103.75654949449375 -8.672592942015662 C103.93276961545021 -8.306668090343015, 104.10898973640666 -7.940743238670368, 104.27804918154648 -7.589687683544889 M103.75654949449375 -8.672592942015662 C103.86924050757476 -8.43858764215153, 103.98193152065578 -8.204582342287399, 104.27804918154648 -7.589687683544889 M104.27804918154648 -7.589687683544889 C104.43934039438203 -7.1912952694876155, 104.60063160721758 -6.792902855430343, 104.729095413433 -6.475594770399527 M104.27804918154648 -7.589687683544889 C104.41216065984865 -7.258429739269492, 104.54627213815081 -6.927171794994095, 104.729095413433 -6.475594770399527 M104.729095413433 -6.475594770399527 C104.84639847398995 -6.122296641706593, 104.9637015345469 -5.768998513013659, 105.10783474443738 -5.334892249331864 M104.729095413433 -6.475594770399527 C104.83455370725927 -6.157971191892073, 104.94001200108556 -5.840347613384618, 105.10783474443738 -5.334892249331864 M105.10783474443738 -5.334892249331864 C105.17329262775873 -5.085272970601498, 105.23875051108007 -4.835653691871132, 105.4127108534092 -4.172267511680897 M105.10783474443738 -5.334892249331864 C105.21490719833992 -4.926578577106464, 105.32197965224243 -4.518264904881064, 105.4127108534092 -4.172267511680897 M105.4127108534092 -4.172267511680897 C105.46198325993497 -3.919264117897848, 105.51125566646074 -3.6662607241147986, 105.64247093902094 -2.9924980318758676 M105.4127108534092 -4.172267511680897 C105.47704675001401 -3.8419162800117324, 105.54138264661883 -3.5115650483425673, 105.64247093902094 -2.9924980318758676 M105.64247093902094 -2.9924980318758676 C105.67520942045209 -2.7385848348402306, 105.70794790188324 -2.4846716378045937, 105.79617086779747 -1.8004317357690365 M105.64247093902094 -2.9924980318758676 C105.67979525644408 -2.7030179964621652, 105.71711957386721 -2.4135379610484624, 105.79617086779747 -1.8004317357690365 M105.79617086779747 -1.8004317357690365 C105.8129227992553 -1.5395068813976798, 105.82967473071312 -1.278582027026323, 105.8731790537629 -0.6009670794685343 M105.79617086779747 -1.8004317357690365 C105.81920346378871 -1.4416804616286403, 105.84223605977995 -1.082929187488244, 105.8731790537629 -0.6009670794685343 M105.8731790537629 -0.6009670794685343 C105.8731790537629 -0.2752730930538771, 105.8731790537629 0.05042089336078015, 105.8731790537629 0.6009670794685298 M105.8731790537629 -0.6009670794685343 C105.8731790537629 -0.16794966662283273, 105.8731790537629 0.2650677462228689, 105.8731790537629 0.6009670794685298 M105.8731790537629 0.6009670794685298 C105.8491860313488 0.974677770387364, 105.82519300893469 1.3483884613061983, 105.79617086779747 1.8004317357690236 M105.8731790537629 0.6009670794685298 C105.84714278872517 1.006502923526009, 105.82110652368745 1.4120387675834882, 105.79617086779747 1.8004317357690236 M105.79617086779747 1.8004317357690236 C105.73923536718668 2.242012235319976, 105.6822998665759 2.6835927348709276, 105.64247093902094 2.9924980318758543 M105.79617086779747 1.8004317357690236 C105.74921182262948 2.1646368169796473, 105.70225277746148 2.528841898190271, 105.64247093902094 2.9924980318758543 M105.64247093902094 2.9924980318758543 C105.5874779293394 3.274875513813841, 105.53248491965786 3.5572529957518273, 105.4127108534092 4.172267511680893 M105.64247093902094 2.9924980318758543 C105.58487754436632 3.2882279410590467, 105.5272841497117 3.5839578502422387, 105.4127108534092 4.172267511680893 M105.4127108534092 4.172267511680893 C105.348402106243 4.417504636212922, 105.2840933590768 4.662741760744952, 105.10783474443738 5.334892249331851 M105.4127108534092 4.172267511680893 C105.29826007228816 4.6087179433777195, 105.18380929116712 5.045168375074546, 105.10783474443738 5.334892249331851 M105.10783474443738 5.334892249331851 C104.96746218760111 5.757672025193033, 104.82708963076486 6.1804518010542155, 104.72909541343301 6.475594770399514 M105.10783474443738 5.334892249331851 C104.96025484802163 5.779379383672847, 104.81267495160587 6.2238665180138435, 104.72909541343301 6.475594770399514 M104.72909541343301 6.475594770399514 C104.6296827012149 6.72114609159228, 104.53026998899679 6.966697412785044, 104.27804918154649 7.589687683544883 M104.72909541343301 6.475594770399514 C104.60868944189069 6.772999848000158, 104.48828347034836 7.070404925600801, 104.27804918154649 7.589687683544883 M104.27804918154649 7.589687683544883 C104.15309158459678 7.849164807275224, 104.02813398764707 8.108641931005563, 103.75654949449375 8.672592942015656 M104.27804918154649 7.589687683544883 C104.15168906726896 7.852077164515503, 104.02532895299143 8.114466645486123, 103.75654949449375 8.672592942015656 M103.75654949449375 8.672592942015656 C103.62779588821222 8.901208007684922, 103.49904228193068 9.129823073354185, 103.16673930635024 9.719860655822343 M103.75654949449375 8.672592942015656 C103.6014773183535 8.947939293513258, 103.44640514221325 9.223285645010858, 103.16673930635024 9.719860655822343 M103.16673930635024 9.719860655822343 C103.00772504208521 9.964149267042128, 102.84871077782019 10.208437878261911, 102.51104227369292 10.727187377290674 M103.16673930635024 9.719860655822343 C102.94002545690552 10.068154009762171, 102.71331160746081 10.416447363702, 102.51104227369292 10.727187377290674 M102.51104227369292 10.727187377290674 C102.34794886332934 10.945717689062537, 102.18485545296575 11.164248000834398, 101.79215279627556 11.690433784851251 M102.51104227369292 10.727187377290674 C102.24889991387992 11.078434257779818, 101.98675755406693 11.429681138268965, 101.79215279627556 11.690433784851251 M101.79215279627556 11.690433784851251 C101.60452445210133 11.910832714273525, 101.41689610792712 12.131231643695797, 101.01302494516217 12.605641692399683 M101.79215279627556 11.690433784851251 C101.49718083863988 12.036924630669999, 101.20220888100418 12.383415476488747, 101.01302494516217 12.605641692399683 M101.01302494516217 12.605641692399683 C100.74270835553737 12.884765764592037, 100.47239176591258 13.163889836784394, 100.17686032381538 13.469050314332389 M101.01302494516217 12.605641692399683 C100.7450581136616 12.882339446410041, 100.47709128216103 13.1590372004204, 100.17686032381538 13.469050314332389 M100.17686032381538 13.469050314332389 C99.98868853504936 13.639942954136979, 99.80051674628335 13.810835593941567, 99.28709491202105 14.27711171942126 M100.17686032381538 13.469050314332389 C99.92961325996305 13.693593555924249, 99.6823661961107 13.918136797516109, 99.28709491202105 14.27711171942126 M99.28709491202105 14.27711171942126 C98.99147726589116 14.512858925493896, 98.69585961976128 14.748606131566534, 98.3473849467103 15.026505410024184 M99.28709491202105 14.27711171942126 C99.04873521574565 14.467197234182985, 98.81037551947024 14.657282748944708, 98.3473849467103 15.026505410024184 M98.3473849467103 15.026505410024184 C98.01393088132373 15.259108531044015, 97.68047681593715 15.491711652063849, 97.36159189769779 15.714151966722007 M98.3473849467103 15.026505410024184 C97.96277986066524 15.294789268763385, 97.57817477462018 15.563073127502587, 97.36159189769779 15.714151966722007 M97.36159189769779 15.714151966722007 C97.08303231343142 15.883016423702104, 96.80447272916504 16.0518808806822, 96.33376660007383 16.337225702313553 M97.36159189769779 15.714151966722007 C97.07079114299444 15.890437093158102, 96.7799903882911 16.066722219594197, 96.33376660007383 16.337225702313553 M96.33376660007383 16.337225702313553 C95.95549923189007 16.53456754600321, 95.57723186370632 16.731909389692866, 95.26813260845422 16.89316627317036 M96.33376660007383 16.337225702313553 C95.91891663381749 16.5536526639854, 95.50406666756115 16.77007962565725, 95.26813260845422 16.89316627317036 M95.26813260845422 16.89316627317036 C94.96025745128358 17.02945347245775, 94.65238229411295 17.16574067174514, 94.16906884148827 17.379689200237905 M95.26813260845422 16.89316627317036 C94.87097835643777 17.06897467937574, 94.47382410442133 17.24478308558112, 94.16906884148827 17.379689200237905 M94.16906884148827 17.379689200237905 C93.87187555266898 17.48905907774805, 93.5746822638497 17.598428955258196, 93.0410915879429 17.794795256450033 M94.16906884148827 17.379689200237905 C93.82300576938742 17.507043609742986, 93.47694269728657 17.63439801924807, 93.0410915879429 17.794795256450033 M93.0410915879429 17.794795256450033 C92.76399671547898 17.877035560096658, 92.48690184301506 17.959275863743287, 91.88883594830328 18.1367786819818 M93.0410915879429 17.794795256450033 C92.67857392546871 17.902388595778334, 92.31605626299452 18.00998193510663, 91.88883594830328 18.1367786819818 M91.88883594830328 18.1367786819818 C91.64025629981516 18.193515364615408, 91.39167665132705 18.25025204724902, 90.71703678815074 18.404234193582475 M91.88883594830328 18.1367786819818 C91.63253838916204 18.19527692735791, 91.37624083002079 18.253775172734024, 90.71703678815074 18.404234193582475 M90.71703678815074 18.404234193582475 C90.2968290031165 18.472170129506768, 89.87662121808228 18.540106065431058, 89.5305092815845 18.596062759185862 M90.71703678815074 18.404234193582475 C90.41914266747784 18.45239540480946, 90.12124854680494 18.500556616036445, 89.5305092815845 18.596062759185862 M89.5305092815845 18.596062759185862 C89.0841404391693 18.63912342457658, 88.6377715967541 18.6821840899673, 88.33412912463837 18.711476114068805 M89.5305092815845 18.596062759185862 C89.20431334673673 18.62753048871262, 88.87811741188895 18.658998218239375, 88.33412912463837 18.711476114068805 M88.33412912463837 18.711476114068805 C87.93506541766735 18.724273310420983, 87.53600171069631 18.737070506773158, 87.1328125 18.75 M88.33412912463837 18.711476114068805 C87.8610195681209 18.726647816694435, 87.38791001160342 18.741819519320064, 87.1328125 18.75 M87.1328125 18.75 C87.1328125 18.75, 87.1328125 18.75, 87.1328125 18.75 M87.1328125 18.75 C87.1328125 18.75, 87.1328125 18.75, 87.1328125 18.75 M87.1328125 18.75 C18.967074395931604 18.75, -49.19866370813679 18.75, -87.1328125 18.75 M87.1328125 18.75 C33.36981487483517 18.75, -20.393182750329657 18.75, -87.1328125 18.75 M-87.1328125 18.75 C-87.54064253451361 18.736921684586154, -87.94847256902722 18.723843369172307, -88.33412912463837 18.711476114068805 M-87.1328125 18.75 C-87.5270570544673 18.737357344488707, -87.92130160893461 18.72471468897741, -88.33412912463837 18.711476114068805 M-88.33412912463837 18.711476114068805 C-88.72258716073038 18.67400203451615, -89.1110451968224 18.63652795496349, -89.53050928158449 18.596062759185862 M-88.33412912463837 18.711476114068805 C-88.6523174682898 18.680780867234223, -88.97050581194124 18.65008562039964, -89.53050928158449 18.596062759185862 M-89.53050928158449 18.596062759185862 C-89.97853095192573 18.523630089985033, -90.42655262226698 18.451197420784208, -90.71703678815074 18.404234193582475 M-89.53050928158449 18.596062759185862 C-89.86246584617619 18.542394596184284, -90.19442241076788 18.488726433182705, -90.71703678815074 18.404234193582475 M-90.71703678815074 18.404234193582475 C-91.16523526013124 18.301935817121286, -91.61343373211174 18.1996374406601, -91.88883594830325 18.136778681981802 M-90.71703678815074 18.404234193582475 C-91.02812464420984 18.333230420474962, -91.33921250026893 18.262226647367452, -91.88883594830325 18.136778681981802 M-91.88883594830325 18.136778681981802 C-92.15676264013108 18.057259446223206, -92.42468933195892 17.977740210464614, -93.04109158794287 17.79479525645004 M-91.88883594830325 18.136778681981802 C-92.30733930448996 18.012569082634535, -92.72584266067665 17.888359483287267, -93.04109158794287 17.79479525645004 M-93.04109158794287 17.79479525645004 C-93.29101095506589 17.702822619119466, -93.54093032218891 17.610849981788892, -94.16906884148827 17.37968920023791 M-93.04109158794287 17.79479525645004 C-93.48869092196215 17.630074563968062, -93.93629025598142 17.465353871486087, -94.16906884148827 17.37968920023791 M-94.16906884148827 17.37968920023791 C-94.60280565312242 17.187686780072845, -95.03654246475656 16.995684359907784, -95.26813260845421 16.893166273170362 M-94.16906884148827 17.37968920023791 C-94.59170439131339 17.192600979368475, -95.0143399411385 17.00551275849904, -95.26813260845421 16.893166273170362 M-95.26813260845421 16.893166273170362 C-95.60098315349555 16.719518357023244, -95.9338336985369 16.545870440876126, -96.33376660007383 16.337225702313557 M-95.26813260845421 16.893166273170362 C-95.49964177350094 16.772388090054182, -95.73115093854767 16.651609906938, -96.33376660007383 16.337225702313557 M-96.33376660007383 16.337225702313557 C-96.55541723780541 16.202859783156942, -96.77706787553699 16.068493864000327, -97.36159189769778 15.714151966722019 M-96.33376660007383 16.337225702313557 C-96.67339258431545 16.131342434802463, -97.01301856855709 15.925459167291365, -97.36159189769778 15.714151966722019 M-97.36159189769778 15.714151966722019 C-97.64008089615649 15.519890096991666, -97.91856989461519 15.325628227261312, -98.34738494671029 15.026505410024189 M-97.36159189769778 15.714151966722019 C-97.61659631451728 15.536271924512024, -97.87160073133677 15.358391882302028, -98.34738494671029 15.026505410024189 M-98.34738494671029 15.026505410024189 C-98.72305930858076 14.726915103547118, -99.09873367045122 14.427324797070046, -99.28709491202103 14.277111719421274 M-98.34738494671029 15.026505410024189 C-98.6304205214105 14.80079207109374, -98.9134560961107 14.575078732163291, -99.28709491202103 14.277111719421274 M-99.28709491202103 14.277111719421274 C-99.54213264717824 14.045493196280205, -99.79717038233542 13.813874673139136, -100.17686032381536 13.469050314332401 M-99.28709491202103 14.277111719421274 C-99.53523053970892 14.051761507664077, -99.7833661673968 13.82641129590688, -100.17686032381536 13.469050314332401 M-100.17686032381536 13.469050314332401 C-100.42269067730491 13.21521029130707, -100.66852103079447 12.961370268281737, -101.01302494516217 12.60564169239969 M-100.17686032381536 13.469050314332401 C-100.40311382427107 13.235424999354034, -100.62936732472679 13.001799684375666, -101.01302494516217 12.60564169239969 M-101.01302494516217 12.60564169239969 C-101.30116241569718 12.267179024022738, -101.58929988623218 11.928716355645784, -101.79215279627556 11.690433784851257 M-101.01302494516217 12.60564169239969 C-101.2244573056151 12.35728121096955, -101.43588966606804 12.10892072953941, -101.79215279627556 11.690433784851257 M-101.79215279627556 11.690433784851257 C-101.94913707878607 11.48008914784952, -102.10612136129659 11.269744510847785, -102.51104227369292 10.727187377290688 M-101.79215279627556 11.690433784851257 C-101.98943502782069 11.426093567361805, -102.18671725936584 11.161753349872356, -102.51104227369292 10.727187377290688 M-102.51104227369292 10.727187377290688 C-102.70659069801985 10.426772485420212, -102.90213912234677 10.126357593549738, -103.16673930635024 9.719860655822355 M-102.51104227369292 10.727187377290688 C-102.74698871116017 10.364710288851224, -102.98293514862742 10.002233200411762, -103.16673930635024 9.719860655822355 M-103.16673930635024 9.719860655822355 C-103.34594084485727 9.401670178079641, -103.52514238336431 9.083479700336929, -103.75654949449375 8.672592942015664 M-103.16673930635024 9.719860655822355 C-103.34638643922747 9.400878980154026, -103.52603357210471 9.081897304485699, -103.75654949449375 8.672592942015664 M-103.75654949449375 8.672592942015664 C-103.90927561571135 8.355453883491828, -104.06200173692893 8.038314824967992, -104.27804918154648 7.5896876835448905 M-103.75654949449375 8.672592942015664 C-103.86219159086227 8.4532248685277, -103.96783368723077 8.233856795039737, -104.27804918154648 7.5896876835448905 M-104.27804918154648 7.5896876835448905 C-104.38687796946044 7.320878473335926, -104.4957067573744 7.05206926312696, -104.729095413433 6.475594770399529 M-104.27804918154648 7.5896876835448905 C-104.43930768467595 7.1913760630940375, -104.60056618780541 6.793064442643184, -104.729095413433 6.475594770399529 M-104.729095413433 6.475594770399529 C-104.82950586154331 6.173174498923566, -104.92991630965363 5.870754227447602, -105.10783474443738 5.334892249331858 M-104.729095413433 6.475594770399529 C-104.84554552096029 6.124865600332343, -104.96199562848756 5.774136430265155, -105.10783474443738 5.334892249331858 M-105.10783474443738 5.334892249331858 C-105.20965582727653 4.946604330929737, -105.31147691011569 4.558316412527615, -105.4127108534092 4.172267511680899 M-105.10783474443738 5.334892249331858 C-105.20557303598173 4.962173783629761, -105.30331132752607 4.589455317927664, -105.4127108534092 4.172267511680899 M-105.4127108534092 4.172267511680899 C-105.47077612097026 3.8741146348534516, -105.52884138853133 3.575961758026004, -105.64247093902094 2.9924980318758694 M-105.4127108534092 4.172267511680899 C-105.4961920565692 3.7436091772127953, -105.5796732597292 3.3149508427446914, -105.64247093902094 2.9924980318758694 M-105.64247093902094 2.9924980318758694 C-105.68010229159181 2.7006366924872514, -105.71773364416268 2.408775353098633, -105.79617086779746 1.8004317357690471 M-105.64247093902094 2.9924980318758694 C-105.68365622166212 2.6730731126648517, -105.72484150430328 2.3536481934538345, -105.79617086779746 1.8004317357690471 M-105.79617086779746 1.8004317357690471 C-105.82551668259492 1.3433469827832387, -105.85486249739239 0.8862622297974301, -105.8731790537629 0.6009670794685367 M-105.79617086779746 1.8004317357690471 C-105.81426770646324 1.5185588660441351, -105.83236454512904 1.2366859963192234, -105.8731790537629 0.6009670794685367 M-105.8731790537629 0.6009670794685367 C-105.8731790537629 0.24151658721161334, -105.8731790537629 -0.11793390504530998, -105.8731790537629 -0.6009670794685276 M-105.8731790537629 0.6009670794685367 C-105.8731790537629 0.1584302139004377, -105.8731790537629 -0.28410665166766125, -105.8731790537629 -0.6009670794685276 M-105.8731790537629 -0.6009670794685276 C-105.85440700287775 -0.8933569245313682, -105.83563495199262 -1.1857467695942088, -105.79617086779747 -1.8004317357690214 M-105.8731790537629 -0.6009670794685276 C-105.84612491577643 -1.022357116314972, -105.81907077778996 -1.4437471531614166, -105.79617086779747 -1.8004317357690214 M-105.79617086779747 -1.8004317357690214 C-105.76480990313098 -2.043661184799375, -105.73344893846449 -2.2868906338297292, -105.64247093902094 -2.9924980318758605 M-105.79617086779747 -1.8004317357690214 C-105.75184195651246 -2.144238017961905, -105.70751304522746 -2.4880443001547885, -105.64247093902094 -2.9924980318758605 M-105.64247093902094 -2.9924980318758605 C-105.58805779461137 -3.2718980281968157, -105.53364465020182 -3.5512980245177705, -105.4127108534092 -4.17226751168089 M-105.64247093902094 -2.9924980318758605 C-105.5764722973647 -3.331387107962789, -105.51047365570847 -3.670276184049717, -105.4127108534092 -4.17226751168089 M-105.4127108534092 -4.17226751168089 C-105.29815723204935 -4.609110117779551, -105.18360361068949 -5.0459527238782105, -105.10783474443738 -5.334892249331849 M-105.4127108534092 -4.17226751168089 C-105.29589383244031 -4.617741441452366, -105.17907681147143 -5.0632153712238415, -105.10783474443738 -5.334892249331849 M-105.10783474443738 -5.334892249331849 C-105.02460017075134 -5.585581523645865, -104.9413655970653 -5.836270797959879, -104.72909541343301 -6.475594770399505 M-105.10783474443738 -5.334892249331849 C-105.01475399824733 -5.6152366264533855, -104.92167325205729 -5.895581003574922, -104.72909541343301 -6.475594770399505 M-104.72909541343301 -6.475594770399505 C-104.62676990794925 -6.728340747273476, -104.52444440246548 -6.981086724147448, -104.27804918154649 -7.589687683544882 M-104.72909541343301 -6.475594770399505 C-104.61686485107532 -6.75280642925331, -104.50463428871764 -7.030018088107114, -104.27804918154649 -7.589687683544882 M-104.27804918154649 -7.589687683544882 C-104.1175755513061 -7.9229146103246775, -103.95710192106571 -8.256141537104472, -103.75654949449375 -8.672592942015655 M-104.27804918154649 -7.589687683544882 C-104.1040197544671 -7.951063512508467, -103.9299903273877 -8.312439341472054, -103.75654949449375 -8.672592942015655 M-103.75654949449375 -8.672592942015655 C-103.57808498183162 -8.989474755738781, -103.39962046916949 -9.306356569461906, -103.16673930635024 -9.719860655822348 M-103.75654949449375 -8.672592942015655 C-103.61978981285772 -8.915423605179878, -103.48303013122168 -9.158254268344102, -103.16673930635024 -9.719860655822348 M-103.16673930635024 -9.719860655822348 C-102.93078466821181 -10.08235034269491, -102.6948300300734 -10.444840029567473, -102.51104227369292 -10.727187377290681 M-103.16673930635024 -9.719860655822348 C-102.91279813988302 -10.109982480267076, -102.65885697341581 -10.500104304711806, -102.51104227369292 -10.727187377290681 M-102.51104227369292 -10.727187377290681 C-102.31900965688507 -10.98449358928191, -102.12697704007722 -11.241799801273142, -101.79215279627556 -11.690433784851251 M-102.51104227369292 -10.727187377290681 C-102.28939546480494 -11.02417390876088, -102.06774865591697 -11.321160440231079, -101.79215279627556 -11.690433784851251 M-101.79215279627556 -11.690433784851251 C-101.6353847768152 -11.87458242086239, -101.47861675735486 -12.058731056873532, -101.01302494516217 -12.605641692399683 M-101.79215279627556 -11.690433784851251 C-101.52811546564436 -12.000587057560391, -101.26407813501315 -12.310740330269532, -101.01302494516217 -12.605641692399683 M-101.01302494516217 -12.605641692399683 C-100.76098574731245 -12.865892856982502, -100.50894654946272 -13.12614402156532, -100.17686032381538 -13.469050314332382 M-101.01302494516217 -12.605641692399683 C-100.82135296851459 -12.80355874485025, -100.62968099186702 -13.001475797300817, -100.17686032381538 -13.469050314332382 M-100.17686032381538 -13.469050314332382 C-99.8741301233158 -13.743981872623916, -99.57139992281623 -14.01891343091545, -99.28709491202105 -14.277111719421258 M-100.17686032381538 -13.469050314332382 C-99.87617373507628 -13.742125918494056, -99.57548714633718 -14.01520152265573, -99.28709491202105 -14.277111719421258 M-99.28709491202105 -14.277111719421258 C-98.98437653692808 -14.518521567883619, -98.68165816183512 -14.759931416345982, -98.3473849467103 -15.026505410024182 M-99.28709491202105 -14.277111719421258 C-98.98480231196322 -14.51818202362344, -98.68250971190541 -14.759252327825624, -98.3473849467103 -15.026505410024182 M-98.3473849467103 -15.026505410024182 C-98.11504935799034 -15.188572659069688, -97.8827137692704 -15.350639908115195, -97.36159189769779 -15.714151966722005 M-98.3473849467103 -15.026505410024182 C-98.07997949906103 -15.213035874509059, -97.81257405141174 -15.399566338993933, -97.36159189769779 -15.714151966722005 M-97.36159189769779 -15.714151966722005 C-97.01293427966664 -15.925510263712082, -96.66427666163548 -16.136868560702162, -96.33376660007383 -16.33722570231355 M-97.36159189769779 -15.714151966722005 C-97.09449267735012 -15.876069083746016, -96.82739345700243 -16.03798620077003, -96.33376660007383 -16.33722570231355 M-96.33376660007383 -16.33722570231355 C-95.94161265442143 -16.54181216457382, -95.54945870876902 -16.746398626834093, -95.26813260845422 -16.89316627317036 M-96.33376660007383 -16.33722570231355 C-96.01017664986897 -16.50604237206617, -95.68658669966412 -16.67485904181879, -95.26813260845422 -16.89316627317036 M-95.26813260845422 -16.89316627317036 C-95.0187098786471 -17.003578316793572, -94.76928714883998 -17.113990360416786, -94.16906884148827 -17.379689200237905 M-95.26813260845422 -16.89316627317036 C-94.86410367361438 -17.072017897531435, -94.46007473877454 -17.25086952189251, -94.16906884148827 -17.379689200237905 M-94.16906884148827 -17.379689200237905 C-93.7376706436972 -17.538447724826245, -93.30627244590613 -17.697206249414585, -93.0410915879429 -17.794795256450033 M-94.16906884148827 -17.379689200237905 C-93.89516733240515 -17.480487487498287, -93.62126582332203 -17.581285774758673, -93.0410915879429 -17.794795256450033 M-93.0410915879429 -17.794795256450033 C-92.72455672921414 -17.88874114099535, -92.40802187048538 -17.982687025540667, -91.88883594830328 -18.136778681981795 M-93.0410915879429 -17.794795256450033 C-92.74539510192265 -17.882556421358313, -92.4496986159024 -17.970317586266596, -91.88883594830328 -18.136778681981795 M-91.88883594830328 -18.136778681981795 C-91.58740923090343 -18.205577363235154, -91.2859825135036 -18.274376044488513, -90.71703678815074 -18.40423419358247 M-91.88883594830328 -18.136778681981795 C-91.53509870676994 -18.21751689901055, -91.1813614652366 -18.298255116039307, -90.71703678815074 -18.40423419358247 M-90.71703678815074 -18.40423419358247 C-90.29763413415485 -18.47203996216437, -89.87823148015895 -18.53984573074627, -89.5305092815845 -18.596062759185862 M-90.71703678815074 -18.40423419358247 C-90.37022823650693 -18.460303510671757, -90.02341968486311 -18.516372827761042, -89.5305092815845 -18.596062759185862 M-89.5305092815845 -18.596062759185862 C-89.20497793027597 -18.627466377137868, -88.87944657896743 -18.658869995089873, -88.33412912463837 -18.711476114068805 M-89.5305092815845 -18.596062759185862 C-89.1143938197655 -18.63620491733548, -88.69827835794649 -18.676347075485097, -88.33412912463837 -18.711476114068805 M-88.33412912463837 -18.711476114068805 C-87.97340555240322 -18.723043816924548, -87.61268198016809 -18.73461151978029, -87.1328125 -18.75 M-88.33412912463837 -18.711476114068805 C-87.975986607887 -18.722961047498902, -87.61784409113562 -18.734445980929, -87.1328125 -18.75 M-87.1328125 -18.75 C-87.1328125 -18.75, -87.1328125 -18.75, -87.1328125 -18.75 M-87.1328125 -18.75 C-87.1328125 -18.75, -87.1328125 -18.75, -87.1328125 -18.75" stroke="#86868b" stroke-width="1.3" fill="none" stroke-dasharray="0 0" style="fill:#f5f5f7 !important;stroke:#86868b !important"/></g><g class="label" style="color:#1d1d1f !important" transform="translate(-93.6953125, -11.25)"><rect/><foreignObject width="187.390625" height="22.5"><div style="color: rgb(29, 29, 31) !important; display: table-cell; white-space: nowrap; line-height: 1.5; max-width: 200px; text-align: center;" xmlns="http://www.w3.org/1999/xhtml"><span style="color:#1d1d1f !important" class="nodeLabel"><p>Explicit presentation request</p></span></div></foreignObject></g></g><g class="node default application" id="my-svg-flowchart-Supervisor-1" data-look="classic" transform="translate(127.3203125, 133)"><rect class="basic label-container" style="fill:#e8f1fb !important;stroke:#5e8fc4 !important" x="-107.4921875" y="-37.5" width="214.984375" height="75"/><g class="label" style="color:#102a43 !important" transform="translate(-77.4921875, -22.5)"><rect/><foreignObject width="154.984375" height="45"><div style="color: rgb(16, 42, 67) !important; display: table-cell; white-space: nowrap; line-height: 1.5; max-width: 200px; text-align: center;" xmlns="http://www.w3.org/1999/xhtml"><span style="color:#102a43 !important" class="nodeLabel"><p>Delegated by the turn's<br />action selection</p></span></div></foreignObject></g></g><g class="node default data" id="my-svg-flowchart-Job-3" data-look="classic" transform="translate(127.3203125, 259.1546936035156)"><path d="M0,13.269794721407624 a70.703125,13.269794721407624 0,0,0 141.40625,0 a70.703125,13.269794721407624 0,0,0 -141.40625,0 l0,50.76979472140762 a70.703125,13.269794721407624 0,0,0 141.40625,0 l0,-50.76979472140762" class="basic label-container outer-path" style="fill:#eef7ee !important;stroke:#5f9562 !important" transform="translate(-70.703125, -38.65469208211144)"/><g class="label" style="color:#183b1b !important" transform="translate(-63.203125, -1.25)"><rect/><foreignObject width="126.40625" height="22.5"><div style="color: rgb(24, 59, 27) !important; display: table-cell; white-space: nowrap; line-height: 1.5; max-width: 200px; text-align: center;" xmlns="http://www.w3.org/1999/xhtml"><span style="color:#183b1b !important" class="nodeLabel"><p>Durable owned job</p></span></div></foreignObject></g></g><g class="node default application" id="my-svg-flowchart-Worker-5" data-look="classic" transform="translate(127.3203125, 396.55938720703125)"><rect class="basic label-container" style="fill:#e8f1fb !important;stroke:#5e8fc4 !important" x="-119.3203125" y="-26.25" width="238.640625" height="52.5"/><g class="label" style="color:#102a43 !important" transform="translate(-89.3203125, -11.25)"><rect/><foreignObject width="178.640625" height="22.5"><div style="color: rgb(16, 42, 67) !important; display: table-cell; white-space: nowrap; line-height: 1.5; max-width: 200px; text-align: center;" xmlns="http://www.w3.org/1999/xhtml"><span style="color:#102a43 !important" class="nodeLabel"><p>Leased background worker</p></span></div></foreignObject></g></g><g class="node default application" id="my-svg-flowchart-Research-7" data-look="classic" transform="translate(276.98046875, 566.5593872070312)"><rect class="basic label-container" style="fill:#e8f1fb !important;stroke:#5e8fc4 !important" x="-101.8359375" y="-37.5" width="203.671875" height="75"/><g class="label" style="color:#102a43 !important" transform="translate(-71.8359375, -22.5)"><rect/><foreignObject width="143.671875" height="45"><div style="color: rgb(16, 42, 67) !important; display: table-cell; white-space: nowrap; line-height: 1.5; max-width: 200px; text-align: center;" xmlns="http://www.w3.org/1999/xhtml"><span style="color:#102a43 !important" class="nodeLabel"><p>One grounded search<br />subject, not the brief</p></span></div></foreignObject></g></g><g class="node default data" id="my-svg-flowchart-Outline-9" data-look="classic" transform="translate(286.98046875, 725.3093872070312)"><rect class="basic label-container" style="fill:#eef7ee !important;stroke:#5f9562 !important" x="-108.609375" y="-37.5" width="217.21875" height="75"/><g class="label" style="color:#183b1b !important" transform="translate(-78.609375, -22.5)"><rect/><foreignObject width="157.21875" height="45"><div style="color: rgb(24, 59, 27) !important; display: table-cell; white-space: nowrap; line-height: 1.5; max-width: 200px; text-align: center;" xmlns="http://www.w3.org/1999/xhtml"><span style="color:#183b1b !important" class="nodeLabel"><p>Model plans the outline<br />and each slide's shape</p></span></div></foreignObject></g></g><g class="node default data" id="my-svg-flowchart-Slide-11" data-look="classic" transform="translate(417.8984375, 850.3093872070312)"><rect class="basic label-container" style="fill:#eef7ee !important;stroke:#5f9562 !important" x="-130" y="-37.5" width="260" height="75"/><g class="label" style="color:#183b1b !important" transform="translate(-100, -22.5)"><rect/><foreignObject width="200" height="45"><div style="color: rgb(24, 59, 27) !important; display: table; white-space: break-spaces; line-height: 1.5; max-width: 200px; text-align: center; width: 200px;" xmlns="http://www.w3.org/1999/xhtml"><span style="color:#183b1b !important" class="nodeLabel"><p>Model writes one slide at a time</p></span></div></foreignObject></g></g><g class="node default application" id="my-svg-flowchart-Compile-13" data-look="classic" transform="translate(417.8984375, 986.5593872070312)"><rect class="basic label-container" style="fill:#e8f1fb !important;stroke:#5e8fc4 !important" x="-130" y="-48.75" width="260" height="97.5"/><g class="label" style="color:#102a43 !important" transform="translate(-100, -33.75)"><rect/><foreignObject width="200" height="67.5"><div style="color: rgb(16, 42, 67) !important; display: table; white-space: break-spaces; line-height: 1.5; max-width: 200px; text-align: center; width: 200px;" xmlns="http://www.w3.org/1999/xhtml"><span style="color:#102a43 !important" class="nodeLabel"><p>Deterministic compiler<br />geometry - seven layouts - stable ids</p></span></div></foreignObject></g></g><g class="node default application" id="my-svg-flowchart-Visual-15" data-look="classic" transform="translate(417.8984375, 1168.0281372070312)"><polygon points="82.71875,0 165.4375,-82.71875 82.71875,-165.4375 0,-82.71875" class="label-container" transform="translate(-82.21875, 82.71875)" style="fill:#e8f1fb !important;stroke:#5e8fc4 !important"/><g class="label" style="color:#102a43 !important" transform="translate(-56.46875, -11.25)"><rect/><foreignObject width="112.9375" height="22.5"><div style="color: rgb(16, 42, 67) !important; display: table-cell; white-space: nowrap; line-height: 1.5; max-width: 200px; text-align: center;" xmlns="http://www.w3.org/1999/xhtml"><span style="color:#102a43 !important" class="nodeLabel"><p>Worth an image?</p></span></div></foreignObject></g></g><g class="node default external" id="my-svg-flowchart-Image-17" data-look="classic" transform="translate(495.9453125, 1349.4968872070312)"><rect class="basic label-container" style="fill:#f1edff !important;stroke:#8872c6 !important" x="-112.453125" y="-26.25" width="224.90625" height="52.5"/><g class="label" style="color:#2e2450 !important" transform="translate(-82.453125, -11.25)"><rect/><foreignObject width="164.90625" height="22.5"><div style="color: rgb(46, 36, 80) !important; display: table-cell; white-space: nowrap; line-height: 1.5; max-width: 200px; text-align: center;" xmlns="http://www.w3.org/1999/xhtml"><span style="color:#2e2450 !important" class="nodeLabel"><p>FLUX.2 Klein via ComfyUI</p></span></div></foreignObject></g></g><g class="node default application" id="my-svg-flowchart-Render-19" data-look="classic" transform="translate(417.8984375, 1463.2468872070312)"><rect class="basic label-container" style="fill:#e8f1fb !important;stroke:#5e8fc4 !important" x="-130" y="-37.5" width="260" height="75"/><g class="label" style="color:#102a43 !important" transform="translate(-100, -22.5)"><rect/><foreignObject width="200" height="45"><div style="color: rgb(16, 42, 67) !important; display: table; white-space: break-spaces; line-height: 1.5; max-width: 200px; text-align: center; width: 200px;" xmlns="http://www.w3.org/1999/xhtml"><span style="color:#102a43 !important" class="nodeLabel"><p>PptxGenJS - OOXML - LibreOffice</p></span></div></foreignObject></g></g><g class="node default data" id="my-svg-flowchart-Revision-23" data-look="classic" transform="translate(417.8984375, 1590.3699378967285)"><path d="M0,13.915368841101811 a78.4609375,13.915368841101811 0,0,0 156.921875,0 a78.4609375,13.915368841101811 0,0,0 -156.921875,0 l0,51.41536884110181 a78.4609375,13.915368841101811 0,0,0 156.921875,0 l0,-51.41536884110181" class="basic label-container outer-path" style="fill:#eef7ee !important;stroke:#5f9562 !important" transform="translate(-78.4609375, -39.623053261652714)"/><g class="label" style="color:#183b1b !important" transform="translate(-70.9609375, -1.25)"><rect/><foreignObject width="141.921875" height="22.5"><div style="color: rgb(24, 59, 27) !important; display: table-cell; white-space: nowrap; line-height: 1.5; max-width: 200px; text-align: center;" xmlns="http://www.w3.org/1999/xhtml"><span style="color:#183b1b !important" class="nodeLabel"><p>Append-only revision</p></span></div></foreignObject></g></g><g class="node default warning" id="my-svg-flowchart-Decides-24" data-look="classic" transform="translate(558.81640625, 566.5593872070312)"><rect class="basic label-container" style="fill:#fff3cd !important;stroke:#b78b20 !important;stroke-dasharray:5 4 !important" x="-130" y="-71.25" width="260" height="142.5"/><g class="label" style="color:#4d3900 !important" transform="translate(-100, -56.25)"><rect/><foreignObject width="200" height="112.5"><div style="color: rgb(77, 57, 0) !important; display: table; white-space: break-spaces; line-height: 1.5; max-width: 200px; text-align: center; width: 200px;" xmlns="http://www.w3.org/1999/xhtml"><span style="color:#4d3900 !important" class="nodeLabel"><p>The model decides content and shape.<br />Geometry, storage and promotion<br />are application decisions</p></span></div></foreignObject></g></g><g class="node default warning" id="my-svg-flowchart-Boundary-29" data-look="classic" transform="translate(426.640625, 396.55938720703125)"><rect class="basic label-container" style="fill:#fff3cd !important;stroke:#b78b20 !important;stroke-dasharray:5 4 !important" x="-130" y="-48.75" width="260" height="97.5"/><g class="label" style="color:#4d3900 !important" transform="translate(-100, -33.75)"><rect/><foreignObject width="200" height="67.5"><div style="color: rgb(77, 57, 0) !important; display: table; white-space: break-spaces; line-height: 1.5; max-width: 200px; text-align: center; width: 200px;" xmlns="http://www.w3.org/1999/xhtml"><span style="color:#4d3900 !important" class="nodeLabel"><p>A figure the sources do not support<br />must become a plainer layout</p></span></div></foreignObject></g></g></g></g></g><defs><filter id="my-svg-drop-shadow" height="130%" width="130%"><feDropShadow dx="4" dy="4" stdDeviation="0" flood-opacity="0.06" flood-color="#000000"/></filter></defs><defs><filter id="my-svg-drop-shadow-small" height="150%" width="150%"><feDropShadow dx="2" dy="2" stdDeviation="0" flood-opacity="0.06" flood-color="#000000"/></filter></defs><linearGradient id="my-svg-gradient" gradientUnits="objectBoundingBox" x1="0%" y1="0%" x2="100%" y2="0%"><stop offset="0%" stop-color="hsl(240, 0%, 86.4705882353%)" stop-opacity="1"/><stop offset="100%" stop-color="hsl(120, 0%, 86.4705882353%)" stop-opacity="1"/></linearGradient><text text-anchor="middle" x="348.408203125" y="-25" class="flowchartTitleText">Deck - what the agent decides, and what it does not</text></svg>