<!-- Render-Inputs-SHA256: 35d32612f7f6ce9223a91c26361a9aaa06d133e3d32a4b83a109810c2646b964 -->
<svg id="my-svg" width="100%" xmlns="http://www.w3.org/2000/svg" xmlns:xlink="http://www.w3.org/1999/xlink" class="flowchart" style="max-width: 691.293px; background-color: transparent;" viewBox="0 -52 691.29296875 1448" role="graphics-document document" aria-roledescription="flowchart-v2"><style>#my-svg{font-family:Inter,-apple-system,BlinkMacSystemFont,Segoe UI,sans-serif;font-size:15px;fill:#1d1d1f;}@keyframes edge-animation-frame{from{stroke-dashoffset:0;}}@keyframes dash{to{stroke-dashoffset:0;}}#my-svg .edge-animation-slow{stroke-dasharray:9,5!important;stroke-dashoffset:900;animation:dash 50s linear infinite;stroke-linecap:round;}#my-svg .edge-animation-fast{stroke-dasharray:9,5!important;stroke-dashoffset:900;animation:dash 20s linear infinite;stroke-linecap:round;}#my-svg .error-icon{fill:hsl(60, 11.1111111111%, 100%);}#my-svg .error-text{fill:rgb(0, 0, 0);stroke:rgb(0, 0, 0);}#my-svg .edge-thickness-normal{stroke-width:1px;}#my-svg .edge-thickness-thick{stroke-width:3.5px;}#my-svg .edge-pattern-solid{stroke-dasharray:0;}#my-svg .edge-thickness-invisible{stroke-width:0;fill:none;}#my-svg .edge-pattern-dashed{stroke-dasharray:3;}#my-svg .edge-pattern-dotted{stroke-dasharray:2;}#my-svg .marker{fill:#6e6e73;stroke:#6e6e73;}#my-svg .marker.cross{stroke:#6e6e73;}#my-svg svg{font-family:Inter,-apple-system,BlinkMacSystemFont,Segoe UI,sans-serif;font-size:15px;}#my-svg p{margin:0;}#my-svg .label{font-family:Inter,-apple-system,BlinkMacSystemFont,Segoe UI,sans-serif;color:#1d1d1f;}#my-svg .cluster-label text{fill:rgb(0, 0, 0);}#my-svg .cluster-label span{color:rgb(0, 0, 0);}#my-svg .cluster-label span p{background-color:transparent;}#my-svg .label text,#my-svg span{fill:#1d1d1f;color:#1d1d1f;}#my-svg .node rect,#my-svg .node circle,#my-svg .node ellipse,#my-svg .node polygon,#my-svg .node path{fill:#f5f5f7;stroke:hsl(240, 0%, 86.4705882353%);stroke-width:1px;}#my-svg .rough-node .label text,#my-svg .node .label text,#my-svg .image-shape .label,#my-svg .icon-shape .label{text-anchor:middle;}#my-svg .node .katex path{fill:#000;stroke:#000;stroke-width:1px;}#my-svg .rough-node .label,#my-svg .node .label,#my-svg .image-shape .label,#my-svg .icon-shape .label{text-align:center;}#my-svg .node.clickable{cursor:pointer;}#my-svg .root .anchor path{fill:#6e6e73!important;stroke-width:0;stroke:#6e6e73;}#my-svg .arrowheadPath{fill:#000000;}#my-svg .edgePath .path{stroke:#6e6e73;stroke-width:1px;}#my-svg .flowchart-link{stroke:#6e6e73;fill:none;}#my-svg .edgeLabel{background-color:hsl(120, 11.1111111111%, 96.4705882353%);text-align:center;}#my-svg .edgeLabel p{background-color:hsl(120, 11.1111111111%, 96.4705882353%);}#my-svg .edgeLabel rect{opacity:0.5;background-color:hsl(120, 11.1111111111%, 96.4705882353%);fill:hsl(120, 11.1111111111%, 96.4705882353%);}#my-svg .labelBkg{background-color:rgba(245, 247, 245, 0.5);}#my-svg .cluster rect{fill:hsl(60, 11.1111111111%, 100%);stroke:hsl(60, 0%, 90%);stroke-width:1px;}#my-svg .cluster text{fill:rgb(0, 0, 0);}#my-svg .cluster span{color:rgb(0, 0, 0);}#my-svg div.mermaidTooltip{position:absolute;text-align:center;max-width:200px;padding:2px;font-family:Inter,-apple-system,BlinkMacSystemFont,Segoe UI,sans-serif;font-size:12px;background:hsl(60, 11.1111111111%, 100%);border:1px solid hsl(60, 0%, 90%);border-radius:2px;pointer-events:none;z-index:100;}#my-svg .flowchartTitleText{text-anchor:middle;font-size:18px;fill:#1d1d1f;}#my-svg rect.text{fill:none;stroke-width:0;}#my-svg .icon-shape,#my-svg .image-shape{background-color:hsl(120, 11.1111111111%, 96.4705882353%);text-align:center;}#my-svg .icon-shape p,#my-svg .image-shape p{background-color:hsl(120, 11.1111111111%, 96.4705882353%);padding:2px;}#my-svg .icon-shape .label rect,#my-svg .image-shape .label rect{opacity:0.5;background-color:hsl(120, 11.1111111111%, 96.4705882353%);fill:hsl(120, 11.1111111111%, 96.4705882353%);}#my-svg .label-icon{display:inline-block;height:1em;overflow:visible;vertical-align:-0.125em;}#my-svg .node .label-icon path{fill:currentColor;stroke:revert;stroke-width:revert;}#my-svg .node .neo-node{stroke:hsl(240, 0%, 86.4705882353%);}#my-svg [data-look="neo"].node rect,#my-svg [data-look="neo"].cluster rect,#my-svg [data-look="neo"].node polygon{stroke:url(#my-svg-gradient);filter:drop-shadow( 1px 2px 2px rgba(185,185,185,1));}#my-svg [data-look="neo"].swimlane.cluster rect{filter:none;}#my-svg [data-look="neo"].node path{stroke:url(#my-svg-gradient);stroke-width:1px;}#my-svg [data-look="neo"].node .outer-path{filter:drop-shadow( 1px 2px 2px rgba(185,185,185,1));}#my-svg [data-look="neo"].node .neo-line path{stroke:hsl(240, 0%, 86.4705882353%);filter:none;}#my-svg [data-look="neo"].node circle{stroke:url(#my-svg-gradient);filter:drop-shadow( 1px 2px 2px rgba(185,185,185,1));}#my-svg [data-look="neo"].node circle .state-start{fill:#000000;}#my-svg [data-look="neo"].icon-shape .icon{fill:url(#my-svg-gradient);filter:drop-shadow( 1px 2px 2px rgba(185,185,185,1));}#my-svg [data-look="neo"].icon-shape .icon-neo path{stroke:url(#my-svg-gradient);filter:drop-shadow( 1px 2px 2px rgba(185,185,185,1));}#my-svg :root{--mermaid-font-family:Inter,-apple-system,BlinkMacSystemFont,Segoe UI,sans-serif;}#my-svg .person&gt;*{fill:rgb(232, 241, 251)!important;stroke:rgb(94, 143, 196)!important;color:rgb(16, 42, 67)!important;}#my-svg .person span{fill:rgb(232, 241, 251)!important;stroke:rgb(94, 143, 196)!important;color:rgb(16, 42, 67)!important;}#my-svg .person tspan{fill:rgb(16, 42, 67)!important;}#my-svg .step&gt;*{fill:rgb(245, 245, 247)!important;stroke:rgb(134, 134, 139)!important;color:rgb(29, 29, 31)!important;}#my-svg .step span{fill:rgb(245, 245, 247)!important;stroke:rgb(134, 134, 139)!important;color:rgb(29, 29, 31)!important;}#my-svg .step tspan{fill:rgb(29, 29, 31)!important;}#my-svg .store&gt;*{fill:rgb(238, 247, 238)!important;stroke:rgb(95, 149, 98)!important;color:rgb(24, 59, 27)!important;}#my-svg .store span{fill:rgb(238, 247, 238)!important;stroke:rgb(95, 149, 98)!important;color:rgb(24, 59, 27)!important;}#my-svg .store tspan{fill:rgb(24, 59, 27)!important;}#my-svg .note&gt;*{fill:rgb(241, 237, 255)!important;stroke:rgb(136, 114, 198)!important;color:rgb(46, 36, 80)!important;}#my-svg .note span{fill:rgb(241, 237, 255)!important;stroke:rgb(136, 114, 198)!important;color:rgb(46, 36, 80)!important;}#my-svg .note tspan{fill:rgb(46, 36, 80)!important;}</style><g><marker id="my-svg_flowchart-v2-pointEnd" class="marker flowchart-v2" viewBox="0 0 10 10" refX="5" refY="5" markerUnits="userSpaceOnUse" markerWidth="8" markerHeight="8" orient="auto"><path d="M 0 0 L 10 5 L 0 10 z" class="arrowMarkerPath" style="stroke-width: 1; stroke-dasharray: 1, 0;"/></marker><marker id="my-svg_flowchart-v2-pointStart" class="marker flowchart-v2" viewBox="0 0 10 10" refX="4.5" refY="5" markerUnits="userSpaceOnUse" markerWidth="8" markerHeight="8" orient="auto"><path d="M 0 5 L 10 10 L 10 0 z" class="arrowMarkerPath" style="stroke-width: 1; stroke-dasharray: 1, 0;"/></marker><marker id="my-svg_flowchart-v2-pointEnd-margin" class="marker flowchart-v2" viewBox="0 0 11.5 14" refX="11.5" refY="7" markerUnits="userSpaceOnUse" markerWidth="10.5" markerHeight="14" orient="auto"><path d="M 0 0 L 11.5 7 L 0 14 z" class="arrowMarkerPath" style="stroke-width: 0; stroke-dasharray: 1, 0;"/></marker><marker id="my-svg_flowchart-v2-pointStart-margin" class="marker flowchart-v2" viewBox="0 0 11.5 14" refX="1" refY="7" markerUnits="userSpaceOnUse" markerWidth="11.5" markerHeight="14" orient="auto"><polygon points="0,7 11.5,14 11.5,0" class="arrowMarkerPath" style="stroke-width: 0; stroke-dasharray: 1, 0;"/></marker><marker id="my-svg_flowchart-v2-circleEnd" class="marker flowchart-v2" viewBox="0 0 10 10" refX="11" refY="5" markerUnits="userSpaceOnUse" markerWidth="11" markerHeight="11" orient="auto"><circle cx="5" cy="5" r="5" class="arrowMarkerPath" style="stroke-width: 1; stroke-dasharray: 1, 0;"/></marker><marker id="my-svg_flowchart-v2-circleStart" class="marker flowchart-v2" viewBox="0 0 10 10" refX="-1" refY="5" markerUnits="userSpaceOnUse" markerWidth="11" markerHeight="11" orient="auto"><circle cx="5" cy="5" r="5" class="arrowMarkerPath" style="stroke-width: 1; stroke-dasharray: 1, 0;"/></marker><marker id="my-svg_flowchart-v2-circleEnd-margin" class="marker flowchart-v2" viewBox="0 0 10 10" refY="5" refX="12.25" markerUnits="userSpaceOnUse" markerWidth="14" markerHeight="14" orient="auto"><circle cx="5" cy="5" r="5" class="arrowMarkerPath" style="stroke-width: 0; stroke-dasharray: 1, 0;"/></marker><marker id="my-svg_flowchart-v2-circleStart-margin" class="marker flowchart-v2" viewBox="0 0 10 10" refX="-2" refY="5" markerUnits="userSpaceOnUse" markerWidth="14" markerHeight="14" orient="auto"><circle cx="5" cy="5" r="5" class="arrowMarkerPath" style="stroke-width: 0; stroke-dasharray: 1, 0;"/></marker><marker id="my-svg_flowchart-v2-crossEnd" class="marker cross flowchart-v2" viewBox="0 0 11 11" refX="12" refY="5.2" markerUnits="userSpaceOnUse" markerWidth="11" markerHeight="11" orient="auto"><path d="M 1,1 l 9,9 M 10,1 l -9,9" class="arrowMarkerPath" style="stroke-width: 2; stroke-dasharray: 1, 0;"/></marker><marker id="my-svg_flowchart-v2-crossStart" class="marker cross flowchart-v2" viewBox="0 0 11 11" refX="-1" refY="5.2" markerUnits="userSpaceOnUse" markerWidth="11" markerHeight="11" orient="auto"><path d="M 1,1 l 9,9 M 10,1 l -9,9" class="arrowMarkerPath" style="stroke-width: 2; stroke-dasharray: 1, 0;"/></marker><marker id="my-svg_flowchart-v2-crossEnd-margin" class="marker cross flowchart-v2" viewBox="0 0 15 15" refX="17.7" refY="7.5" markerUnits="userSpaceOnUse" markerWidth="12" markerHeight="12" orient="auto"><path d="M 1,1 L 14,14 M 1,14 L 14,1" class="arrowMarkerPath" style="stroke-width: 2.5;"/></marker><marker id="my-svg_flowchart-v2-crossStart-margin" class="marker cross flowchart-v2" viewBox="0 0 15 15" refX="-3.5" refY="7.5" markerUnits="userSpaceOnUse" markerWidth="12" markerHeight="12" orient="auto"><path d="M 1,1 L 14,14 M 1,14 L 14,1" class="arrowMarkerPath" style="stroke-width: 2.5; stroke-dasharray: 1, 0;"/></marker><g class="root"><g class="clusters"><g class="cluster" id="my-svg-Forms" data-look="classic"><rect style="" x="8" y="958" width="637.79296875" height="237.5"/><g class="cluster-label" transform="translate(278.099609375, 958)"><foreignObject width="97.59375" height="22.5"><div xmlns="http://www.w3.org/1999/xhtml" style="display: table-cell; white-space: nowrap; line-height: 1.5;"><span class="nodeLabel"><p>Memory forms</p></span></div></foreignObject></g></g></g><g class="edgePaths"><path d="M392.317,43.229L371.955,47.774C351.594,52.319,310.871,61.41,290.51,69.455C270.148,77.5,270.148,84.5,270.148,88L270.148,91.5" id="my-svg-L_User_Route_0" class="edge-thickness-normal edge-pattern-solid edge-thickness-normal edge-pattern-solid flowchart-link" style=";" data-edge="true" data-et="edge" data-id="L_User_Route_0" data-points="W3sieCI6MzkyLjMxNjg1Nzg4MjY2NTI2LCJ5Ijo0My4yMjg2MTUyMjIwMjE0NH0seyJ4IjoyNzAuMTQ4NDM3NSwieSI6NzAuNX0seyJ4IjoyNzAuMTQ4NDM3NSwieSI6OTUuNX1d" data-look="classic" marker-end="url(#my-svg_flowchart-v2-pointEnd)"/><path d="M270.148,170.5L270.148,174.667C270.148,178.833,270.148,187.167,270.148,194.833C270.148,202.5,270.148,209.5,270.148,213L270.148,216.5" id="my-svg-L_Route_Understand_0" class="edge-thickness-normal edge-pattern-solid edge-thickness-normal edge-pattern-solid flowchart-link" style=";" data-edge="true" data-et="edge" data-id="L_Route_Understand_0" data-points="W3sieCI6MjcwLjE0ODQzNzUsInkiOjE3MC41fSx7IngiOjI3MC4xNDg0Mzc1LCJ5IjoxOTUuNX0seyJ4IjoyNzAuMTQ4NDM3NSwieSI6MjIwLjV9XQ==" data-look="classic" marker-end="url(#my-svg_flowchart-v2-pointEnd)"/><path d="M270.148,295.5L270.148,299.667C270.148,303.833,270.148,312.167,270.148,319.833C270.148,327.5,270.148,334.5,270.148,338L270.148,341.5" id="my-svg-L_Understand_Retrieve_0" class="edge-thickness-normal edge-pattern-solid edge-thickness-normal edge-pattern-solid flowchart-link" style=";" data-edge="true" data-et="edge" data-id="L_Understand_Retrieve_0" data-points="W3sieCI6MjcwLjE0ODQzNzUsInkiOjI5NS41fSx7IngiOjI3MC4xNDg0Mzc1LCJ5IjozMjAuNX0seyJ4IjoyNzAuMTQ4NDM3NSwieSI6MzQ1LjV9XQ==" data-look="classic" marker-end="url(#my-svg_flowchart-v2-pointEnd)"/><path d="M370.781,411.929L390.244,417.525C409.707,423.12,448.633,434.31,468.096,443.405C487.559,452.5,487.559,459.5,487.559,463L487.559,466.5" id="my-svg-L_Retrieve_Curate_0" class="edge-thickness-normal edge-pattern-solid edge-thickness-normal edge-pattern-solid flowchart-link" style=";" data-edge="true" data-et="edge" data-id="L_Retrieve_Curate_0" data-points="W3sieCI6MzcwLjc4MTI1LCJ5Ijo0MTEuOTI5NDI0ODcwMTg3MDZ9LHsieCI6NDg3LjU1ODU5Mzc1LCJ5Ijo0NDUuNX0seyJ4Ijo0ODcuNTU4NTkzNzUsInkiOjQ3MC41fV0=" data-look="classic" marker-end="url(#my-svg_flowchart-v2-pointEnd)"/><path d="M487.559,545.5L487.559,549.667C487.559,553.833,487.559,562.167,490.829,570.002C494.099,577.838,500.639,585.176,503.91,588.845L507.18,592.514" id="my-svg-L_Curate_Answer_0" class="edge-thickness-normal edge-pattern-solid edge-thickness-normal edge-pattern-solid flowchart-link" style=";" data-edge="true" data-et="edge" data-id="L_Curate_Answer_0" data-points="W3sieCI6NDg3LjU1ODU5Mzc1LCJ5Ijo1NDUuNX0seyJ4Ijo0ODcuNTU4NTkzNzUsInkiOjU3MC41fSx7IngiOjUwOS44NDE0MzI3MzMwNTA4NSwieSI6NTk1LjV9XQ==" data-look="classic" marker-end="url(#my-svg_flowchart-v2-pointEnd)"/><path d="M596.745,595.5L600.458,591.333C604.172,587.167,611.6,578.833,615.314,564.25C619.027,549.667,619.027,528.833,619.027,508C619.027,487.167,619.027,466.333,619.027,445.5C619.027,424.667,619.027,403.833,619.027,383C619.027,362.167,619.027,341.333,619.027,320.5C619.027,299.667,619.027,278.833,619.027,258C619.027,237.167,619.027,216.333,619.027,195.5C619.027,174.667,619.027,153.833,619.027,133C619.027,112.167,619.027,91.333,604.397,76.903C589.766,62.472,560.505,54.444,545.874,50.43L531.243,46.416" id="my-svg-L_Answer_User_0" class="edge-thickness-normal edge-pattern-solid edge-thickness-normal edge-pattern-solid flowchart-link" style=";" data-edge="true" data-et="edge" data-id="L_Answer_User_0" data-points="W3sieCI6NTk2Ljc0NDUwNDc2Njk0OTEsInkiOjU5NS41fSx7IngiOjYxOS4wMjczNDM3NSwieSI6NTcwLjV9LHsieCI6NjE5LjAyNzM0Mzc1LCJ5Ijo1MDh9LHsieCI6NjE5LjAyNzM0Mzc1LCJ5Ijo0NDUuNX0seyJ4Ijo2MTkuMDI3MzQzNzUsInkiOjM4M30seyJ4Ijo2MTkuMDI3MzQzNzUsInkiOjMyMC41fSx7IngiOjYxOS4wMjczNDM3NSwieSI6MjU4fSx7IngiOjYxOS4wMjczNDM3NSwieSI6MTk1LjV9LHsieCI6NjE5LjAyNzM0Mzc1LCJ5IjoxMzN9LHsieCI6NjE5LjAyNzM0Mzc1LCJ5Ijo3MC41fSx7IngiOjUyNy4zODU5ODkxMDc2NDMyLCJ5Ijo0NS4zNTc0ODExMjgyMjk3MX1d" data-look="classic" marker-end="url(#my-svg_flowchart-v2-pointEnd)"/><path d="M201.622,420.5L194.008,424.667C186.394,428.833,171.166,437.167,163.552,451.75C155.938,466.333,155.938,487.167,155.938,508C155.938,528.833,155.938,549.667,155.938,572.375C155.938,595.083,155.938,619.667,155.938,646.125C155.938,672.583,155.938,700.917,155.938,729.25C155.938,757.583,155.938,785.917,155.938,816.125C155.938,846.333,155.938,878.417,155.938,902.375C155.938,926.333,155.938,942.167,155.938,959.208C155.938,976.25,155.938,994.5,155.938,1003.625L155.938,1012.75" id="my-svg-L_Retrieve_Short_0" class="edge-thickness-normal edge-pattern-dotted edge-thickness-normal edge-pattern-solid flowchart-link" style=";" data-edge="true" data-et="edge" data-id="L_Retrieve_Short_0" data-points="W3sieCI6MjAxLjYyMTg3NSwieSI6NDIwLjV9LHsieCI6MTU1LjkzNzUsInkiOjQ0NS41fSx7IngiOjE1NS45Mzc1LCJ5Ijo1MDh9LHsieCI6MTU1LjkzNzUsInkiOjU3MC41fSx7IngiOjE1NS45Mzc1LCJ5Ijo2NDQuMjV9LHsieCI6MTU1LjkzNzUsInkiOjcyOS4yNX0seyJ4IjoxNTUuOTM3NSwieSI6ODE0LjI1fSx7IngiOjE1NS45Mzc1LCJ5Ijo5MTAuNX0seyJ4IjoxNTUuOTM3NSwieSI6OTU4fSx7IngiOjE1NS45Mzc1LCJ5IjoxMDE2Ljc1fV0=" data-look="classic" marker-end="url(#my-svg_flowchart-v2-pointEnd)"/><path d="M306.27,420.5L310.284,424.667C314.297,428.833,322.324,437.167,326.338,451.75C330.352,466.333,330.352,487.167,330.352,508C330.352,528.833,330.352,549.667,330.352,572.375C330.352,595.083,330.352,619.667,330.352,646.125C330.352,672.583,330.352,700.917,330.352,729.25C330.352,757.583,330.352,785.917,330.352,816.125C330.352,846.333,330.352,878.417,330.352,902.375C330.352,926.333,330.352,942.167,334.47,953.803C338.588,965.44,346.824,972.879,350.943,976.599L355.061,980.319" id="my-svg-L_Retrieve_Long_0" class="edge-thickness-normal edge-pattern-dotted edge-thickness-normal edge-pattern-solid flowchart-link" style=";" data-edge="true" data-et="edge" data-id="L_Retrieve_Long_0" data-points="W3sieCI6MzA2LjI3MDMxMjUsInkiOjQyMC41fSx7IngiOjMzMC4zNTE1NjI1LCJ5Ijo0NDUuNX0seyJ4IjozMzAuMzUxNTYyNSwieSI6NTA4fSx7IngiOjMzMC4zNTE1NjI1LCJ5Ijo1NzAuNX0seyJ4IjozMzAuMzUxNTYyNSwieSI6NjQ0LjI1fSx7IngiOjMzMC4zNTE1NjI1LCJ5Ijo3MjkuMjV9LHsieCI6MzMwLjM1MTU2MjUsInkiOjgxNC4yNX0seyJ4IjozMzAuMzUxNTYyNSwieSI6OTEwLjV9LHsieCI6MzMwLjM1MTU2MjUsInkiOjk1OH0seyJ4IjozNTguMDI5MTk0MDc4OTQ3NCwieSI6OTgzfV0=" data-look="classic" marker-end="url(#my-svg_flowchart-v2-pointEnd)"/><path d="M553.293,693L553.293,699.042C553.293,705.083,553.293,717.167,553.293,728.583C553.293,740,553.293,750.75,553.293,756.125L553.293,761.5" id="my-svg-L_Answer_Save_0" class="edge-thickness-normal edge-pattern-dotted edge-thickness-normal edge-pattern-solid flowchart-link" style=";" data-edge="true" data-et="edge" data-id="L_Answer_Save_0" data-points="W3sieCI6NTUzLjI5Mjk2ODc1LCJ5Ijo2OTN9LHsieCI6NTUzLjI5Mjk2ODc1LCJ5Ijo3MjkuMjV9LHsieCI6NTUzLjI5Mjk2ODc1LCJ5Ijo3NjUuNX1d" data-look="classic" marker-end="url(#my-svg_flowchart-v2-pointEnd)"/><path d="M553.293,863L553.293,870.917C553.293,878.833,553.293,894.667,553.293,910.5C553.293,926.333,553.293,942.167,550.49,953.722C547.687,965.277,542.082,972.554,539.279,976.193L536.477,979.831" id="my-svg-L_Save_Long_0" class="edge-thickness-normal edge-pattern-solid edge-thickness-normal edge-pattern-solid flowchart-link" style=";" data-edge="true" data-et="edge" data-id="L_Save_Long_0" data-points="W3sieCI6NTUzLjI5Mjk2ODc1LCJ5Ijo4NjN9LHsieCI6NTUzLjI5Mjk2ODc1LCJ5Ijo5MTAuNX0seyJ4Ijo1NTMuMjkyOTY4NzUsInkiOjk1OH0seyJ4Ijo1MzQuMDM1NTY3NDM0MjEwNSwieSI6OTgzfV0=" data-look="classic" marker-end="url(#my-svg_flowchart-v2-pointEnd)"/><path d="M155.938,1136.75L155.938,1146.542C155.938,1156.333,155.938,1175.917,155.938,1189.875C155.938,1203.833,155.938,1212.167,162.839,1220.5C169.74,1228.833,183.542,1237.167,190.443,1241.333L197.344,1245.5" id="my-svg-L_Short_Control_0" class="edge-thickness-normal edge-pattern-solid edge-thickness-normal edge-pattern-solid flowchart-link" style=";" data-edge="true" data-et="edge" data-id="L_Short_Control_0" data-points="W3sieCI6MTU1LjkzNzUsInkiOjExMzYuNzV9LHsieCI6MTU1LjkzNzUsInkiOjExOTUuNX0seyJ4IjoxNTUuOTM3NSwieSI6MTIyMC41fSx7IngiOjE5Ny4zNDM3NSwieSI6MTI0NS41fV0=" data-look="classic"/><path d="M461.82,1170.5L461.82,1174.667C461.82,1178.833,461.82,1187.167,461.82,1195.5C461.82,1203.833,461.82,1212.167,455.48,1220.5C449.139,1228.833,436.458,1237.167,430.117,1241.333L423.776,1245.5" id="my-svg-L_Long_Control_0" class="edge-thickness-normal edge-pattern-solid edge-thickness-normal edge-pattern-solid flowchart-link" style=";" data-edge="true" data-et="edge" data-id="L_Long_Control_0" data-points="W3sieCI6NDYxLjgyMDMxMjUsInkiOjExNzAuNX0seyJ4Ijo0NjEuODIwMzEyNSwieSI6MTE5NS41fSx7IngiOjQ2MS44MjAzMTI1LCJ5IjoxMjIwLjV9LHsieCI6NDIzLjc3NjQ4MTMzMTE2ODg0LCJ5IjoxMjQ1LjV9XQ==" data-look="classic"/></g><g class="edgeLabels"><g class="edgeLabel"><g class="label" data-id="L_User_Route_0" transform="translate(0, 0)"><foreignObject width="0" height="0"><div xmlns="http://www.w3.org/1999/xhtml" class="labelBkg" style="display: table-cell; white-space: nowrap; line-height: 1.5; max-width: 200px; text-align: center;"><span class="edgeLabel"></span></div></foreignObject></g></g><g class="edgeLabel"><g class="label" data-id="L_Route_Understand_0" transform="translate(0, 0)"><foreignObject width="0" height="0"><div xmlns="http://www.w3.org/1999/xhtml" class="labelBkg" style="display: table-cell; white-space: nowrap; line-height: 1.5; max-width: 200px; text-align: center;"><span class="edgeLabel"></span></div></foreignObject></g></g><g class="edgeLabel"><g class="label" data-id="L_Understand_Retrieve_0" transform="translate(0, 0)"><foreignObject width="0" height="0"><div xmlns="http://www.w3.org/1999/xhtml" class="labelBkg" style="display: table-cell; white-space: nowrap; line-height: 1.5; max-width: 200px; text-align: center;"><span class="edgeLabel"></span></div></foreignObject></g></g><g class="edgeLabel"><g class="label" data-id="L_Retrieve_Curate_0" transform="translate(0, 0)"><foreignObject width="0" height="0"><div xmlns="http://www.w3.org/1999/xhtml" class="labelBkg" style="display: table-cell; white-space: nowrap; line-height: 1.5; max-width: 200px; text-align: center;"><span class="edgeLabel"></span></div></foreignObject></g></g><g class="edgeLabel"><g class="label" data-id="L_Curate_Answer_0" transform="translate(0, 0)"><foreignObject width="0" height="0"><div xmlns="http://www.w3.org/1999/xhtml" class="labelBkg" style="display: table-cell; white-space: nowrap; line-height: 1.5; max-width: 200px; text-align: center;"><span class="edgeLabel"></span></div></foreignObject></g></g><g class="edgeLabel"><g class="label" data-id="L_Answer_User_0" transform="translate(0, 0)"><foreignObject width="0" height="0"><div xmlns="http://www.w3.org/1999/xhtml" class="labelBkg" style="display: table-cell; white-space: nowrap; line-height: 1.5; max-width: 200px; text-align: center;"><span class="edgeLabel"></span></div></foreignObject></g></g><g class="edgeLabel" transform="translate(155.9375, 644.25)"><g class="label" data-id="L_Retrieve_Short_0" transform="translate(-17.9453125, -11.25)"><foreignObject width="35.890625" height="22.5"><div xmlns="http://www.w3.org/1999/xhtml" class="labelBkg" style="display: table-cell; white-space: nowrap; line-height: 1.5; max-width: 200px; text-align: center;"><span class="edgeLabel"><p>reads</p></span></div></foreignObject></g></g><g class="edgeLabel" transform="translate(330.3515625, 644.25)"><g class="label" data-id="L_Retrieve_Long_0" transform="translate(-17.9453125, -11.25)"><foreignObject width="35.890625" height="22.5"><div xmlns="http://www.w3.org/1999/xhtml" class="labelBkg" style="display: table-cell; white-space: nowrap; line-height: 1.5; max-width: 200px; text-align: center;"><span class="edgeLabel"><p>reads</p></span></div></foreignObject></g></g><g class="edgeLabel" transform="translate(553.29296875, 729.25)"><g class="label" data-id="L_Answer_Save_0" transform="translate(-28.546875, -11.25)"><foreignObject width="57.09375" height="22.5"><div xmlns="http://www.w3.org/1999/xhtml" class="labelBkg" style="display: table-cell; white-space: nowrap; line-height: 1.5; max-width: 200px; text-align: center;"><span class="edgeLabel"><p>classifies</p></span></div></foreignObject></g></g><g class="edgeLabel" transform="translate(553.29296875, 910.5)"><g class="label" data-id="L_Save_Long_0" transform="translate(-67.390625, -22.5)"><foreignObject width="134.78125" height="45"><div xmlns="http://www.w3.org/1999/xhtml" class="labelBkg" style="display: table-cell; white-space: nowrap; line-height: 1.5; max-width: 200px; text-align: center;"><span class="edgeLabel"><p>written immediately,<br />no approval step</p></span></div></foreignObject></g></g><g class="edgeLabel"><g class="label" data-id="L_Short_Control_0" transform="translate(0, 0)"><foreignObject width="0" height="0"><div xmlns="http://www.w3.org/1999/xhtml" class="labelBkg" style="display: table-cell; white-space: nowrap; line-height: 1.5; max-width: 200px; text-align: center;"><span class="edgeLabel"></span></div></foreignObject></g></g><g class="edgeLabel"><g class="label" data-id="L_Long_Control_0" transform="translate(0, 0)"><foreignObject width="0" height="0"><div xmlns="http://www.w3.org/1999/xhtml" class="labelBkg" style="display: table-cell; white-space: nowrap; line-height: 1.5; max-width: 200px; text-align: center;"><span class="edgeLabel"></span></div></foreignObject></g></g></g><g class="nodes"><g class="node default person" id="my-svg-flowchart-User-0" data-look="classic" transform="translate(461.8203125, 26.75)"><g class="basic label-container outer-path"><path d="M-60.2109375 -18.75 C-14.563720896559872 -18.75, 31.083495706880257 -18.75, 60.2109375 -18.75 C60.2109375 -18.75, 60.2109375 -18.75, 60.2109375 -18.75 C60.53432305907295 -18.739629654552335, 60.85770861814591 -18.72925930910467, 61.412254124638366 -18.711476114068805 C61.86451762145853 -18.667846798457, 62.3167811182787 -18.624217482845193, 62.608634281584486 -18.596062759185866 C62.857949973875755 -18.555755331528285, 63.10726566616702 -18.515447903870704, 63.79516178815073 -18.40423419358248 C64.2345314774402 -18.303950929157327, 64.67390116672966 -18.203667664732176, 64.96696094830325 -18.136778681981802 C65.39765189293256 -18.008951870358725, 65.82834283756188 -17.88112505873565, 66.11921658794289 -17.794795256450037 C66.40064122102353 -17.691228390015567, 66.68206585410418 -17.587661523581097, 67.24719384148827 -17.37968920023791 C67.55130076468856 -17.245070086348495, 67.85540768788886 -17.110450972459084, 68.34625760845421 -16.89316627317036 C68.76077183999644 -16.67691446408382, 69.17528607153865 -16.460662654997282, 69.41189160007383 -16.337225702313553 C69.74926069939724 -16.132710571702805, 70.08662979872067 -15.92819544109206, 70.43971689769779 -15.714151966722014 C70.76575916006792 -15.486718998634673, 71.09180142243804 -15.259286030547333, 71.42550994671029 -15.026505410024187 C71.64131523353382 -14.854406436602298, 71.85712052035733 -14.682307463180408, 72.36521991202103 -14.277111719421272 C72.65117231806087 -14.017417310141957, 72.93712472410071 -13.757722900862639, 73.25498532381538 -13.469050314332392 C73.43676938546591 -13.281343345929198, 73.61855344711643 -13.093636377526005, 74.09114994516216 -12.605641692399693 C74.38020649854386 -12.266099417013713, 74.66926305192557 -11.92655714162773, 74.87027779627556 -11.690433784851255 C75.09199190784429 -11.393357073920239, 75.31370601941303 -11.096280362989225, 75.58916727369292 -10.727187377290685 C75.81043621764377 -10.387258860351285, 76.03170516159462 -10.047330343411886, 76.24486430635024 -9.719860655822346 C76.37247095191832 -9.493282135042204, 76.50007759748638 -9.26670361426206, 76.83467449449375 -8.672592942015662 C77.00099548860827 -8.32722383903769, 77.16731648272278 -7.981854736059718, 77.35617418154648 -7.589687683544889 C77.50306944319517 -7.226853547245936, 77.64996470484387 -6.864019410946984, 77.807220413433 -6.475594770399527 C77.91783081545957 -6.142453862869777, 78.02844121748613 -5.809312955340027, 78.18595974443738 -5.334892249331864 C78.29287073167137 -4.927194319493729, 78.39978171890534 -4.519496389655595, 78.4908358534092 -4.172267511680897 C78.57230500714928 -3.7539406257372514, 78.65377416088938 -3.335613739793605, 78.72059593902094 -2.9924980318758676 C78.77868405202517 -2.54197809821039, 78.8367721650294 -2.091458164544912, 78.87429586779747 -1.8004317357690365 C78.90382778358527 -1.3404483096407238, 78.93335969937306 -0.880464883512411, 78.9513040537629 -0.6009670794685343 C78.9513040537629 -0.3371341604778852, 78.9513040537629 -0.07330124148723605, 78.9513040537629 0.6009670794685298 C78.92804347836883 0.9632693168295408, 78.90478290297477 1.3255715541905517, 78.87429586779747 1.8004317357690236 C78.8213409495236 2.211139624769764, 78.76838603124973 2.621847513770505, 78.72059593902094 2.9924980318758543 C78.66317732300291 3.2873304896996234, 78.60575870698489 3.5821629475233925, 78.4908358534092 4.172267511680893 C78.39719208347779 4.529371791895942, 78.30354831354639 4.886476072110991, 78.18595974443738 5.334892249331851 C78.09686833985566 5.603221365144371, 78.00777693527394 5.87155048095689, 77.80722041343301 6.475594770399514 C77.63838694848354 6.892616692997712, 77.46955348353406 7.309638615595909, 77.35617418154649 7.589687683544883 C77.15848328364315 8.000197062948764, 76.96079238573981 8.410706442352646, 76.83467449449375 8.672592942015656 C76.71082754556276 8.89249574070608, 76.58698059663179 9.112398539396503, 76.24486430635024 9.719860655822343 C76.04157759380035 10.032163636424619, 75.83829088125047 10.344466617026892, 75.58916727369292 10.727187377290674 C75.42271045746791 10.95022434650426, 75.2562536412429 11.173261315717845, 74.87027779627556 11.690433784851251 C74.59492769824405 12.013875677863485, 74.31957760021255 12.337317570875719, 74.09114994516217 12.605641692399683 C73.79432034604973 12.912142623646595, 73.49749074693727 13.218643554893507, 73.25498532381538 13.469050314332389 C73.0723580776776 13.634907547222568, 72.88973083153984 13.800764780112749, 72.36521991202105 14.27711171942126 C72.14109677351489 14.455843958212725, 71.91697363500873 14.63457619700419, 71.4255099467103 15.026505410024184 C71.16672026284044 15.207025890666943, 70.90793057897058 15.387546371309703, 70.43971689769779 15.714151966722007 C70.03228977811179 15.961136680922563, 69.62486265852579 16.20812139512312, 69.41189160007383 16.337225702313553 C69.02143875288233 16.540924702596378, 68.63098590569082 16.744623702879203, 68.34625760845422 16.89316627317036 C67.93232008670937 17.076404135026493, 67.51838256496453 17.25964199688263, 67.24719384148827 17.379689200237905 C66.9548022973903 17.48729199130376, 66.66241075329235 17.594894782369614, 66.1192165879429 17.794795256450033 C65.82182482219024 17.883059571484193, 65.52443305643756 17.971323886518352, 64.96696094830328 18.1367786819818 C64.50098334319419 18.243135029559898, 64.03500573808512 18.349491377137994, 63.795161788150736 18.404234193582475 C63.49794927872989 18.4522852071882, 63.200736769309046 18.50033622079393, 62.6086342815845 18.596062759185862 C62.220250354339996 18.633529689547128, 61.8318664270955 18.670996619908394, 61.412254124638366 18.711476114068805 C60.96201876151327 18.725914285834257, 60.51178339838817 18.74035245759971, 60.2109375 18.75 C60.2109375 18.75, 60.2109375 18.75, 60.2109375 18.75 C23.271490195225894 18.75, -13.667957109548212 18.75, -60.2109375 18.75 C-60.66644660817372 18.73539270949556, -61.12195571634744 18.72078541899112, -61.41225412463836 18.711476114068805 C-61.88971772399996 18.665415774872383, -62.367181323361564 18.61935543567596, -62.60863428158449 18.596062759185862 C-62.87423681157573 18.55312220191526, -63.13983934156696 18.510181644644664, -63.79516178815073 18.404234193582475 C-64.04569326524764 18.34705201880578, -64.29622474234455 18.289869844029084, -64.96696094830325 18.136778681981802 C-65.23722859375371 18.056564663475925, -65.50749623920419 17.976350644970047, -66.11921658794287 17.79479525645004 C-66.51049114422918 17.65080260283433, -66.9017657005155 17.50680994921862, -67.24719384148827 17.37968920023791 C-67.50986759836901 17.263411320006956, -67.77254135524974 17.147133439776, -68.34625760845421 16.893166273170362 C-68.71173828023586 16.702495240803415, -69.07721895201752 16.511824208436472, -69.41189160007383 16.337225702313557 C-69.74502828089196 16.13527628867316, -70.0781649617101 15.933326875032769, -70.43971689769778 15.714151966722019 C-70.73495218851072 15.508208608380665, -71.03018747932366 15.30226525003931, -71.42550994671029 15.026505410024189 C-71.66838363794997 14.832820104400907, -71.91125732918965 14.639134798777626, -72.36521991202103 14.277111719421274 C-72.6608093237485 14.008665236557656, -72.95639873547596 13.740218753694036, -73.25498532381536 13.469050314332401 C-73.43390366027735 13.284302442466782, -73.61282199673936 13.09955457060116, -74.09114994516217 12.60564169239969 C-74.27009979595891 12.395437015118876, -74.44904964675564 12.185232337838062, -74.87027779627556 11.690433784851257 C-75.15117198080047 11.314061167574533, -75.43206616532537 10.937688550297809, -75.58916727369292 10.727187377290688 C-75.75185233653175 10.477259433714103, -75.91453739937059 10.22733149013752, -76.24486430635024 9.719860655822355 C-76.44211828378081 9.369616244763225, -76.63937226121139 9.019371833704094, -76.83467449449375 8.672592942015664 C-76.95322677826137 8.426416588159688, -77.071779062029 8.18024023430371, -77.35617418154648 7.5896876835448905 C-77.53077722667302 7.158414786362111, -77.70538027179956 6.727141889179331, -77.807220413433 6.475594770399529 C-77.94557049140995 6.0589063786243464, -78.08392056938692 5.642217986849164, -78.18595974443738 5.334892249331858 C-78.27823770140427 4.982996405897603, -78.37051565837115 4.631100562463347, -78.4908358534092 4.172267511680899 C-78.54729738543224 3.882349477891548, -78.6037589174553 3.592431444102197, -78.72059593902094 2.9924980318758694 C-78.78175311799086 2.5181750286360725, -78.8429102969608 2.043852025396276, -78.87429586779746 1.8004317357690471 C-78.90312578476447 1.3513825079177124, -78.93195570173148 0.9023332800663778, -78.9513040537629 0.6009670794685367 C-78.9513040537629 0.3487151350259247, -78.9513040537629 0.09646319058331276, -78.9513040537629 -0.6009670794685276 C-78.92738652449094 -0.9735019037614709, -78.90346899521897 -1.3460367280544143, -78.87429586779747 -1.8004317357690214 C-78.835917144607 -2.098089534098282, -78.7975384214165 -2.3957473324275425, -78.72059593902094 -2.9924980318758605 C-78.65618213764965 -3.323249288055663, -78.59176833627838 -3.6540005442354655, -78.4908358534092 -4.17226751168089 C-78.37926666689552 -4.597729174248828, -78.26769748038184 -5.023190836816765, -78.18595974443738 -5.334892249331849 C-78.03997386397491 -5.7745784615935225, -77.89398798351243 -6.214264673855196, -77.80722041343301 -6.475594770399505 C-77.70707112370751 -6.722965452276323, -77.60692183398199 -6.970336134153142, -77.35617418154649 -7.589687683544882 C-77.182778173927 -7.949748203446962, -77.00938216630752 -8.309808723349043, -76.83467449449375 -8.672592942015655 C-76.69820320207036 -8.914911540930252, -76.56173190964697 -9.157230139844849, -76.24486430635024 -9.719860655822348 C-76.05893120907506 -10.005503823264515, -75.87299811179986 -10.291146990706682, -75.58916727369292 -10.727187377290681 C-75.3490596763705 -11.04890968345062, -75.10895207904807 -11.370631989610562, -74.87027779627556 -11.690433784851251 C-74.65531485601323 -11.942941486221187, -74.44035191575091 -12.195449187591121, -74.09114994516217 -12.605641692399683 C-73.85144668378028 -12.853154989780249, -73.61174342239838 -13.100668287160815, -73.25498532381538 -13.469050314332382 C-73.04701393236375 -13.657924429427263, -72.83904254091213 -13.846798544522143, -72.36521991202105 -14.277111719421258 C-72.11190070059352 -14.479127049427381, -71.85858148916601 -14.681142379433503, -71.4255099467103 -15.026505410024182 C-71.17190872224985 -15.203406645987723, -70.9183074977894 -15.380307881951264, -70.43971689769779 -15.714151966722005 C-70.07890280056293 -15.932879592784154, -69.71808870342807 -16.1516072188463, -69.41189160007383 -16.33722570231355 C-69.18878071633107 -16.45362250745281, -68.9656698325883 -16.570019312592066, -68.34625760845422 -16.89316627317036 C-68.11615511378241 -16.995025821813584, -67.8860526191106 -17.096885370456807, -67.24719384148827 -17.379689200237905 C-66.87744691603525 -17.51575948670773, -66.50769999058222 -17.651829773177553, -66.1192165879429 -17.794795256450033 C-65.85557949534298 -17.87304136167435, -65.59194240274307 -17.951287466898666, -64.96696094830328 -18.136778681981795 C-64.58867812112946 -18.223119268758076, -64.21039529395564 -18.309459855534357, -63.795161788150736 -18.40423419358247 C-63.425333192368065 -18.46402521288502, -63.0555045965854 -18.523816232187567, -62.6086342815845 -18.596062759185862 C-62.24433017459661 -18.631206738247194, -61.880026067608725 -18.666350717308525, -61.412254124638366 -18.711476114068805 C-60.93411744520908 -18.726809026741513, -60.4559807657798 -18.742141939414225, -60.21093750000001 -18.75 C-60.21093750000001 -18.75, -60.2109375 -18.75, -60.2109375 -18.75" stroke="none" stroke-width="0" fill="#e8f1fb" style="fill:#e8f1fb !important;stroke:#5e8fc4 !important"/><path d="M-60.2109375 -18.75 C-29.38234779289259 -18.75, 1.4462419142148235 -18.75, 60.2109375 -18.75 M-60.2109375 -18.75 C-31.079772413533387 -18.75, -1.9486073270667745 -18.75, 60.2109375 -18.75 M60.2109375 -18.75 C60.2109375 -18.75, 60.2109375 -18.75, 60.2109375 -18.75 M60.2109375 -18.75 C60.2109375 -18.75, 60.2109375 -18.75, 60.2109375 -18.75 M60.2109375 -18.75 C60.622776032526104 -18.73679313985696, 61.03461456505221 -18.723586279713924, 61.412254124638366 -18.711476114068805 M60.2109375 -18.75 C60.530931230879524 -18.739738423880706, 60.85092496175904 -18.72947684776141, 61.412254124638366 -18.711476114068805 M61.412254124638366 -18.711476114068805 C61.692886501751744 -18.684403846158492, 61.97351887886512 -18.657331578248176, 62.608634281584486 -18.596062759185866 M61.412254124638366 -18.711476114068805 C61.78557414305519 -18.675462380875146, 62.15889416147202 -18.639448647681487, 62.608634281584486 -18.596062759185866 M62.608634281584486 -18.596062759185866 C62.99637246109567 -18.53337625727699, 63.38411064060684 -18.470689755368117, 63.79516178815073 -18.40423419358248 M62.608634281584486 -18.596062759185866 C62.9267992886074 -18.544624308256882, 63.24496429563031 -18.493185857327898, 63.79516178815073 -18.40423419358248 M63.79516178815073 -18.40423419358248 C64.16776623217925 -18.3191896607042, 64.54037067620776 -18.23414512782592, 64.96696094830325 -18.136778681981802 M63.79516178815073 -18.40423419358248 C64.06760170683599 -18.342051559979186, 64.34004162552124 -18.27986892637589, 64.96696094830325 -18.136778681981802 M64.96696094830325 -18.136778681981802 C65.4224792955691 -18.001583227577896, 65.87799764283496 -17.866387773173987, 66.11921658794289 -17.794795256450037 M64.96696094830325 -18.136778681981802 C65.42524462770535 -18.00076249151538, 65.88352830710745 -17.86474630104896, 66.11921658794289 -17.794795256450037 M66.11921658794289 -17.794795256450037 C66.5570693614009 -17.63366138835082, 66.99492213485891 -17.472527520251603, 67.24719384148827 -17.37968920023791 M66.11921658794289 -17.794795256450037 C66.56221197597029 -17.63176885865148, 67.00520736399768 -17.468742460852923, 67.24719384148827 -17.37968920023791 M67.24719384148827 -17.37968920023791 C67.67823817434821 -17.188878660556643, 68.10928250720815 -16.998068120875374, 68.34625760845421 -16.89316627317036 M67.24719384148827 -17.37968920023791 C67.50507630931219 -17.26553228154387, 67.7629587771361 -17.15137536284983, 68.34625760845421 -16.89316627317036 M68.34625760845421 -16.89316627317036 C68.59135729329753 -16.76529792458144, 68.83645697814086 -16.637429575992517, 69.41189160007383 -16.337225702313553 M68.34625760845421 -16.89316627317036 C68.57047573079615 -16.77619182236313, 68.79469385313809 -16.659217371555908, 69.41189160007383 -16.337225702313553 M69.41189160007383 -16.337225702313553 C69.65717037063408 -16.18853627018188, 69.90244914119432 -16.03984683805021, 70.43971689769779 -15.714151966722014 M69.41189160007383 -16.337225702313553 C69.68755458467186 -16.17011718107472, 69.96321756926989 -16.003008659835885, 70.43971689769779 -15.714151966722014 M70.43971689769779 -15.714151966722014 C70.76327577020784 -15.488451303896847, 71.08683464271789 -15.262750641071678, 71.42550994671029 -15.026505410024187 M70.43971689769779 -15.714151966722014 C70.72012668862823 -15.518550235313143, 71.00053647955868 -15.322948503904273, 71.42550994671029 -15.026505410024187 M71.42550994671029 -15.026505410024187 C71.76986131090312 -14.751894360655058, 72.11421267509594 -14.477283311285927, 72.36521991202103 -14.277111719421272 M71.42550994671029 -15.026505410024187 C71.6742207057739 -14.82816519814222, 71.9229314648375 -14.629824986260253, 72.36521991202103 -14.277111719421272 M72.36521991202103 -14.277111719421272 C72.63523955675718 -14.031887022400204, 72.90525920149334 -13.786662325379137, 73.25498532381538 -13.469050314332392 M72.36521991202103 -14.277111719421272 C72.6941242391419 -13.978409511861724, 73.02302856626277 -13.679707304302175, 73.25498532381538 -13.469050314332392 M73.25498532381538 -13.469050314332392 C73.54704896252512 -13.16747062849389, 73.83911260123487 -12.865890942655387, 74.09114994516216 -12.605641692399693 M73.25498532381538 -13.469050314332392 C73.43139370524878 -13.286894177104926, 73.60780208668218 -13.10473803987746, 74.09114994516216 -12.605641692399693 M74.09114994516216 -12.605641692399693 C74.32770496403235 -12.32777070687288, 74.56425998290254 -12.049899721346064, 74.87027779627556 -11.690433784851255 M74.09114994516216 -12.605641692399693 C74.31042068739492 -12.348073801714406, 74.52969142962768 -12.090505911029119, 74.87027779627556 -11.690433784851255 M74.87027779627556 -11.690433784851255 C75.05328969734074 -11.445214510151075, 75.23630159840594 -11.199995235450896, 75.58916727369292 -10.727187377290685 M74.87027779627556 -11.690433784851255 C75.06313109778326 -11.432027930128145, 75.25598439929095 -11.173622075405035, 75.58916727369292 -10.727187377290685 M75.58916727369292 -10.727187377290685 C75.78200799788347 -10.430932239948985, 75.974848722074 -10.134677102607286, 76.24486430635024 -9.719860655822346 M75.58916727369292 -10.727187377290685 C75.73783347213353 -10.498796174021964, 75.88649967057412 -10.27040497075324, 76.24486430635024 -9.719860655822346 M76.24486430635024 -9.719860655822346 C76.38608781974706 -9.469104007354877, 76.52731133314389 -9.218347358887407, 76.83467449449375 -8.672592942015662 M76.24486430635024 -9.719860655822346 C76.42865441851872 -9.393522700900277, 76.6124445306872 -9.06718474597821, 76.83467449449375 -8.672592942015662 M76.83467449449375 -8.672592942015662 C76.9749835933455 -8.381238096116242, 77.11529269219723 -8.08988325021682, 77.35617418154648 -7.589687683544889 M76.83467449449375 -8.672592942015662 C76.9636840463856 -8.404701847150049, 77.09269359827744 -8.136810752284436, 77.35617418154648 -7.589687683544889 M77.35617418154648 -7.589687683544889 C77.47963832267213 -7.284728867947747, 77.60310246379778 -6.979770052350606, 77.807220413433 -6.475594770399527 M77.35617418154648 -7.589687683544889 C77.48256345659343 -7.277503730608519, 77.60895273164039 -6.965319777672149, 77.807220413433 -6.475594770399527 M77.807220413433 -6.475594770399527 C77.94486205714797 -6.06104006974778, 78.08250370086294 -5.646485369096034, 78.18595974443738 -5.334892249331864 M77.807220413433 -6.475594770399527 C77.95855402604803 -6.01980204093978, 78.10988763866307 -5.5640093114800315, 78.18595974443738 -5.334892249331864 M78.18595974443738 -5.334892249331864 C78.29820343120853 -4.906858424951915, 78.41044711797967 -4.478824600571968, 78.4908358534092 -4.172267511680897 M78.18595974443738 -5.334892249331864 C78.3026932888395 -4.889736651888383, 78.41942683324163 -4.444581054444903, 78.4908358534092 -4.172267511680897 M78.4908358534092 -4.172267511680897 C78.56400220819388 -3.7965737435760474, 78.63716856297859 -3.4208799754711974, 78.72059593902094 -2.9924980318758676 M78.4908358534092 -4.172267511680897 C78.57516734092218 -3.739243146767927, 78.65949882843516 -3.3062187818549558, 78.72059593902094 -2.9924980318758676 M78.72059593902094 -2.9924980318758676 C78.76515338166986 -2.6469193055530686, 78.8097108243188 -2.30134057923027, 78.87429586779747 -1.8004317357690365 M78.72059593902094 -2.9924980318758676 C78.76487076858214 -2.6491111968532057, 78.80914559814335 -2.3057243618305434, 78.87429586779747 -1.8004317357690365 M78.87429586779747 -1.8004317357690365 C78.89487238479265 -1.4799358745034685, 78.91544890178784 -1.1594400132379006, 78.9513040537629 -0.6009670794685343 M78.87429586779747 -1.8004317357690365 C78.89280281934447 -1.51217102688219, 78.91130977089146 -1.2239103179953434, 78.9513040537629 -0.6009670794685343 M78.9513040537629 -0.6009670794685343 C78.9513040537629 -0.27337192344262695, 78.9513040537629 0.054223232583280434, 78.9513040537629 0.6009670794685298 M78.9513040537629 -0.6009670794685343 C78.9513040537629 -0.3464034241148567, 78.9513040537629 -0.09183976876117905, 78.9513040537629 0.6009670794685298 M78.9513040537629 0.6009670794685298 C78.92427091937729 1.0220299682777194, 78.89723778499169 1.443092857086909, 78.87429586779747 1.8004317357690236 M78.9513040537629 0.6009670794685298 C78.92267612766337 1.0468701365148612, 78.89404820156382 1.4927731935611925, 78.87429586779747 1.8004317357690236 M78.87429586779747 1.8004317357690236 C78.82265420678988 2.200954260744474, 78.77101254578228 2.6014767857199237, 78.72059593902094 2.9924980318758543 M78.87429586779747 1.8004317357690236 C78.82879675256977 2.153313888658521, 78.78329763734206 2.5061960415480176, 78.72059593902094 2.9924980318758543 M78.72059593902094 2.9924980318758543 C78.63187102431361 3.4480817168806395, 78.54314610960628 3.903665401885425, 78.4908358534092 4.172267511680893 M78.72059593902094 2.9924980318758543 C78.64075723579485 3.4024528990259326, 78.56091853256876 3.812407766176011, 78.4908358534092 4.172267511680893 M78.4908358534092 4.172267511680893 C78.42851671125827 4.409917409989442, 78.36619756910734 4.647567308297989, 78.18595974443738 5.334892249331851 M78.4908358534092 4.172267511680893 C78.40543535959995 4.497936607383702, 78.3200348657907 4.8236057030865105, 78.18595974443738 5.334892249331851 M78.18595974443738 5.334892249331851 C78.04575253825935 5.757174015355507, 77.9055453320813 6.179455781379163, 77.80722041343301 6.475594770399514 M78.18595974443738 5.334892249331851 C78.05120666091109 5.740747066924864, 77.91645357738481 6.146601884517876, 77.80722041343301 6.475594770399514 M77.80722041343301 6.475594770399514 C77.6395471981809 6.889750853813319, 77.47187398292878 7.303906937227124, 77.35617418154649 7.589687683544883 M77.80722041343301 6.475594770399514 C77.68244365668876 6.783795771952309, 77.55766689994451 7.0919967735051035, 77.35617418154649 7.589687683544883 M77.35617418154649 7.589687683544883 C77.15676252704512 8.003770250842873, 76.95735087254374 8.417852818140863, 76.83467449449375 8.672592942015656 M77.35617418154649 7.589687683544883 C77.24602194777829 7.818421153844797, 77.13586971401008 8.04715462414471, 76.83467449449375 8.672592942015656 M76.83467449449375 8.672592942015656 C76.63884491184639 9.02030819590158, 76.44301532919901 9.368023449787502, 76.24486430635024 9.719860655822343 M76.83467449449375 8.672592942015656 C76.6501224367702 9.000283808426106, 76.46557037904665 9.327974674836558, 76.24486430635024 9.719860655822343 M76.24486430635024 9.719860655822343 C76.05030032025901 10.018763186204096, 75.8557363341678 10.317665716585848, 75.58916727369292 10.727187377290674 M76.24486430635024 9.719860655822343 C76.0321414554551 10.046660078880867, 75.81941860455996 10.37345950193939, 75.58916727369292 10.727187377290674 M75.58916727369292 10.727187377290674 C75.33388738554355 11.069239170934601, 75.07860749739416 11.41129096457853, 74.87027779627556 11.690433784851251 M75.58916727369292 10.727187377290674 C75.40416543224514 10.975072990816232, 75.21916359079735 11.22295860434179, 74.87027779627556 11.690433784851251 M74.87027779627556 11.690433784851251 C74.70719947530955 11.88199486007726, 74.54412115434354 12.073555935303267, 74.09114994516217 12.605641692399683 M74.87027779627556 11.690433784851251 C74.6479734877705 11.951565075094797, 74.42566917926543 12.212696365338344, 74.09114994516217 12.605641692399683 M74.09114994516217 12.605641692399683 C73.83701491396147 12.868056976988502, 73.58287988276078 13.13047226157732, 73.25498532381538 13.469050314332389 M74.09114994516217 12.605641692399683 C73.84682361134566 12.857928691630304, 73.60249727752912 13.110215690860926, 73.25498532381538 13.469050314332389 M73.25498532381538 13.469050314332389 C72.92150575174794 13.771907638298062, 72.58802617968051 14.074764962263734, 72.36521991202105 14.27711171942126 M73.25498532381538 13.469050314332389 C73.0659692821626 13.640709682271028, 72.87695324050982 13.81236905020967, 72.36521991202105 14.27711171942126 M72.36521991202105 14.27711171942126 C72.02338349327376 14.549717166723083, 71.68154707452648 14.822322614024905, 71.4255099467103 15.026505410024184 M72.36521991202105 14.27711171942126 C72.05454191492018 14.524869154620486, 71.74386391781931 14.77262658981971, 71.4255099467103 15.026505410024184 M71.4255099467103 15.026505410024184 C71.12499568076207 15.236131152896771, 70.82448141481383 15.445756895769357, 70.43971689769779 15.714151966722007 M71.4255099467103 15.026505410024184 C71.03276738256163 15.300465621222711, 70.64002481841295 15.57442583242124, 70.43971689769779 15.714151966722007 M70.43971689769779 15.714151966722007 C70.09248073434405 15.924648569533245, 69.74524457099031 16.135145172344483, 69.41189160007383 16.337225702313553 M70.43971689769779 15.714151966722007 C70.19563861610523 15.862113655386612, 69.95156033451268 16.010075344051216, 69.41189160007383 16.337225702313553 M69.41189160007383 16.337225702313553 C69.07717215158455 16.51184862419237, 68.74245270309528 16.68647154607119, 68.34625760845422 16.89316627317036 M69.41189160007383 16.337225702313553 C69.15031739111778 16.473688799579644, 68.88874318216175 16.610151896845736, 68.34625760845422 16.89316627317036 M68.34625760845422 16.89316627317036 C67.91355640419661 17.08471026067003, 67.480855199939 17.276254248169696, 67.24719384148827 17.379689200237905 M68.34625760845422 16.89316627317036 C68.06811797767372 17.016290436997885, 67.78997834689322 17.139414600825415, 67.24719384148827 17.379689200237905 M67.24719384148827 17.379689200237905 C66.88844038013742 17.511713790295662, 66.52968691878657 17.64373838035342, 66.1192165879429 17.794795256450033 M67.24719384148827 17.379689200237905 C66.86199757068097 17.521444988610284, 66.47680129987369 17.663200776982663, 66.1192165879429 17.794795256450033 M66.1192165879429 17.794795256450033 C65.79254376840515 17.891750034548217, 65.4658709488674 17.9887048126464, 64.96696094830328 18.1367786819818 M66.1192165879429 17.794795256450033 C65.70529400962127 17.917645304971945, 65.29137143129964 18.040495353493856, 64.96696094830328 18.1367786819818 M64.96696094830328 18.1367786819818 C64.71807759479647 18.193584683304064, 64.46919424128966 18.250390684626332, 63.795161788150736 18.404234193582475 M64.96696094830328 18.1367786819818 C64.62939804685155 18.21382521143436, 64.29183514539983 18.29087174088692, 63.795161788150736 18.404234193582475 M63.795161788150736 18.404234193582475 C63.37373309346365 18.472367516711145, 62.95230439877656 18.540500839839815, 62.6086342815845 18.596062759185862 M63.795161788150736 18.404234193582475 C63.324272132994544 18.48036398122431, 62.85338247783835 18.556493768866147, 62.6086342815845 18.596062759185862 M62.6086342815845 18.596062759185862 C62.26624235762379 18.629092896303817, 61.92385043366308 18.66212303342177, 61.412254124638366 18.711476114068805 M62.6086342815845 18.596062759185862 C62.164579025055325 18.638900235728652, 61.72052376852614 18.681737712271442, 61.412254124638366 18.711476114068805 M61.412254124638366 18.711476114068805 C61.03608161148438 18.723539234390277, 60.659909098330395 18.735602354711745, 60.2109375 18.75 M61.412254124638366 18.711476114068805 C60.933727786936906 18.726821522323878, 60.45520144923545 18.742166930578954, 60.2109375 18.75 M60.2109375 18.75 C60.2109375 18.75, 60.2109375 18.75, 60.2109375 18.75 M60.2109375 18.75 C60.2109375 18.75, 60.2109375 18.75, 60.2109375 18.75 M60.2109375 18.75 C28.152381736030783 18.75, -3.906174027938434 18.75, -60.2109375 18.75 M60.2109375 18.75 C19.381663662835813 18.75, -21.447610174328375 18.75, -60.2109375 18.75 M-60.2109375 18.75 C-60.6394854002788 18.736257302955945, -61.06803330055761 18.722514605911886, -61.41225412463836 18.711476114068805 M-60.2109375 18.75 C-60.586023020624786 18.73797173741324, -60.961108541249565 18.725943474826476, -61.41225412463836 18.711476114068805 M-61.41225412463836 18.711476114068805 C-61.77344320752594 18.676632637636065, -62.13463229041353 18.641789161203327, -62.60863428158449 18.596062759185862 M-61.41225412463836 18.711476114068805 C-61.724497730783426 18.681354348911867, -62.03674133692849 18.651232583754933, -62.60863428158449 18.596062759185862 M-62.60863428158449 18.596062759185862 C-63.06933434874047 18.521580345110465, -63.53003441589645 18.447097931035067, -63.79516178815073 18.404234193582475 M-62.60863428158449 18.596062759185862 C-63.05424416132656 18.524020009585396, -63.49985404106863 18.451977259984925, -63.79516178815073 18.404234193582475 M-63.79516178815073 18.404234193582475 C-64.09597208695622 18.33557620585077, -64.39678238576171 18.266918218119066, -64.96696094830325 18.136778681981802 M-63.79516178815073 18.404234193582475 C-64.07409666679004 18.340569127753245, -64.35303154542935 18.276904061924014, -64.96696094830325 18.136778681981802 M-64.96696094830325 18.136778681981802 C-65.4248188118805 18.000888871417047, -65.88267667545773 17.86499906085229, -66.11921658794287 17.79479525645004 M-64.96696094830325 18.136778681981802 C-65.35247820170014 18.022359184794965, -65.73799545509702 17.907939687608128, -66.11921658794287 17.79479525645004 M-66.11921658794287 17.79479525645004 C-66.46885180286857 17.666126265364888, -66.81848701779428 17.53745727427973, -67.24719384148827 17.37968920023791 M-66.11921658794287 17.79479525645004 C-66.53243210399599 17.64272812682014, -66.94564762004909 17.49066099719024, -67.24719384148827 17.37968920023791 M-67.24719384148827 17.37968920023791 C-67.5779776170661 17.23326103514167, -67.90876139264394 17.08683287004543, -68.34625760845421 16.893166273170362 M-67.24719384148827 17.37968920023791 C-67.52205015940145 17.25801846162073, -67.79690647731462 17.13634772300355, -68.34625760845421 16.893166273170362 M-68.34625760845421 16.893166273170362 C-68.65815012638609 16.730452146341996, -68.97004264431796 16.56773801951363, -69.41189160007383 16.337225702313557 M-68.34625760845421 16.893166273170362 C-68.71599800321664 16.700272946052827, -69.08573839797909 16.50737961893529, -69.41189160007383 16.337225702313557 M-69.41189160007383 16.337225702313557 C-69.72475963086941 16.147563263428637, -70.03762766166501 15.957900824543716, -70.43971689769778 15.714151966722019 M-69.41189160007383 16.337225702313557 C-69.64280498377943 16.19724465211356, -69.87371836748501 16.05726360191356, -70.43971689769778 15.714151966722019 M-70.43971689769778 15.714151966722019 C-70.78924439004426 15.47033671886239, -71.13877188239074 15.22652147100276, -71.42550994671029 15.026505410024189 M-70.43971689769778 15.714151966722019 C-70.70408775283626 15.529738302607285, -70.96845860797472 15.345324638492551, -71.42550994671029 15.026505410024189 M-71.42550994671029 15.026505410024189 C-71.70368650640175 14.804667006259393, -71.98186306609321 14.582828602494597, -72.36521991202103 14.277111719421274 M-71.42550994671029 15.026505410024189 C-71.7787569032287 14.744800362497061, -72.13200385974712 14.463095314969934, -72.36521991202103 14.277111719421274 M-72.36521991202103 14.277111719421274 C-72.64275912374247 14.025057950621013, -72.9202983354639 13.773004181820752, -73.25498532381536 13.469050314332401 M-72.36521991202103 14.277111719421274 C-72.58173051948286 14.0804825142812, -72.79824112694469 13.883853309141127, -73.25498532381536 13.469050314332401 M-73.25498532381536 13.469050314332401 C-73.42382786772525 13.29470652551478, -73.59267041163515 13.12036273669716, -74.09114994516217 12.60564169239969 M-73.25498532381536 13.469050314332401 C-73.47459311321302 13.2422872416445, -73.69420090261067 13.015524168956595, -74.09114994516217 12.60564169239969 M-74.09114994516217 12.60564169239969 C-74.38481679221974 12.260683903728903, -74.67848363927729 11.915726115058119, -74.87027779627556 11.690433784851257 M-74.09114994516217 12.60564169239969 C-74.28926957955784 12.372919096511989, -74.48738921395349 12.14019650062429, -74.87027779627556 11.690433784851257 M-74.87027779627556 11.690433784851257 C-75.09862439963929 11.384470139147384, -75.32697100300301 11.078506493443513, -75.58916727369292 10.727187377290688 M-74.87027779627556 11.690433784851257 C-75.1335720887987 11.337643419473755, -75.39686638132183 10.984853054096252, -75.58916727369292 10.727187377290688 M-75.58916727369292 10.727187377290688 C-75.79401355173486 10.41248848529063, -75.9988598297768 10.097789593290573, -76.24486430635024 9.719860655822355 M-75.58916727369292 10.727187377290688 C-75.74298124561174 10.490887811588701, -75.89679521753055 10.254588245886715, -76.24486430635024 9.719860655822355 M-76.24486430635024 9.719860655822355 C-76.46907695782532 9.321748389135454, -76.6932896093004 8.923636122448551, -76.83467449449375 8.672592942015664 M-76.24486430635024 9.719860655822355 C-76.38190356538713 9.476533574672619, -76.51894282442404 9.23320649352288, -76.83467449449375 8.672592942015664 M-76.83467449449375 8.672592942015664 C-76.9514902643215 8.430022496511258, -77.06830603414926 8.187452051006854, -77.35617418154648 7.5896876835448905 M-76.83467449449375 8.672592942015664 C-77.02085865143924 8.285977556415572, -77.20704280838473 7.89936217081548, -77.35617418154648 7.5896876835448905 M-77.35617418154648 7.5896876835448905 C-77.50825935360523 7.2140343681930235, -77.66034452566396 6.838381052841157, -77.807220413433 6.475594770399529 M-77.35617418154648 7.5896876835448905 C-77.4665402644272 7.317081325046485, -77.5769063473079 7.04447496654808, -77.807220413433 6.475594770399529 M-77.807220413433 6.475594770399529 C-77.94926326299029 6.047784338987655, -78.09130611254757 5.61997390757578, -78.18595974443738 5.334892249331858 M-77.807220413433 6.475594770399529 C-77.95372852500903 6.034335681230088, -78.10023663658505 5.593076592060648, -78.18595974443738 5.334892249331858 M-78.18595974443738 5.334892249331858 C-78.26741078079102 5.024284146612998, -78.34886181714465 4.713676043894137, -78.4908358534092 4.172267511680899 M-78.18595974443738 5.334892249331858 C-78.25337283890971 5.077816903088933, -78.32078593338203 4.8207415568460075, -78.4908358534092 4.172267511680899 M-78.4908358534092 4.172267511680899 C-78.56780578863531 3.777043161896389, -78.64477572386141 3.3818188121118786, -78.72059593902094 2.9924980318758694 M-78.4908358534092 4.172267511680899 C-78.57129652577795 3.7591189644364627, -78.65175719814671 3.345970417192026, -78.72059593902094 2.9924980318758694 M-78.72059593902094 2.9924980318758694 C-78.7618092066083 2.672856066948483, -78.80302247419566 2.353214102021097, -78.87429586779746 1.8004317357690471 M-78.72059593902094 2.9924980318758694 C-78.76248564544436 2.667609740914021, -78.80437535186776 2.3427214499521725, -78.87429586779746 1.8004317357690471 M-78.87429586779746 1.8004317357690471 C-78.9013202816167 1.3795046768199752, -78.92834469543597 0.9585776178709032, -78.9513040537629 0.6009670794685367 M-78.87429586779746 1.8004317357690471 C-78.89823960936718 1.4274886337802848, -78.9221833509369 1.0545455317915224, -78.9513040537629 0.6009670794685367 M-78.9513040537629 0.6009670794685367 C-78.9513040537629 0.2661877990974736, -78.9513040537629 -0.0685914812735895, -78.9513040537629 -0.6009670794685276 M-78.9513040537629 0.6009670794685367 C-78.9513040537629 0.28536264199310046, -78.9513040537629 -0.030241795482335743, -78.9513040537629 -0.6009670794685276 M-78.9513040537629 -0.6009670794685276 C-78.93499788389052 -0.8549488373342755, -78.91869171401814 -1.1089305952000235, -78.87429586779747 -1.8004317357690214 M-78.9513040537629 -0.6009670794685276 C-78.92676847950457 -0.9831284533009323, -78.90223290524627 -1.3652898271333371, -78.87429586779747 -1.8004317357690214 M-78.87429586779747 -1.8004317357690214 C-78.83324030410468 -2.118850580432234, -78.7921847404119 -2.437269425095446, -78.72059593902094 -2.9924980318758605 M-78.87429586779747 -1.8004317357690214 C-78.82776307246978 -2.161330907390795, -78.78123027714209 -2.5222300790125685, -78.72059593902094 -2.9924980318758605 M-78.72059593902094 -2.9924980318758605 C-78.66457677650627 -3.280144591734534, -78.6085576139916 -3.567791151593208, -78.4908358534092 -4.17226751168089 M-78.72059593902094 -2.9924980318758605 C-78.63184846000681 -3.44819757982712, -78.54310098099266 -3.9038971277783796, -78.4908358534092 -4.17226751168089 M-78.4908358534092 -4.17226751168089 C-78.40612069763166 -4.4953231164413685, -78.32140554185413 -4.818378721201847, -78.18595974443738 -5.334892249331849 M-78.4908358534092 -4.17226751168089 C-78.4040623403501 -4.503172524853699, -78.317288827291 -4.834077538026509, -78.18595974443738 -5.334892249331849 M-78.18595974443738 -5.334892249331849 C-78.09993947510685 -5.59397159508672, -78.01391920577633 -5.853050940841591, -77.80722041343301 -6.475594770399505 M-78.18595974443738 -5.334892249331849 C-78.08807691309818 -5.629699741814294, -77.99019408175896 -5.9245072342967395, -77.80722041343301 -6.475594770399505 M-77.80722041343301 -6.475594770399505 C-77.70754132229219 -6.721804052681466, -77.60786223115137 -6.968013334963427, -77.35617418154649 -7.589687683544882 M-77.80722041343301 -6.475594770399505 C-77.64453408016726 -6.877433158892212, -77.4818477469015 -7.279271547384918, -77.35617418154649 -7.589687683544882 M-77.35617418154649 -7.589687683544882 C-77.21672656754173 -7.879253637726735, -77.07727895353696 -8.168819591908587, -76.83467449449375 -8.672592942015655 M-77.35617418154649 -7.589687683544882 C-77.16510510111729 -7.9864467172795175, -76.97403602068809 -8.383205751014152, -76.83467449449375 -8.672592942015655 M-76.83467449449375 -8.672592942015655 C-76.63018604338538 -9.035682893659619, -76.42569759227699 -9.398772845303583, -76.24486430635024 -9.719860655822348 M-76.83467449449375 -8.672592942015655 C-76.60376790069716 -9.082590981129552, -76.37286130690059 -9.49258902024345, -76.24486430635024 -9.719860655822348 M-76.24486430635024 -9.719860655822348 C-76.05070614093718 -10.018139736664331, -75.85654797552412 -10.316418817506316, -75.58916727369292 -10.727187377290681 M-76.24486430635024 -9.719860655822348 C-75.998940608037 -10.097665496190903, -75.75301690972378 -10.475470336559459, -75.58916727369292 -10.727187377290681 M-75.58916727369292 -10.727187377290681 C-75.41771981668714 -10.95691135049378, -75.24627235968136 -11.186635323696878, -74.87027779627556 -11.690433784851251 M-75.58916727369292 -10.727187377290681 C-75.34552000122673 -11.053652525672234, -75.10187272876053 -11.380117674053785, -74.87027779627556 -11.690433784851251 M-74.87027779627556 -11.690433784851251 C-74.68015200286654 -11.913766360253609, -74.49002620945751 -12.137098935655967, -74.09114994516217 -12.605641692399683 M-74.87027779627556 -11.690433784851251 C-74.6346957172862 -11.967161899832194, -74.39911363829684 -12.243890014813136, -74.09114994516217 -12.605641692399683 M-74.09114994516217 -12.605641692399683 C-73.88677121535866 -12.816679510727582, -73.68239248555516 -13.02771732905548, -73.25498532381538 -13.469050314332382 M-74.09114994516217 -12.605641692399683 C-73.85054994981543 -12.854080941222174, -73.60994995446869 -13.102520190044666, -73.25498532381538 -13.469050314332382 M-73.25498532381538 -13.469050314332382 C-72.98296538904668 -13.716091621836236, -72.71094545427799 -13.96313292934009, -72.36521991202105 -14.277111719421258 M-73.25498532381538 -13.469050314332382 C-72.96273041243523 -13.734468492206606, -72.6704755010551 -13.99988667008083, -72.36521991202105 -14.277111719421258 M-72.36521991202105 -14.277111719421258 C-72.0490566197981 -14.529243531510511, -71.73289332757516 -14.781375343599764, -71.4255099467103 -15.026505410024182 M-72.36521991202105 -14.277111719421258 C-72.17678310541493 -14.427385058175624, -71.98834629880879 -14.577658396929987, -71.4255099467103 -15.026505410024182 M-71.4255099467103 -15.026505410024182 C-71.1765505583541 -15.200168702063248, -70.9275911699979 -15.373831994102314, -70.43971689769779 -15.714151966722005 M-71.4255099467103 -15.026505410024182 C-71.0940574595856 -15.25771231669546, -70.7626049724609 -15.48891922336674, -70.43971689769779 -15.714151966722005 M-70.43971689769779 -15.714151966722005 C-70.07250436880815 -15.936758359715258, -69.7052918399185 -16.159364752708512, -69.41189160007383 -16.33722570231355 M-70.43971689769779 -15.714151966722005 C-70.2083265162159 -15.85442217577714, -69.97693613473402 -15.994692384832277, -69.41189160007383 -16.33722570231355 M-69.41189160007383 -16.33722570231355 C-69.06897081153882 -16.516127258041024, -68.7260500230038 -16.695028813768495, -68.34625760845422 -16.89316627317036 M-69.41189160007383 -16.33722570231355 C-69.05925763261493 -16.521194617264026, -68.70662366515603 -16.705163532214502, -68.34625760845422 -16.89316627317036 M-68.34625760845422 -16.89316627317036 C-68.01639471359415 -17.039186791689797, -67.68653181873408 -17.185207310209236, -67.24719384148827 -17.379689200237905 M-68.34625760845422 -16.89316627317036 C-67.92502666717867 -17.07963271550113, -67.50379572590313 -17.2660991578319, -67.24719384148827 -17.379689200237905 M-67.24719384148827 -17.379689200237905 C-66.99909388702724 -17.4709922768904, -66.75099393256622 -17.562295353542897, -66.1192165879429 -17.794795256450033 M-67.24719384148827 -17.379689200237905 C-66.82717702199821 -17.534259272403165, -66.40716020250817 -17.688829344568422, -66.1192165879429 -17.794795256450033 M-66.1192165879429 -17.794795256450033 C-65.84078325083381 -17.8774328093776, -65.56234991372473 -17.960070362305164, -64.96696094830328 -18.136778681981795 M-66.1192165879429 -17.794795256450033 C-65.7596363551504 -17.901516782067688, -65.40005612235791 -18.008238307685343, -64.96696094830328 -18.136778681981795 M-64.96696094830328 -18.136778681981795 C-64.5431061630867 -18.233520770796517, -64.11925137787013 -18.330262859611242, -63.795161788150736 -18.40423419358247 M-64.96696094830328 -18.136778681981795 C-64.54839527559737 -18.23231356538064, -64.12982960289148 -18.327848448779488, -63.795161788150736 -18.40423419358247 M-63.795161788150736 -18.40423419358247 C-63.42101163455672 -18.464723888837778, -63.0468614809627 -18.525213584093084, -62.6086342815845 -18.596062759185862 M-63.795161788150736 -18.40423419358247 C-63.33050797750413 -18.479355818243697, -62.86585416685753 -18.554477442904922, -62.6086342815845 -18.596062759185862 M-62.6086342815845 -18.596062759185862 C-62.29577689577716 -18.62624373492864, -61.98291950996982 -18.65642471067142, -61.412254124638366 -18.711476114068805 M-62.6086342815845 -18.596062759185862 C-62.301329862118536 -18.62570804694411, -61.99402544265257 -18.65535333470235, -61.412254124638366 -18.711476114068805 M-61.412254124638366 -18.711476114068805 C-60.99916936058535 -18.72472293843127, -60.586084596532324 -18.737969762793735, -60.21093750000001 -18.75 M-61.412254124638366 -18.711476114068805 C-60.98258768176587 -18.72525468059673, -60.552921238893376 -18.739033247124656, -60.21093750000001 -18.75 M-60.21093750000001 -18.75 C-60.21093750000001 -18.75, -60.21093750000001 -18.75, -60.2109375 -18.75 M-60.21093750000001 -18.75 C-60.21093750000001 -18.75, -60.2109375 -18.75, -60.2109375 -18.75" stroke="#5e8fc4" stroke-width="1.3" fill="none" stroke-dasharray="0 0" style="fill:#e8f1fb !important;stroke:#5e8fc4 !important"/></g><g class="label" style="color:#102a43 !important" transform="translate(-66.7734375, -11.25)"><rect/><foreignObject width="133.546875" height="22.5"><div style="color: rgb(16, 42, 67) !important; display: table-cell; white-space: nowrap; line-height: 1.5; max-width: 200px; text-align: center;" xmlns="http://www.w3.org/1999/xhtml"><span style="color:#102a43 !important" class="nodeLabel"><p>You send a message</p></span></div></foreignObject></g></g><g class="node default step" id="my-svg-flowchart-Route-2" data-look="classic" transform="translate(270.1484375, 133)"><rect class="basic label-container" style="fill:#f5f5f7 !important;stroke:#86868b !important" x="-111.296875" y="-37.5" width="222.59375" height="75"/><g class="label" style="color:#1d1d1f !important" transform="translate(-81.296875, -22.5)"><rect/><foreignObject width="162.59375" height="45"><div style="color: rgb(29, 29, 31) !important; display: table-cell; white-space: nowrap; line-height: 1.5; max-width: 200px; text-align: center;" xmlns="http://www.w3.org/1999/xhtml"><span style="color:#1d1d1f !important" class="nodeLabel"><p>1. Decide which memory<br />could help</p></span></div></foreignObject></g></g><g class="node default step" id="my-svg-flowchart-Understand-4" data-look="classic" transform="translate(270.1484375, 258)"><rect class="basic label-container" style="fill:#f5f5f7 !important;stroke:#86868b !important" x="-103.7734375" y="-37.5" width="207.546875" height="75"/><g class="label" style="color:#1d1d1f !important" transform="translate(-73.7734375, -22.5)"><rect/><foreignObject width="147.546875" height="45"><div style="color: rgb(29, 29, 31) !important; display: table-cell; white-space: nowrap; line-height: 1.5; max-width: 200px; text-align: center;" xmlns="http://www.w3.org/1999/xhtml"><span style="color:#1d1d1f !important" class="nodeLabel"><p>2. Create one reusable<br />meaning vector</p></span></div></foreignObject></g></g><g class="node default step" id="my-svg-flowchart-Retrieve-6" data-look="classic" transform="translate(270.1484375, 383)"><rect class="basic label-container" style="fill:#f5f5f7 !important;stroke:#86868b !important" x="-100.6328125" y="-37.5" width="201.265625" height="75"/><g class="label" style="color:#1d1d1f !important" transform="translate(-70.6328125, -22.5)"><rect/><foreignObject width="141.265625" height="45"><div style="color: rgb(29, 29, 31) !important; display: table-cell; white-space: nowrap; line-height: 1.5; max-width: 200px; text-align: center;" xmlns="http://www.w3.org/1999/xhtml"><span style="color:#1d1d1f !important" class="nodeLabel"><p>3. Retrieve permitted,<br />relevant memories</p></span></div></foreignObject></g></g><g class="node default step" id="my-svg-flowchart-Curate-8" data-look="classic" transform="translate(487.55859375, 508)"><rect class="basic label-container" style="fill:#f5f5f7 !important;stroke:#86868b !important" x="-96.46875" y="-37.5" width="192.9375" height="75"/><g class="label" style="color:#1d1d1f !important" transform="translate(-66.46875, -22.5)"><rect/><foreignObject width="132.9375" height="45"><div style="color: rgb(29, 29, 31) !important; display: table-cell; white-space: nowrap; line-height: 1.5; max-width: 200px; text-align: center;" xmlns="http://www.w3.org/1999/xhtml"><span style="color:#1d1d1f !important" class="nodeLabel"><p>4. Rank, deduplicate<br />and limit context</p></span></div></foreignObject></g></g><g class="node default step" id="my-svg-flowchart-Answer-10" data-look="classic" transform="translate(553.29296875, 644.25)"><rect class="basic label-container" style="fill:#f5f5f7 !important;stroke:#86868b !important" x="-130" y="-48.75" width="260" height="97.5"/><g class="label" style="color:#1d1d1f !important" transform="translate(-100, -33.75)"><rect/><foreignObject width="200" height="67.5"><div style="color: rgb(29, 29, 31) !important; display: table; white-space: break-spaces; line-height: 1.5; max-width: 200px; text-align: center; width: 200px;" xmlns="http://www.w3.org/1999/xhtml"><span style="color:#1d1d1f !important" class="nodeLabel"><p>5. Assistant answers<br />memory is data, not instructions</p></span></div></foreignObject></g></g><g class="node default store" id="my-svg-flowchart-Short-13" data-look="classic" transform="translate(155.9375, 1076.75)"><rect class="basic label-container" style="fill:#eef7ee !important;stroke:#5f9562 !important" x="-112.9375" y="-60" width="225.875" height="120"/><g class="label" style="color:#183b1b !important" transform="translate(-82.9375, -45)"><rect/><foreignObject width="165.875" height="90"><div style="color: rgb(24, 59, 27) !important; display: table-cell; white-space: nowrap; line-height: 1.5; max-width: 200px; text-align: center;" xmlns="http://www.w3.org/1999/xhtml"><span style="color:#183b1b !important" class="nodeLabel"><p>Short term<br />LLM context window<br />Session working memory<br />Semantic cache</p></span></div></foreignObject></g></g><g class="node default store" id="my-svg-flowchart-Long-14" data-look="classic" transform="translate(461.8203125, 1076.75)"><rect class="basic label-container" style="fill:#eef7ee !important;stroke:#5f9562 !important" x="-130" y="-93.75" width="260" height="187.5"/><g class="label" style="color:#183b1b !important" transform="translate(-100, -78.75)"><rect/><foreignObject width="200" height="157.5"><div style="color: rgb(24, 59, 27) !important; display: table; white-space: break-spaces; line-height: 1.5; max-width: 200px; text-align: center; width: 200px;" xmlns="http://www.w3.org/1999/xhtml"><span style="color:#183b1b !important" class="nodeLabel"><p>Long term<br />Procedural / workflow · Toolbox · Entity<br />Knowledge base · Persona · Semantic<br />Episodic · Summaries · Conversations</p></span></div></foreignObject></g></g><g class="node default step" id="my-svg-flowchart-Save-20" data-look="classic" transform="translate(553.29296875, 814.25)"><rect class="basic label-container" style="fill:#f5f5f7 !important;stroke:#86868b !important" x="-130" y="-48.75" width="260" height="97.5"/><g class="label" style="color:#1d1d1f !important" transform="translate(-100, -33.75)"><rect/><foreignObject width="200" height="67.5"><div style="color: rgb(29, 29, 31) !important; display: table; white-space: break-spaces; line-height: 1.5; max-width: 200px; text-align: center; width: 200px;" xmlns="http://www.w3.org/1999/xhtml"><span style="color:#1d1d1f !important" class="nodeLabel"><p>6. Auto-save whatever was<br />classified as worth remembering</p></span></div></foreignObject></g></g><g class="node default note" id="my-svg-flowchart-Control-23" data-look="classic" transform="translate(315.3515625, 1316.75)"><rect class="basic label-container" style="fill:#f1edff !important;stroke:#8872c6 !important" x="-130" y="-71.25" width="260" height="142.5"/><g class="label" style="color:#2e2450 !important" transform="translate(-100, -56.25)"><rect/><foreignObject width="200" height="112.5"><div style="color: rgb(46, 36, 80) !important; display: table; white-space: break-spaces; line-height: 1.5; max-width: 200px; text-align: center; width: 200px;" xmlns="http://www.w3.org/1999/xhtml"><span style="color:#2e2450 !important" class="nodeLabel"><p>Inspect short-term state<br />View, correct, export or delete durable memory<br />same path for what auto-save wrote</p></span></div></foreignObject></g></g></g></g></g><defs><filter id="my-svg-drop-shadow" height="130%" width="130%"><feDropShadow dx="4" dy="4" stdDeviation="0" flood-opacity="0.06" flood-color="#000000"/></filter></defs><defs><filter id="my-svg-drop-shadow-small" height="150%" width="150%"><feDropShadow dx="2" dy="2" stdDeviation="0" flood-opacity="0.06" flood-color="#000000"/></filter></defs><linearGradient id="my-svg-gradient" gradientUnits="objectBoundingBox" x1="0%" y1="0%" x2="100%" y2="0%"><stop offset="0%" stop-color="hsl(240, 0%, 86.4705882353%)" stop-opacity="1"/><stop offset="100%" stop-color="hsl(120, 0%, 86.4705882353%)" stop-opacity="1"/></linearGradient><text text-anchor="middle" x="345.646484375" y="-25" class="flowchartTitleText">AniOS Memory - Manager Overview</text></svg>