<!-- Render-Inputs-SHA256: 75441ff59295e1017761ad6148fbb5c87f726b9123c5a3f2dd6c3ef0a4731a3e -->
<svg id="my-svg" width="100%" xmlns="http://www.w3.org/2000/svg" xmlns:xlink="http://www.w3.org/1999/xlink" class="flowchart" style="max-width: 766.953px; background-color: transparent;" viewBox="0 -52 766.953369140625 1828" role="graphics-document document" aria-roledescription="flowchart-v2"><style>#my-svg{font-family:Inter,-apple-system,BlinkMacSystemFont,Segoe UI,sans-serif;font-size:15px;fill:#1d1d1f;}@keyframes edge-animation-frame{from{stroke-dashoffset:0;}}@keyframes dash{to{stroke-dashoffset:0;}}#my-svg .edge-animation-slow{stroke-dasharray:9,5!important;stroke-dashoffset:900;animation:dash 50s linear infinite;stroke-linecap:round;}#my-svg .edge-animation-fast{stroke-dasharray:9,5!important;stroke-dashoffset:900;animation:dash 20s linear infinite;stroke-linecap:round;}#my-svg .error-icon{fill:hsl(60, 11.1111111111%, 100%);}#my-svg .error-text{fill:rgb(0, 0, 0);stroke:rgb(0, 0, 0);}#my-svg .edge-thickness-normal{stroke-width:1px;}#my-svg .edge-thickness-thick{stroke-width:3.5px;}#my-svg .edge-pattern-solid{stroke-dasharray:0;}#my-svg .edge-thickness-invisible{stroke-width:0;fill:none;}#my-svg .edge-pattern-dashed{stroke-dasharray:3;}#my-svg .edge-pattern-dotted{stroke-dasharray:2;}#my-svg .marker{fill:#6e6e73;stroke:#6e6e73;}#my-svg .marker.cross{stroke:#6e6e73;}#my-svg svg{font-family:Inter,-apple-system,BlinkMacSystemFont,Segoe UI,sans-serif;font-size:15px;}#my-svg p{margin:0;}#my-svg .label{font-family:Inter,-apple-system,BlinkMacSystemFont,Segoe UI,sans-serif;color:#1d1d1f;}#my-svg .cluster-label text{fill:rgb(0, 0, 0);}#my-svg .cluster-label span{color:rgb(0, 0, 0);}#my-svg .cluster-label span p{background-color:transparent;}#my-svg .label text,#my-svg span{fill:#1d1d1f;color:#1d1d1f;}#my-svg .node rect,#my-svg .node circle,#my-svg .node ellipse,#my-svg .node polygon,#my-svg .node path{fill:#f5f5f7;stroke:hsl(240, 0%, 86.4705882353%);stroke-width:1px;}#my-svg .rough-node .label text,#my-svg .node .label text,#my-svg .image-shape .label,#my-svg .icon-shape .label{text-anchor:middle;}#my-svg .node .katex path{fill:#000;stroke:#000;stroke-width:1px;}#my-svg .rough-node .label,#my-svg .node .label,#my-svg .image-shape .label,#my-svg .icon-shape .label{text-align:center;}#my-svg .node.clickable{cursor:pointer;}#my-svg .root .anchor path{fill:#6e6e73!important;stroke-width:0;stroke:#6e6e73;}#my-svg .arrowheadPath{fill:#000000;}#my-svg .edgePath .path{stroke:#6e6e73;stroke-width:1px;}#my-svg .flowchart-link{stroke:#6e6e73;fill:none;}#my-svg .edgeLabel{background-color:hsl(120, 11.1111111111%, 96.4705882353%);text-align:center;}#my-svg .edgeLabel p{background-color:hsl(120, 11.1111111111%, 96.4705882353%);}#my-svg .edgeLabel rect{opacity:0.5;background-color:hsl(120, 11.1111111111%, 96.4705882353%);fill:hsl(120, 11.1111111111%, 96.4705882353%);}#my-svg .labelBkg{background-color:rgba(245, 247, 245, 0.5);}#my-svg .cluster rect{fill:hsl(60, 11.1111111111%, 100%);stroke:hsl(60, 0%, 90%);stroke-width:1px;}#my-svg .cluster text{fill:rgb(0, 0, 0);}#my-svg .cluster span{color:rgb(0, 0, 0);}#my-svg div.mermaidTooltip{position:absolute;text-align:center;max-width:200px;padding:2px;font-family:Inter,-apple-system,BlinkMacSystemFont,Segoe UI,sans-serif;font-size:12px;background:hsl(60, 11.1111111111%, 100%);border:1px solid hsl(60, 0%, 90%);border-radius:2px;pointer-events:none;z-index:100;}#my-svg .flowchartTitleText{text-anchor:middle;font-size:18px;fill:#1d1d1f;}#my-svg rect.text{fill:none;stroke-width:0;}#my-svg .icon-shape,#my-svg .image-shape{background-color:hsl(120, 11.1111111111%, 96.4705882353%);text-align:center;}#my-svg .icon-shape p,#my-svg .image-shape p{background-color:hsl(120, 11.1111111111%, 96.4705882353%);padding:2px;}#my-svg .icon-shape .label rect,#my-svg .image-shape .label rect{opacity:0.5;background-color:hsl(120, 11.1111111111%, 96.4705882353%);fill:hsl(120, 11.1111111111%, 96.4705882353%);}#my-svg .label-icon{display:inline-block;height:1em;overflow:visible;vertical-align:-0.125em;}#my-svg .node .label-icon path{fill:currentColor;stroke:revert;stroke-width:revert;}#my-svg .node .neo-node{stroke:hsl(240, 0%, 86.4705882353%);}#my-svg [data-look="neo"].node rect,#my-svg [data-look="neo"].cluster rect,#my-svg [data-look="neo"].node polygon{stroke:url(#my-svg-gradient);filter:drop-shadow( 1px 2px 2px rgba(185,185,185,1));}#my-svg [data-look="neo"].swimlane.cluster rect{filter:none;}#my-svg [data-look="neo"].node path{stroke:url(#my-svg-gradient);stroke-width:1px;}#my-svg [data-look="neo"].node .outer-path{filter:drop-shadow( 1px 2px 2px rgba(185,185,185,1));}#my-svg [data-look="neo"].node .neo-line path{stroke:hsl(240, 0%, 86.4705882353%);filter:none;}#my-svg [data-look="neo"].node circle{stroke:url(#my-svg-gradient);filter:drop-shadow( 1px 2px 2px rgba(185,185,185,1));}#my-svg [data-look="neo"].node circle .state-start{fill:#000000;}#my-svg [data-look="neo"].icon-shape .icon{fill:url(#my-svg-gradient);filter:drop-shadow( 1px 2px 2px rgba(185,185,185,1));}#my-svg [data-look="neo"].icon-shape .icon-neo path{stroke:url(#my-svg-gradient);filter:drop-shadow( 1px 2px 2px rgba(185,185,185,1));}#my-svg :root{--mermaid-font-family:Inter,-apple-system,BlinkMacSystemFont,Segoe UI,sans-serif;}#my-svg .person&gt;*{fill:rgb(232, 241, 251)!important;stroke:rgb(94, 143, 196)!important;color:rgb(16, 42, 67)!important;}#my-svg .person span{fill:rgb(232, 241, 251)!important;stroke:rgb(94, 143, 196)!important;color:rgb(16, 42, 67)!important;}#my-svg .person tspan{fill:rgb(16, 42, 67)!important;}#my-svg .step&gt;*{fill:rgb(245, 245, 247)!important;stroke:rgb(134, 134, 139)!important;color:rgb(29, 29, 31)!important;}#my-svg .step span{fill:rgb(245, 245, 247)!important;stroke:rgb(134, 134, 139)!important;color:rgb(29, 29, 31)!important;}#my-svg .step tspan{fill:rgb(29, 29, 31)!important;}#my-svg .gate&gt;*{fill:rgb(255, 243, 205)!important;stroke:rgb(183, 139, 32)!important;color:rgb(77, 57, 0)!important;}#my-svg .gate span{fill:rgb(255, 243, 205)!important;stroke:rgb(183, 139, 32)!important;color:rgb(77, 57, 0)!important;}#my-svg .gate tspan{fill:rgb(77, 57, 0)!important;}#my-svg .store&gt;*{fill:rgb(238, 247, 238)!important;stroke:rgb(95, 149, 98)!important;color:rgb(24, 59, 27)!important;}#my-svg .store span{fill:rgb(238, 247, 238)!important;stroke:rgb(95, 149, 98)!important;color:rgb(24, 59, 27)!important;}#my-svg .store tspan{fill:rgb(24, 59, 27)!important;}#my-svg .note&gt;*{fill:rgb(241, 237, 255)!important;stroke:rgb(136, 114, 198)!important;color:rgb(46, 36, 80)!important;}#my-svg .note span{fill:rgb(241, 237, 255)!important;stroke:rgb(136, 114, 198)!important;color:rgb(46, 36, 80)!important;}#my-svg .note tspan{fill:rgb(46, 36, 80)!important;}</style><g><marker id="my-svg_flowchart-v2-pointEnd" class="marker flowchart-v2" viewBox="0 0 10 10" refX="5" refY="5" markerUnits="userSpaceOnUse" markerWidth="8" markerHeight="8" orient="auto"><path d="M 0 0 L 10 5 L 0 10 z" class="arrowMarkerPath" style="stroke-width: 1; stroke-dasharray: 1, 0;"/></marker><marker id="my-svg_flowchart-v2-pointStart" class="marker flowchart-v2" viewBox="0 0 10 10" refX="4.5" refY="5" markerUnits="userSpaceOnUse" markerWidth="8" markerHeight="8" orient="auto"><path d="M 0 5 L 10 10 L 10 0 z" class="arrowMarkerPath" style="stroke-width: 1; stroke-dasharray: 1, 0;"/></marker><marker id="my-svg_flowchart-v2-pointEnd-margin" class="marker flowchart-v2" viewBox="0 0 11.5 14" refX="11.5" refY="7" markerUnits="userSpaceOnUse" markerWidth="10.5" markerHeight="14" orient="auto"><path d="M 0 0 L 11.5 7 L 0 14 z" class="arrowMarkerPath" style="stroke-width: 0; stroke-dasharray: 1, 0;"/></marker><marker id="my-svg_flowchart-v2-pointStart-margin" class="marker flowchart-v2" viewBox="0 0 11.5 14" refX="1" refY="7" markerUnits="userSpaceOnUse" markerWidth="11.5" markerHeight="14" orient="auto"><polygon points="0,7 11.5,14 11.5,0" class="arrowMarkerPath" style="stroke-width: 0; stroke-dasharray: 1, 0;"/></marker><marker id="my-svg_flowchart-v2-circleEnd" class="marker flowchart-v2" viewBox="0 0 10 10" refX="11" refY="5" markerUnits="userSpaceOnUse" markerWidth="11" markerHeight="11" orient="auto"><circle cx="5" cy="5" r="5" class="arrowMarkerPath" style="stroke-width: 1; stroke-dasharray: 1, 0;"/></marker><marker id="my-svg_flowchart-v2-circleStart" class="marker flowchart-v2" viewBox="0 0 10 10" refX="-1" refY="5" markerUnits="userSpaceOnUse" markerWidth="11" markerHeight="11" orient="auto"><circle cx="5" cy="5" r="5" class="arrowMarkerPath" style="stroke-width: 1; stroke-dasharray: 1, 0;"/></marker><marker id="my-svg_flowchart-v2-circleEnd-margin" class="marker flowchart-v2" viewBox="0 0 10 10" refY="5" refX="12.25" markerUnits="userSpaceOnUse" markerWidth="14" markerHeight="14" orient="auto"><circle cx="5" cy="5" r="5" class="arrowMarkerPath" style="stroke-width: 0; stroke-dasharray: 1, 0;"/></marker><marker id="my-svg_flowchart-v2-circleStart-margin" class="marker flowchart-v2" viewBox="0 0 10 10" refX="-2" refY="5" markerUnits="userSpaceOnUse" markerWidth="14" markerHeight="14" orient="auto"><circle cx="5" cy="5" r="5" class="arrowMarkerPath" style="stroke-width: 0; stroke-dasharray: 1, 0;"/></marker><marker id="my-svg_flowchart-v2-crossEnd" class="marker cross flowchart-v2" viewBox="0 0 11 11" refX="12" refY="5.2" markerUnits="userSpaceOnUse" markerWidth="11" markerHeight="11" orient="auto"><path d="M 1,1 l 9,9 M 10,1 l -9,9" class="arrowMarkerPath" style="stroke-width: 2; stroke-dasharray: 1, 0;"/></marker><marker id="my-svg_flowchart-v2-crossStart" class="marker cross flowchart-v2" viewBox="0 0 11 11" refX="-1" refY="5.2" markerUnits="userSpaceOnUse" markerWidth="11" markerHeight="11" orient="auto"><path d="M 1,1 l 9,9 M 10,1 l -9,9" class="arrowMarkerPath" style="stroke-width: 2; stroke-dasharray: 1, 0;"/></marker><marker id="my-svg_flowchart-v2-crossEnd-margin" class="marker cross flowchart-v2" viewBox="0 0 15 15" refX="17.7" refY="7.5" markerUnits="userSpaceOnUse" markerWidth="12" markerHeight="12" orient="auto"><path d="M 1,1 L 14,14 M 1,14 L 14,1" class="arrowMarkerPath" style="stroke-width: 2.5;"/></marker><marker id="my-svg_flowchart-v2-crossStart-margin" class="marker cross flowchart-v2" viewBox="0 0 15 15" refX="-3.5" refY="7.5" markerUnits="userSpaceOnUse" markerWidth="12" markerHeight="12" orient="auto"><path d="M 1,1 L 14,14 M 1,14 L 14,1" class="arrowMarkerPath" style="stroke-width: 2.5; stroke-dasharray: 1, 0;"/></marker><g class="root"><g class="clusters"/><g class="edgePaths"><path d="M364.653,1308L364.653,1314.042C364.653,1320.083,364.653,1332.167,367.239,1343.648C369.826,1355.129,374.999,1366.008,377.586,1371.448L380.173,1376.888" id="my-svg-L_Consent_LongTerm_0" class="edge-thickness-normal edge-pattern-dotted edge-thickness-normal edge-pattern-solid flowchart-link" style=";" data-edge="true" data-et="edge" data-id="L_Consent_LongTerm_0" data-points="W3sieCI6MzY0LjY1MjYwMzE0OTQxNDA2LCJ5IjoxMzA4fSx7IngiOjM2NC42NTI2MDMxNDk0MTQwNiwieSI6MTM0NC4yNX0seyJ4IjozODEuODkwMzg0Mzk5NDE0MSwieSI6MTM4MC41fV0=" data-look="classic" marker-end="url(#my-svg_flowchart-v2-pointEnd)"/><path d="M438.953,1620.5L438.953,1624.667C438.953,1628.833,438.953,1637.167,438.953,1645.5C438.953,1653.833,438.953,1662.167,438.953,1666.333L438.953,1670.5" id="my-svg-L_Stores_Privacy_0" class="edge-thickness-normal edge-pattern-solid edge-thickness-normal edge-pattern-solid flowchart-link" style=";" data-edge="true" data-et="edge" data-id="L_Stores_Privacy_0" data-points="W3sieCI6NDM4Ljk1MzM4NDM5OTQxNDA2LCJ5IjoxNjIwLjV9LHsieCI6NDM4Ljk1MzM4NDM5OTQxNDA2LCJ5IjoxNjQ1LjV9LHsieCI6NDM4Ljk1MzM4NDM5OTQxNDA2LCJ5IjoxNjcwLjV9XQ==" data-look="classic"/><path d="M87.965,1140.5L89.463,1112.792C90.96,1085.083,93.956,1029.667,96.949,996.559C99.943,963.452,102.934,952.653,104.429,947.254L105.925,941.855" id="my-svg-L_User_Step1_0" class="edge-thickness-normal edge-pattern-solid edge-thickness-normal edge-pattern-solid flowchart-link" style=";" data-edge="true" data-et="edge" data-id="L_User_Step1_0" data-points="W3sieCI6ODcuOTY0ODE1MDg4MjIwNTUsInkiOjExNDAuNX0seyJ4Ijo5Ni45NTEzMDE1NzQ3MDcwMywieSI6OTc0LjI1fSx7IngiOjEwNi45OTI4Njk4MzYxMzY1OCwieSI6OTM4fV0=" data-look="classic" marker-end="url(#my-svg_flowchart-v2-pointEnd)"/><path d="M88.439,938L86.525,944.042C84.61,950.083,80.781,962.167,80.328,995.251C79.875,1028.335,82.798,1082.421,84.26,1109.463L85.722,1136.506" id="my-svg-L_Step5_User_0" class="edge-thickness-normal edge-pattern-solid edge-thickness-normal edge-pattern-solid flowchart-link" style=";" data-edge="true" data-et="edge" data-id="L_Step5_User_0" data-points="W3sieCI6ODguNDM5MjUzODc2MDM2ODQsInkiOjkzOH0seyJ4Ijo3Ni45NTEzMDE1NzQ3MDcwMywieSI6OTc0LjI1fSx7IngiOjg1LjkzNzc4ODA2MTE5MzUyLCJ5IjoxMTQwLjV9XQ==" data-look="classic" marker-end="url(#my-svg_flowchart-v2-pointEnd)"/><path d="M355.334,938L356.887,944.042C358.44,950.083,361.546,962.167,363.1,973.583C364.653,985,364.653,995.75,364.653,1001.125L364.653,1006.5" id="my-svg-L_Step5_Consent_0" class="edge-thickness-normal edge-pattern-dotted edge-thickness-normal edge-pattern-solid flowchart-link" style=";" data-edge="true" data-et="edge" data-id="L_Step5_Consent_0" data-points="W3sieCI6MzU1LjMzNDIyNjkwNzkzNDY0LCJ5Ijo5Mzh9LHsieCI6MzY0LjY1MjYwMzE0OTQxNDA2LCJ5Ijo5NzQuMjV9LHsieCI6MzY0LjY1MjYwMzE0OTQxNDA2LCJ5IjoxMDEwLjV9XQ==" data-look="classic" marker-end="url(#my-svg_flowchart-v2-pointEnd)"/><path d="M406.099,731.243L432.807,771.744C459.515,812.246,512.932,893.248,539.64,964.582C566.348,1035.917,566.348,1097.583,566.348,1159.25C566.348,1220.917,566.348,1282.583,561.843,1318.942C557.339,1355.3,548.329,1366.35,543.825,1371.875L539.32,1377.4" id="my-svg-L_Step3_Stores_0" class="edge-thickness-normal edge-pattern-dotted edge-thickness-normal edge-pattern-solid flowchart-link" style=";" data-edge="true" data-et="edge" data-id="L_Step3_Stores_0" data-points="W3sieCI6NDA2LjA5ODgyNzM2MjA2MDU1LCJ5Ijo3MzEuMjQzMzg1NDEyNDYzM30seyJ4Ijo1NjYuMzQ3OTE1NjQ5NDE0MSwieSI6OTc0LjI1fSx7IngiOjU2Ni4zNDc5MTU2NDk0MTQxLCJ5IjoxMTU5LjI1fSx7IngiOjU2Ni4zNDc5MTU2NDk0MTQxLCJ5IjoxMzQ0LjI1fSx7IngiOjUzNi43OTIzODQzOTk0MTQsInkiOjEzODAuNX1d" data-look="classic" marker-end="url(#my-svg_flowchart-v2-pointEnd)"/></g><g class="edgeLabels"><g class="edgeLabel" transform="translate(364.65260314941406, 1344.25)"><g class="label" data-id="L_Consent_LongTerm_0" transform="translate(-74.90625, -11.25)"><foreignObject width="149.8125" height="22.5"><div xmlns="http://www.w3.org/1999/xhtml" class="labelBkg" style="display: table-cell; white-space: nowrap; line-height: 1.5; max-width: 200px; text-align: center;"><span class="edgeLabel"><p>only after you approve</p></span></div></foreignObject></g></g><g class="edgeLabel"><g class="label" data-id="L_Stores_Privacy_0" transform="translate(0, 0)"><foreignObject width="0" height="0"><div xmlns="http://www.w3.org/1999/xhtml" class="labelBkg" style="display: table-cell; white-space: nowrap; line-height: 1.5; max-width: 200px; text-align: center;"><span class="edgeLabel"></span></div></foreignObject></g></g><g class="edgeLabel"><g class="label" data-id="L_User_Step1_0" transform="translate(0, 0)"><foreignObject width="0" height="0"><div xmlns="http://www.w3.org/1999/xhtml" class="labelBkg" style="display: table-cell; white-space: nowrap; line-height: 1.5; max-width: 200px; text-align: center;"><span class="edgeLabel"></span></div></foreignObject></g></g><g class="edgeLabel"><g class="label" data-id="L_Step5_User_0" transform="translate(0, 0)"><foreignObject width="0" height="0"><div xmlns="http://www.w3.org/1999/xhtml" class="labelBkg" style="display: table-cell; white-space: nowrap; line-height: 1.5; max-width: 200px; text-align: center;"><span class="edgeLabel"></span></div></foreignObject></g></g><g class="edgeLabel" transform="translate(364.65260314941406, 974.25)"><g class="label" data-id="L_Step5_Consent_0" transform="translate(-43.28125, -11.25)"><foreignObject width="86.5625" height="22.5"><div xmlns="http://www.w3.org/1999/xhtml" class="labelBkg" style="display: table-cell; white-space: nowrap; line-height: 1.5; max-width: 200px; text-align: center;"><span class="edgeLabel"><p>may propose</p></span></div></foreignObject></g></g><g class="edgeLabel" transform="translate(566.34792, 1037.09206)"><g class="label" data-id="L_Step3_Stores_0" transform="translate(-17.9453125, -11.25)"><foreignObject width="35.890625" height="22.5"><div xmlns="http://www.w3.org/1999/xhtml" class="labelBkg" style="display: table-cell; white-space: nowrap; line-height: 1.5; max-width: 200px; text-align: center;"><span class="edgeLabel"><p>reads</p></span></div></foreignObject></g></g></g><g class="nodes"><g class="root" transform="translate(110.95338439941406, 1372.5)"><g class="clusters"><g class="cluster" id="my-svg-Stores" data-look="classic"><rect style="" x="8" y="8" width="640" height="240"/><g class="cluster-label" transform="translate(258.2734375, 8)"><foreignObject width="139.453125" height="22.5"><div xmlns="http://www.w3.org/1999/xhtml" style="display: table-cell; white-space: nowrap; line-height: 1.5;"><span class="nodeLabel"><p>Where memories live</p></span></div></foreignObject></g></g></g><g class="edgePaths"/><g class="edgeLabels"/><g class="nodes"><g class="node default store" id="my-svg-flowchart-ShortTerm-12" data-look="classic" transform="translate(173, 128)"><rect class="basic label-container" style="fill:#eef7ee !important;stroke:#5f9562 !important" x="-130" y="-48.75" width="260" height="97.5"/><g class="label" style="color:#183b1b !important" transform="translate(-100, -33.75)"><rect/><foreignObject width="200" height="67.5"><div style="color: rgb(24, 59, 27) !important; display: table; white-space: break-spaces; line-height: 1.5; max-width: 200px; text-align: center; width: 200px;" xmlns="http://www.w3.org/1999/xhtml"><span style="color:#183b1b !important" class="nodeLabel"><p>Short-term · auto-expires<br />scratch notes and a response cache for this chat</p></span></div></foreignObject></g></g><g class="node default store" id="my-svg-flowchart-LongTerm-13" data-look="classic" transform="translate(483, 128)"><rect class="basic label-container" style="fill:#eef7ee !important;stroke:#5f9562 !important" x="-130" y="-82.5" width="260" height="165"/><g class="label" style="color:#183b1b !important" transform="translate(-100, -67.5)"><rect/><foreignObject width="200" height="135"><div style="color: rgb(24, 59, 27) !important; display: table; white-space: break-spaces; line-height: 1.5; max-width: 200px; text-align: center; width: 200px;" xmlns="http://www.w3.org/1999/xhtml"><span style="color:#183b1b !important" class="nodeLabel"><p>Long-term · kept until you delete it<br />who you are and approved facts<br />past events, documents, how-to steps, people</p></span></div></foreignObject></g></g></g></g><g class="root" transform="translate(62.80195236206055, 0)"><g class="clusters"><g class="cluster" id="my-svg-Turn" data-look="classic"><rect style="" x="2.703125" y="8" width="340.59375" height="930"/><g class="cluster-label" transform="translate(6.703125, 8)"><foreignObject width="332.59375" height="22.5"><div xmlns="http://www.w3.org/1999/xhtml" style="display: table-cell; white-space: nowrap; line-height: 1.5;"><span class="nodeLabel"><p>What happens on every message · numbered path</p></span></div></foreignObject></g></g></g><g class="edgePaths"><path d="M173,165.5L173,171.75C173,178,173,190.5,173,202.333C173,214.167,173,225.333,173,230.917L173,236.5" id="my-svg-L_Step1_Step2_0" class="edge-thickness-normal edge-pattern-solid edge-thickness-normal edge-pattern-solid flowchart-link" style=";" data-edge="true" data-et="edge" data-id="L_Step1_Step2_0" data-points="W3sieCI6MTczLCJ5IjoxNjUuNX0seyJ4IjoxNzMsInkiOjIwM30seyJ4IjoxNzMsInkiOjI0MC41fV0=" data-look="classic" marker-end="url(#my-svg_flowchart-v2-pointEnd)"/><path d="M173,360.5L173,366.75C173,373,173,385.5,173,397.333C173,409.167,173,420.333,173,425.917L173,431.5" id="my-svg-L_Step2_Step3_0" class="edge-thickness-normal edge-pattern-solid edge-thickness-normal edge-pattern-solid flowchart-link" style=";" data-edge="true" data-et="edge" data-id="L_Step2_Step3_0" data-points="W3sieCI6MTczLCJ5IjozNjAuNX0seyJ4IjoxNzMsInkiOjM5OH0seyJ4IjoxNzMsInkiOjQzNS41fV0=" data-look="classic" marker-end="url(#my-svg_flowchart-v2-pointEnd)"/><path d="M173,555.5L173,561.75C173,568,173,580.5,173,592.333C173,604.167,173,615.333,173,620.917L173,626.5" id="my-svg-L_Step3_Step4_0" class="edge-thickness-normal edge-pattern-solid edge-thickness-normal edge-pattern-solid flowchart-link" style=";" data-edge="true" data-et="edge" data-id="L_Step3_Step4_0" data-points="W3sieCI6MTczLCJ5Ijo1NTUuNX0seyJ4IjoxNzMsInkiOjU5M30seyJ4IjoxNzMsInkiOjYzMC41fV0=" data-look="classic" marker-end="url(#my-svg_flowchart-v2-pointEnd)"/><path d="M173,728L173,734.25C173,740.5,173,753,173,764.833C173,776.667,173,787.833,173,793.417L173,799" id="my-svg-L_Step4_Step5_0" class="edge-thickness-normal edge-pattern-solid edge-thickness-normal edge-pattern-solid flowchart-link" style=";" data-edge="true" data-et="edge" data-id="L_Step4_Step5_0" data-points="W3sieCI6MTczLCJ5Ijo3Mjh9LHsieCI6MTczLCJ5Ijo3NjUuNX0seyJ4IjoxNzMsInkiOjgwM31d" data-look="classic" marker-end="url(#my-svg_flowchart-v2-pointEnd)"/></g><g class="edgeLabels"><g class="edgeLabel"><g class="label" data-id="L_Step1_Step2_0" transform="translate(0, 0)"><foreignObject width="0" height="0"><div xmlns="http://www.w3.org/1999/xhtml" class="labelBkg" style="display: table-cell; white-space: nowrap; line-height: 1.5; max-width: 200px; text-align: center;"><span class="edgeLabel"></span></div></foreignObject></g></g><g class="edgeLabel"><g class="label" data-id="L_Step2_Step3_0" transform="translate(0, 0)"><foreignObject width="0" height="0"><div xmlns="http://www.w3.org/1999/xhtml" class="labelBkg" style="display: table-cell; white-space: nowrap; line-height: 1.5; max-width: 200px; text-align: center;"><span class="edgeLabel"></span></div></foreignObject></g></g><g class="edgeLabel"><g class="label" data-id="L_Step3_Step4_0" transform="translate(0, 0)"><foreignObject width="0" height="0"><div xmlns="http://www.w3.org/1999/xhtml" class="labelBkg" style="display: table-cell; white-space: nowrap; line-height: 1.5; max-width: 200px; text-align: center;"><span class="edgeLabel"></span></div></foreignObject></g></g><g class="edgeLabel"><g class="label" data-id="L_Step4_Step5_0" transform="translate(0, 0)"><foreignObject width="0" height="0"><div xmlns="http://www.w3.org/1999/xhtml" class="labelBkg" style="display: table-cell; white-space: nowrap; line-height: 1.5; max-width: 200px; text-align: center;"><span class="edgeLabel"></span></div></foreignObject></g></g></g><g class="nodes"><g class="node default step" id="my-svg-flowchart-Step1-1" data-look="classic" transform="translate(173, 105.5)"><rect class="basic label-container" style="fill:#f5f5f7 !important;stroke:#86868b !important" x="-130" y="-60" width="260" height="120"/><g class="label" style="color:#1d1d1f !important" transform="translate(-100, -45)"><rect/><foreignObject width="200" height="90"><div style="color: rgb(29, 29, 31) !important; display: table; white-space: break-spaces; line-height: 1.5; max-width: 200px; text-align: center; width: 200px;" xmlns="http://www.w3.org/1999/xhtml"><span style="color:#1d1d1f !important" class="nodeLabel"><p>1 · Decide which memories could help<br />fast keyword routing, no AI call</p></span></div></foreignObject></g></g><g class="node default step" id="my-svg-flowchart-Step2-2" data-look="classic" transform="translate(173, 300.5)"><rect class="basic label-container" style="fill:#f5f5f7 !important;stroke:#86868b !important" x="-130" y="-60" width="260" height="120"/><g class="label" style="color:#1d1d1f !important" transform="translate(-100, -45)"><rect/><foreignObject width="200" height="90"><div style="color: rgb(29, 29, 31) !important; display: table; white-space: break-spaces; line-height: 1.5; max-width: 200px; text-align: center; width: 200px;" xmlns="http://www.w3.org/1999/xhtml"><span style="color:#1d1d1f !important" class="nodeLabel"><p>2 · Understand the question once<br />a single reusable meaning lookup</p></span></div></foreignObject></g></g><g class="node default step" id="my-svg-flowchart-Step3-3" data-look="classic" transform="translate(173, 495.5)"><rect class="basic label-container" style="fill:#f5f5f7 !important;stroke:#86868b !important" x="-130" y="-60" width="260" height="120"/><g class="label" style="color:#1d1d1f !important" transform="translate(-100, -45)"><rect/><foreignObject width="200" height="90"><div style="color: rgb(29, 29, 31) !important; display: table; white-space: break-spaces; line-height: 1.5; max-width: 200px; text-align: center; width: 200px;" xmlns="http://www.w3.org/1999/xhtml"><span style="color:#1d1d1f !important" class="nodeLabel"><p>3 · Pull only relevant, permitted memories<br />your data only, freshness and expiry checked</p></span></div></foreignObject></g></g><g class="node default step" id="my-svg-flowchart-Step4-4" data-look="classic" transform="translate(173, 679.25)"><rect class="basic label-container" style="fill:#f5f5f7 !important;stroke:#86868b !important" x="-130" y="-48.75" width="260" height="97.5"/><g class="label" style="color:#1d1d1f !important" transform="translate(-100, -33.75)"><rect/><foreignObject width="200" height="67.5"><div style="color: rgb(29, 29, 31) !important; display: table; white-space: break-spaces; line-height: 1.5; max-width: 200px; text-align: center; width: 200px;" xmlns="http://www.w3.org/1999/xhtml"><span style="color:#1d1d1f !important" class="nodeLabel"><p>4 · Keep the best few<br />rank across stores, drop duplicates and overflow</p></span></div></foreignObject></g></g><g class="node default step" id="my-svg-flowchart-Step5-5" data-look="classic" transform="translate(173, 851.75)"><rect class="basic label-container" style="fill:#f5f5f7 !important;stroke:#86868b !important" x="-130" y="-48.75" width="260" height="97.5"/><g class="label" style="color:#1d1d1f !important" transform="translate(-100, -33.75)"><rect/><foreignObject width="200" height="67.5"><div style="color: rgb(29, 29, 31) !important; display: table; white-space: break-spaces; line-height: 1.5; max-width: 200px; text-align: center; width: 200px;" xmlns="http://www.w3.org/1999/xhtml"><span style="color:#1d1d1f !important" class="nodeLabel"><p>5 · Assistant answers<br />memories are treated as facts, never as commands</p></span></div></foreignObject></g></g></g></g><g class="node default person" id="my-svg-flowchart-User-0" data-look="classic" transform="translate(86.95130157470703, 1159.25)"><g class="basic label-container outer-path"><path d="M-60.2109375 -18.75 C-35.51657537848621 -18.75, -10.822213256972418 -18.75, 60.2109375 -18.75 C60.2109375 -18.75, 60.2109375 -18.75, 60.2109375 -18.75 C60.6602988263509 -18.735589856892688, 61.10966015270181 -18.721179713785375, 61.412254124638366 -18.711476114068805 C61.68485586799728 -18.685178551738534, 61.95745761135619 -18.658880989408264, 62.608634281584486 -18.596062759185866 C62.95403840548272 -18.540220499082988, 63.29944252938096 -18.484378238980106, 63.79516178815073 -18.40423419358248 C64.09539999052376 -18.335706783128202, 64.3956381928968 -18.267179372673926, 64.96696094830325 -18.136778681981802 C65.31106802878391 -18.034649506750068, 65.65517510926456 -17.932520331518333, 66.11921658794289 -17.794795256450037 C66.36967099972914 -17.702625717737497, 66.62012541151537 -17.610456179024954, 67.24719384148827 -17.37968920023791 C67.57356543189171 -17.23521417863555, 67.89993702229515 -17.090739157033195, 68.34625760845421 -16.89316627317036 C68.58515974560575 -16.76853118124252, 68.8240618827573 -16.64389608931468, 69.41189160007383 -16.337225702313553 C69.66381196245115 -16.184510098192046, 69.91573232482847 -16.03179449407054, 70.43971689769779 -15.714151966722014 C70.71600069377475 -15.521428350711496, 70.9922844898517 -15.328704734700976, 71.42550994671029 -15.026505410024187 C71.71618756753368 -14.794697742673884, 72.00686518835708 -14.562890075323583, 72.36521991202103 -14.277111719421272 C72.5775133396202 -14.08431244545201, 72.78980676721935 -13.89151317148275, 73.25498532381538 -13.469050314332392 C73.44758265356504 -13.270177758831018, 73.6401799833147 -13.071305203329644, 74.09114994516216 -12.605641692399693 C74.39650233787613 -12.24695739687451, 74.7018547305901 -11.888273101349327, 74.87027779627556 -11.690433784851255 C75.11278218484014 -11.365499996779, 75.35528657340473 -11.040566208706746, 75.58916727369292 -10.727187377290685 C75.799367405562 -10.404263528101097, 76.00956753743108 -10.08133967891151, 76.24486430635024 -9.719860655822346 C76.37033133493837 -9.497081241649793, 76.49579836352652 -9.27430182747724, 76.83467449449375 -8.672592942015662 C76.98159794359897 -8.367503256290481, 77.12852139270417 -8.062413570565301, 77.35617418154648 -7.589687683544889 C77.48795623904317 -7.264183453695307, 77.61973829653986 -6.9386792238457256, 77.807220413433 -6.475594770399527 C77.94969573282205 -6.046481808759072, 78.09217105221111 -5.617368847118617, 78.18595974443738 -5.334892249331864 C78.27781368316576 -4.984613371211723, 78.36966762189412 -4.634334493091583, 78.4908358534092 -4.172267511680897 C78.57335456632886 -3.748551361174555, 78.65587327924852 -3.3248352106682133, 78.72059593902094 -2.9924980318758676 C78.75314348440486 -2.7400656971180233, 78.78569102978877 -2.4876333623601794, 78.87429586779747 -1.8004317357690365 C78.8990379238709 -1.415054240997137, 78.92377997994433 -1.0296767462252376, 78.9513040537629 -0.6009670794685343 C78.9513040537629 -0.14859064642851322, 78.9513040537629 0.3037857866115079, 78.9513040537629 0.6009670794685298 C78.92762626521518 0.9697677484660829, 78.90394847666747 1.338568417463636, 78.87429586779747 1.8004317357690236 C78.81674770952844 2.2467638871344255, 78.7591995512594 2.693096038499828, 78.72059593902094 2.9924980318758543 C78.66849464490399 3.2600271655539914, 78.61639335078704 3.5275562992321285, 78.4908358534092 4.172267511680893 C78.39898761994114 4.522524633170768, 78.30713938647308 4.872781754660642, 78.18595974443738 5.334892249331851 C78.10881856347233 5.567229195620566, 78.03167738250725 5.79956614190928, 77.80722041343301 6.475594770399514 C77.651688781818 6.859760907488149, 77.49615715020298 7.243927044576784, 77.35617418154649 7.589687683544883 C77.23119546805636 7.849208656223224, 77.10621675456623 8.108729628901566, 76.83467449449375 8.672592942015656 C76.71468512970401 8.885646209440564, 76.59469576491426 9.09869947686547, 76.24486430635024 9.719860655822343 C76.0178216233092 10.068659186470306, 75.79077894026817 10.41745771711827, 75.58916727369292 10.727187377290674 C75.32276053164759 11.084148141477941, 75.05635378960226 11.441108905665208, 74.87027779627556 11.690433784851251 C74.62699031267098 11.976213106543163, 74.38370282906642 12.261992428235077, 74.09114994516217 12.605641692399683 C73.77719673480996 12.929824158126277, 73.46324352445775 13.25400662385287, 73.25498532381538 13.469050314332389 C73.00841302800683 13.692980749440272, 72.76184073219827 13.916911184548157, 72.36521991202105 14.27711171942126 C72.03227422093148 14.542627048008244, 71.69932852984194 14.808142376595228, 71.4255099467103 15.026505410024184 C71.20495275712852 15.180356557709585, 70.98439556754673 15.334207705394986, 70.43971689769779 15.714151966722007 C70.18944283468748 15.865869574492502, 69.93916877167719 16.017587182262996, 69.41189160007383 16.337225702313553 C69.13153023590574 16.48349004642002, 68.85116887173766 16.629754390526486, 68.34625760845422 16.89316627317036 C68.00851917335311 17.042673059734906, 67.67078073825199 17.192179846299457, 67.24719384148827 17.379689200237905 C66.94798630922888 17.48980033795347, 66.6487787769695 17.599911475669032, 66.1192165879429 17.794795256450033 C65.80466550978757 17.888152365334236, 65.49011443163222 17.981509474218438, 64.96696094830328 18.1367786819818 C64.66648422877107 18.205360532421185, 64.36600750923886 18.27394238286057, 63.795161788150736 18.404234193582475 C63.36355459001054 18.47401309821397, 62.93194739187034 18.543792002845468, 62.6086342815845 18.596062759185862 C62.22945251600479 18.632641968078545, 61.85027075042509 18.669221176971224, 61.412254124638366 18.711476114068805 C60.97553373591734 18.72548088691042, 60.53881334719631 18.739485659752035, 60.2109375 18.75 C60.2109375 18.75, 60.2109375 18.75, 60.2109375 18.75 C27.58152459855642 18.75, -5.047888302887159 18.75, -60.2109375 18.75 C-60.60526781840763 18.73735459420607, -60.99959813681526 18.724709188412138, -61.41225412463836 18.711476114068805 C-61.70621620608448 18.683117945612825, -62.000178287530595 18.654759777156848, -62.60863428158449 18.596062759185862 C-62.92921158754634 18.544234306472088, -63.24978889350819 18.492405853758317, -63.79516178815073 18.404234193582475 C-64.14266916798249 18.324917901833455, -64.49017654781424 18.24560161008444, -64.96696094830325 18.136778681981802 C-65.37172889892335 18.016645678908088, -65.77649684954343 17.896512675834373, -66.11921658794287 17.79479525645004 C-66.50820622171749 17.651643475440228, -66.8971958554921 17.508491694430415, -67.24719384148827 17.37968920023791 C-67.6771229296345 17.18937234630884, -68.10705201778075 16.999055492379767, -68.34625760845421 16.893166273170362 C-68.58298978095301 16.76966325041193, -68.8197219534518 16.646160227653503, -69.41189160007383 16.337225702313557 C-69.65950803578693 16.18711916382858, -69.90712447150003 16.0370126253436, -70.43971689769778 15.714151966722019 C-70.81501693898507 15.452358904396945, -71.19031698027236 15.190565842071873, -71.42550994671029 15.026505410024189 C-71.76616771109076 14.754839908214597, -72.10682547547123 14.483174406405006, -72.36521991202103 14.277111719421274 C-72.62587964021755 14.040387450951682, -72.88653936841406 13.803663182482092, -73.25498532381536 13.469050314332401 C-73.51014869650054 13.205573182732463, -73.7653120691857 12.942096051132527, -74.09114994516217 12.60564169239969 C-74.2547047309403 12.41352093449375, -74.41825951671842 12.22140017658781, -74.87027779627556 11.690433784851257 C-75.06964543404415 11.423299313006787, -75.26901307181275 11.156164841162317, -75.58916727369292 10.727187377290688 C-75.78416509590767 10.427618358121894, -75.9791629181224 10.128049338953101, -76.24486430635024 9.719860655822355 C-76.47685783470043 9.307932654344489, -76.7088513630506 8.89600465286662, -76.83467449449375 8.672592942015664 C-76.95483214553278 8.423083008671268, -77.07498979657178 8.173573075326871, -77.35617418154648 7.5896876835448905 C-77.45873436071064 7.33636205814324, -77.56129453987481 7.08303643274159, -77.807220413433 6.475594770399529 C-77.88781324222441 6.232862010803269, -77.96840607101582 5.9901292512070095, -78.18595974443738 5.334892249331858 C-78.25705079947966 5.063791245397502, -78.32814185452195 4.792690241463145, -78.4908358534092 4.172267511680899 C-78.57223814834916 3.7542839315453316, -78.6536404432891 3.3363003514097636, -78.72059593902094 2.9924980318758694 C-78.77562419168942 2.5657097707366554, -78.83065244435791 2.1389215095974414, -78.87429586779746 1.8004317357690471 C-78.89173877589772 1.5287443624453512, -78.909181683998 1.2570569891216552, -78.9513040537629 0.6009670794685367 C-78.9513040537629 0.3076530763163755, -78.9513040537629 0.014339073164214344, -78.9513040537629 -0.6009670794685276 C-78.92498037087844 -1.0109796884882525, -78.89865668799399 -1.4209922975079774, -78.87429586779747 -1.8004317357690214 C-78.83784952469308 -2.083102375742113, -78.80140318158871 -2.3657730157152046, -78.72059593902094 -2.9924980318758605 C-78.64379515964366 -3.38685380212772, -78.56699438026638 -3.78120957237958, -78.4908358534092 -4.17226751168089 C-78.40125690671059 -4.513870859203752, -78.31167796001198 -4.8554742067266154, -78.18595974443738 -5.334892249331849 C-78.066192790718 -5.695611231661988, -77.94642583699861 -6.056330213992126, -77.80722041343301 -6.475594770399505 C-77.71432810026859 -6.705040579866353, -77.62143578710415 -6.934486389333199, -77.35617418154649 -7.589687683544882 C-77.23359396417766 -7.844228127707762, -77.11101374680881 -8.098768571870643, -76.83467449449375 -8.672592942015655 C-76.67259665966402 -8.96037854991629, -76.51051882483429 -9.248164157816928, -76.24486430635024 -9.719860655822348 C-76.09724486004829 -9.946643766713786, -75.94962541374635 -10.173426877605221, -75.58916727369292 -10.727187377290681 C-75.32518904327178 -11.080894157143485, -75.06121081285065 -11.434600936996286, -74.87027779627556 -11.690433784851251 C-74.62570634851491 -11.97772132390053, -74.38113490075425 -12.265008862949808, -74.09114994516217 -12.605641692399683 C-73.86066049130608 -12.843640977042185, -73.63017103745 -13.081640261684687, -73.25498532381538 -13.469050314332382 C-72.94860862478214 -13.747293526111118, -72.64223192574892 -14.025536737889855, -72.36521991202105 -14.277111719421258 C-72.0274482116948 -14.546475661949001, -71.68967651136856 -14.815839604476743, -71.4255099467103 -15.026505410024182 C-71.15978381568173 -15.211864455930899, -70.89405768465316 -15.397223501837617, -70.43971689769779 -15.714151966722005 C-70.19262022599904 -15.863943421207011, -69.9455235543003 -16.013734875692016, -69.41189160007383 -16.33722570231355 C-69.14645996102766 -16.47570121838686, -68.88102832198149 -16.61417673446017, -68.34625760845422 -16.89316627317036 C-68.10355373597524 -17.00060407796223, -67.86084986349624 -17.1080418827541, -67.24719384148827 -17.379689200237905 C-66.87990744242487 -17.514853990251492, -66.51262104336146 -17.65001878026508, -66.1192165879429 -17.794795256450033 C-65.8530478672169 -17.87379273561338, -65.58687914649092 -17.952790214776734, -64.96696094830328 -18.136778681981795 C-64.60664157416387 -18.21901922782546, -64.24632220002447 -18.30125977366912, -63.795161788150736 -18.40423419358247 C-63.53660614547974 -18.446035464760563, -63.27805050280873 -18.487836735938657, -62.6086342815845 -18.596062759185862 C-62.16655403655499 -18.638709708744578, -61.72447379152548 -18.68135665830329, -61.412254124638366 -18.711476114068805 C-61.070113241556 -18.722447906252427, -60.72797235847364 -18.73341969843605, -60.21093750000001 -18.75 C-60.21093750000001 -18.75, -60.2109375 -18.75, -60.2109375 -18.75" stroke="none" stroke-width="0" fill="#e8f1fb" style="fill:#e8f1fb !important;stroke:#5e8fc4 !important"/><path d="M-60.2109375 -18.75 C-30.99998057115935 -18.75, -1.7890236423187034 -18.75, 60.2109375 -18.75 M-60.2109375 -18.75 C-27.186816708738732 -18.75, 5.837304082522536 -18.75, 60.2109375 -18.75 M60.2109375 -18.75 C60.2109375 -18.75, 60.2109375 -18.75, 60.2109375 -18.75 M60.2109375 -18.75 C60.2109375 -18.75, 60.2109375 -18.75, 60.2109375 -18.75 M60.2109375 -18.75 C60.65452968654674 -18.73577486197726, 61.09812187309347 -18.721549723954514, 61.412254124638366 -18.711476114068805 M60.2109375 -18.75 C60.582220202436496 -18.7380936863908, 60.953502904872984 -18.726187372781602, 61.412254124638366 -18.711476114068805 M61.412254124638366 -18.711476114068805 C61.84641065790858 -18.669593555453854, 62.28056719117878 -18.6277109968389, 62.608634281584486 -18.596062759185866 M61.412254124638366 -18.711476114068805 C61.71499212648155 -18.68227134312671, 62.01773012832473 -18.653066572184617, 62.608634281584486 -18.596062759185866 M62.608634281584486 -18.596062759185866 C62.94431397731784 -18.54179266921462, 63.27999367305119 -18.48752257924337, 63.79516178815073 -18.40423419358248 M62.608634281584486 -18.596062759185866 C62.96982216866203 -18.53766870265707, 63.33101005573957 -18.47927464612827, 63.79516178815073 -18.40423419358248 M63.79516178815073 -18.40423419358248 C64.1926728455853 -18.313504888725106, 64.59018390301988 -18.222775583867737, 64.96696094830325 -18.136778681981802 M63.79516178815073 -18.40423419358248 C64.1527885933692 -18.322608209024366, 64.51041539858765 -18.240982224466254, 64.96696094830325 -18.136778681981802 M64.96696094830325 -18.136778681981802 C65.2264599690595 -18.059760734759504, 65.48595898981576 -17.9827427875372, 66.11921658794289 -17.794795256450037 M64.96696094830325 -18.136778681981802 C65.22437462840759 -18.060379652918815, 65.48178830851194 -17.983980623855828, 66.11921658794289 -17.794795256450037 M66.11921658794289 -17.794795256450037 C66.49981210344949 -17.65473258855723, 66.88040761895608 -17.514669920664424, 67.24719384148827 -17.37968920023791 M66.11921658794289 -17.794795256450037 C66.51575616758991 -17.64886502556824, 66.91229574723693 -17.502934794686446, 67.24719384148827 -17.37968920023791 M67.24719384148827 -17.37968920023791 C67.50000442586017 -17.267777453896002, 67.75281501023206 -17.1558657075541, 68.34625760845421 -16.89316627317036 M67.24719384148827 -17.37968920023791 C67.50501717482959 -17.265558458625154, 67.7628405081709 -17.1514277170124, 68.34625760845421 -16.89316627317036 M68.34625760845421 -16.89316627317036 C68.58264816555705 -16.76984147094519, 68.81903872265987 -16.64651666872002, 69.41189160007383 -16.337225702313553 M68.34625760845421 -16.89316627317036 C68.57391659746712 -16.774396724424868, 68.80157558648003 -16.655627175679378, 69.41189160007383 -16.337225702313553 M69.41189160007383 -16.337225702313553 C69.6223287237449 -16.20965748127835, 69.83276584741596 -16.082089260243144, 70.43971689769779 -15.714151966722014 M69.41189160007383 -16.337225702313553 C69.82239257522865 -16.088377598803202, 70.23289355038347 -15.839529495292854, 70.43971689769779 -15.714151966722014 M70.43971689769779 -15.714151966722014 C70.82589359082492 -15.44477182291614, 71.21207028395203 -15.175391679110266, 71.42550994671029 -15.026505410024187 M70.43971689769779 -15.714151966722014 C70.65484761263028 -15.564086092843667, 70.86997832756275 -15.414020218965321, 71.42550994671029 -15.026505410024187 M71.42550994671029 -15.026505410024187 C71.74279657976287 -14.773477763516668, 72.06008321281544 -14.520450117009148, 72.36521991202103 -14.277111719421272 M71.42550994671029 -15.026505410024187 C71.62383118724625 -14.868349498246609, 71.82215242778223 -14.710193586469032, 72.36521991202103 -14.277111719421272 M72.36521991202103 -14.277111719421272 C72.65762710930082 -14.01155523952226, 72.95003430658059 -13.745998759623248, 73.25498532381538 -13.469050314332392 M72.36521991202103 -14.277111719421272 C72.66152647564049 -14.008013938184156, 72.95783303925992 -13.738916156947038, 73.25498532381538 -13.469050314332392 M73.25498532381538 -13.469050314332392 C73.49102741840197 -13.225317472255352, 73.72706951298858 -12.981584630178313, 74.09114994516216 -12.605641692399693 M73.25498532381538 -13.469050314332392 C73.5459490664789 -13.168606361464766, 73.83691280914242 -12.868162408597142, 74.09114994516216 -12.605641692399693 M74.09114994516216 -12.605641692399693 C74.39191297519685 -12.252348323419735, 74.69267600523152 -11.899054954439777, 74.87027779627556 -11.690433784851255 M74.09114994516216 -12.605641692399693 C74.27113335027535 -12.394222943407867, 74.45111675538854 -12.182804194416041, 74.87027779627556 -11.690433784851255 M74.87027779627556 -11.690433784851255 C75.12567256245488 -11.348228065112801, 75.38106732863422 -11.00602234537435, 75.58916727369292 -10.727187377290685 M74.87027779627556 -11.690433784851255 C75.01650780075818 -11.494498900672019, 75.16273780524078 -11.298564016492783, 75.58916727369292 -10.727187377290685 M75.58916727369292 -10.727187377290685 C75.75881200708893 -10.466567510805062, 75.92845674048493 -10.205947644319439, 76.24486430635024 -9.719860655822346 M75.58916727369292 -10.727187377290685 C75.80109191227037 -10.401614222702166, 76.0130165508478 -10.076041068113646, 76.24486430635024 -9.719860655822346 M76.24486430635024 -9.719860655822346 C76.39715167494342 -9.449459012116911, 76.54943904353661 -9.179057368411476, 76.83467449449375 -8.672592942015662 M76.24486430635024 -9.719860655822346 C76.39448644340244 -9.45419140060189, 76.54410858045463 -9.188522145381432, 76.83467449449375 -8.672592942015662 M76.83467449449375 -8.672592942015662 C76.97552454852165 -8.380114791118382, 77.11637460254953 -8.087636640221103, 77.35617418154648 -7.589687683544889 M76.83467449449375 -8.672592942015662 C76.99822335946457 -8.332980224518629, 77.1617722244354 -7.993367507021596, 77.35617418154648 -7.589687683544889 M77.35617418154648 -7.589687683544889 C77.44657238869543 -7.366402364156531, 77.5369705958444 -7.1431170447681716, 77.807220413433 -6.475594770399527 M77.35617418154648 -7.589687683544889 C77.46400150600175 -7.323352107440866, 77.57182883045702 -7.057016531336842, 77.807220413433 -6.475594770399527 M77.807220413433 -6.475594770399527 C77.93821025528372 -6.081074237142187, 78.06920009713446 -5.686553703884847, 78.18595974443738 -5.334892249331864 M77.807220413433 -6.475594770399527 C77.94495214827364 -6.06076872963131, 78.0826838831143 -5.645942688863093, 78.18595974443738 -5.334892249331864 M78.18595974443738 -5.334892249331864 C78.2637189499228 -5.038362697763138, 78.34147815540821 -4.741833146194414, 78.4908358534092 -4.172267511680897 M78.18595974443738 -5.334892249331864 C78.26953623463304 -5.016178869935833, 78.3531127248287 -4.697465490539802, 78.4908358534092 -4.172267511680897 M78.4908358534092 -4.172267511680897 C78.53708881633142 -3.934768322642442, 78.58334177925364 -3.6972691336039865, 78.72059593902094 -2.9924980318758676 M78.4908358534092 -4.172267511680897 C78.57056860856744 -3.7628566654670452, 78.6503013637257 -3.3534458192531935, 78.72059593902094 -2.9924980318758676 M78.72059593902094 -2.9924980318758676 C78.75987660309721 -2.687844958144763, 78.79915726717348 -2.3831918844136593, 78.87429586779747 -1.8004317357690365 M78.72059593902094 -2.9924980318758676 C78.76768105017547 -2.627315207768193, 78.81476616133 -2.2621323836605187, 78.87429586779747 -1.8004317357690365 M78.87429586779747 -1.8004317357690365 C78.90080754200005 -1.3874910102256106, 78.92731921620263 -0.9745502846821846, 78.9513040537629 -0.6009670794685343 M78.87429586779747 -1.8004317357690365 C78.88990642517585 -1.557284703985688, 78.90551698255422 -1.3141376722023397, 78.9513040537629 -0.6009670794685343 M78.9513040537629 -0.6009670794685343 C78.9513040537629 -0.21211537830384053, 78.9513040537629 0.17673632286085328, 78.9513040537629 0.6009670794685298 M78.9513040537629 -0.6009670794685343 C78.9513040537629 -0.234691892334559, 78.9513040537629 0.13158329479941633, 78.9513040537629 0.6009670794685298 M78.9513040537629 0.6009670794685298 C78.93253294711373 0.8933422172938211, 78.91376184046457 1.1857173551191125, 78.87429586779747 1.8004317357690236 M78.9513040537629 0.6009670794685298 C78.93050002598545 0.9250066048111658, 78.90969599820802 1.2490461301538018, 78.87429586779747 1.8004317357690236 M78.87429586779747 1.8004317357690236 C78.82509792639505 2.18200125405387, 78.7758999849926 2.563570772338716, 78.72059593902094 2.9924980318758543 M78.87429586779747 1.8004317357690236 C78.84300732084682 2.043099527295814, 78.81171877389617 2.2857673188226038, 78.72059593902094 2.9924980318758543 M78.72059593902094 2.9924980318758543 C78.64402253847584 3.3856862598810253, 78.56744913793074 3.7788744878861964, 78.4908358534092 4.172267511680893 M78.72059593902094 2.9924980318758543 C78.6290170628042 3.462736206046483, 78.53743818658745 3.9329743802171118, 78.4908358534092 4.172267511680893 M78.4908358534092 4.172267511680893 C78.39213395490086 4.5486606283666156, 78.2934320563925 4.925053745052338, 78.18595974443738 5.334892249331851 M78.4908358534092 4.172267511680893 C78.3743045652202 4.616651818525279, 78.25777327703122 5.061036125369665, 78.18595974443738 5.334892249331851 M78.18595974443738 5.334892249331851 C78.07849640181436 5.658554715353944, 77.97103305919136 5.982217181376037, 77.80722041343301 6.475594770399514 M78.18595974443738 5.334892249331851 C78.09622306830309 5.605164820250658, 78.0064863921688 5.875437391169465, 77.80722041343301 6.475594770399514 M77.80722041343301 6.475594770399514 C77.69100567735896 6.762647415361515, 77.57479094128489 7.0497000603235165, 77.35617418154649 7.589687683544883 M77.80722041343301 6.475594770399514 C77.63497184685721 6.901052060041249, 77.4627232802814 7.3265093496829845, 77.35617418154649 7.589687683544883 M77.35617418154649 7.589687683544883 C77.24613554891633 7.818185258650981, 77.13609691628616 8.046682833757078, 76.83467449449375 8.672592942015656 M77.35617418154649 7.589687683544883 C77.19111862459926 7.93242907916897, 77.02606306765203 8.275170474793057, 76.83467449449375 8.672592942015656 M76.83467449449375 8.672592942015656 C76.69830485517441 8.91473104555052, 76.56193521585507 9.15686914908538, 76.24486430635024 9.719860655822343 M76.83467449449375 8.672592942015656 C76.67440559841738 8.957166595984797, 76.514136702341 9.241740249953935, 76.24486430635024 9.719860655822343 M76.24486430635024 9.719860655822343 C75.9873921283753 10.115407062152261, 75.72991995040039 10.51095346848218, 75.58916727369292 10.727187377290674 M76.24486430635024 9.719860655822343 C76.02358922713212 10.059798598179812, 75.80231414791402 10.399736540537281, 75.58916727369292 10.727187377290674 M75.58916727369292 10.727187377290674 C75.38270821075068 11.003823712825707, 75.17624914780845 11.28046004836074, 74.87027779627556 11.690433784851251 M75.58916727369292 10.727187377290674 C75.35295077367297 11.043695967551555, 75.11673427365302 11.360204557812434, 74.87027779627556 11.690433784851251 M74.87027779627556 11.690433784851251 C74.57887065327013 12.032737196561595, 74.28746351026471 12.375040608271938, 74.09114994516217 12.605641692399683 M74.87027779627556 11.690433784851251 C74.67199204405624 11.923351512186986, 74.47370629183693 12.156269239522722, 74.09114994516217 12.605641692399683 M74.09114994516217 12.605641692399683 C73.79610423712292 12.910300609653346, 73.50105852908366 13.214959526907009, 73.25498532381538 13.469050314332389 M74.09114994516217 12.605641692399683 C73.87939092888462 12.824300262444831, 73.66763191260705 13.04295883248998, 73.25498532381538 13.469050314332389 M73.25498532381538 13.469050314332389 C72.90544552747507 13.786493109052433, 72.55590573113477 14.103935903772477, 72.36521991202105 14.27711171942126 M73.25498532381538 13.469050314332389 C72.96076248666584 13.736255710321917, 72.6665396495163 14.003461106311445, 72.36521991202105 14.27711171942126 M72.36521991202105 14.27711171942126 C72.14906972085436 14.449485744878544, 71.93291952968765 14.621859770335826, 71.4255099467103 15.026505410024184 M72.36521991202105 14.27711171942126 C72.03776810956704 14.538245818019904, 71.71031630711305 14.799379916618546, 71.4255099467103 15.026505410024184 M71.4255099467103 15.026505410024184 C71.1669701528339 15.206851578225075, 70.90843035895747 15.387197746425967, 70.43971689769779 15.714151966722007 M71.4255099467103 15.026505410024184 C71.19302911235187 15.18867397613951, 70.96054827799344 15.350842542254838, 70.43971689769779 15.714151966722007 M70.43971689769779 15.714151966722007 C70.03772251513583 15.95784332381228, 69.63572813257387 16.201534680902554, 69.41189160007383 16.337225702313553 M70.43971689769779 15.714151966722007 C70.18592784042912 15.86800038466832, 69.93213878316045 16.021848802614635, 69.41189160007383 16.337225702313553 M69.41189160007383 16.337225702313553 C69.01950959090968 16.541931145161822, 68.62712758174551 16.746636588010094, 68.34625760845422 16.89316627317036 M69.41189160007383 16.337225702313553 C69.01366027553209 16.544982729247646, 68.61542895099034 16.75273975618174, 68.34625760845422 16.89316627317036 M68.34625760845422 16.89316627317036 C68.08411344539834 17.009209717924886, 67.82196928234248 17.125253162679414, 67.24719384148827 17.379689200237905 M68.34625760845422 16.89316627317036 C68.03263986167623 17.031995546529057, 67.71902211489824 17.170824819887756, 67.24719384148827 17.379689200237905 M67.24719384148827 17.379689200237905 C66.93826402288416 17.49337822920016, 66.62933420428003 17.607067258162417, 66.1192165879429 17.794795256450033 M67.24719384148827 17.379689200237905 C66.89400851587064 17.509664664874553, 66.54082319025302 17.6396401295112, 66.1192165879429 17.794795256450033 M66.1192165879429 17.794795256450033 C65.88634854010684 17.86390927069845, 65.65348049227077 17.93302328494687, 64.96696094830328 18.1367786819818 M66.1192165879429 17.794795256450033 C65.85593740146298 17.872935137016622, 65.59265821498306 17.951075017583214, 64.96696094830328 18.1367786819818 M64.96696094830328 18.1367786819818 C64.57383693199131 18.226506673331052, 64.18071291567934 18.316234664680305, 63.795161788150736 18.404234193582475 M64.96696094830328 18.1367786819818 C64.52379866633692 18.237927580936468, 64.08063638437056 18.339076479891137, 63.795161788150736 18.404234193582475 M63.795161788150736 18.404234193582475 C63.553718577157234 18.44326885951584, 63.31227536616373 18.4823035254492, 62.6086342815845 18.596062759185862 M63.795161788150736 18.404234193582475 C63.43247246040111 18.462870991395288, 63.06978313265148 18.521507789208105, 62.6086342815845 18.596062759185862 M62.6086342815845 18.596062759185862 C62.32479225327938 18.623444658286473, 62.04095022497426 18.650826557387088, 61.412254124638366 18.711476114068805 M62.6086342815845 18.596062759185862 C62.24726674106084 18.630923451212126, 61.88589920053718 18.66578414323839, 61.412254124638366 18.711476114068805 M61.412254124638366 18.711476114068805 C61.03083002517251 18.723707642541704, 60.64940592570666 18.735939171014603, 60.2109375 18.75 M61.412254124638366 18.711476114068805 C61.08152904580751 18.722081823629598, 60.75080396697664 18.73268753319039, 60.2109375 18.75 M60.2109375 18.75 C60.2109375 18.75, 60.2109375 18.75, 60.2109375 18.75 M60.2109375 18.75 C60.2109375 18.75, 60.2109375 18.75, 60.2109375 18.75 M60.2109375 18.75 C30.248111495521616 18.75, 0.28528549104323275 18.75, -60.2109375 18.75 M60.2109375 18.75 C34.40624518014977 18.75, 8.601552860299535 18.75, -60.2109375 18.75 M-60.2109375 18.75 C-60.472916063344194 18.74159885738389, -60.73489462668839 18.73319771476778, -61.41225412463836 18.711476114068805 M-60.2109375 18.75 C-60.57153558499256 18.73843632127588, -60.93213366998511 18.72687264255176, -61.41225412463836 18.711476114068805 M-61.41225412463836 18.711476114068805 C-61.67783651860862 18.685855699932052, -61.94341891257889 18.660235285795302, -62.60863428158449 18.596062759185862 M-61.41225412463836 18.711476114068805 C-61.73994525026199 18.679864145286132, -62.06763637588562 18.64825217650346, -62.60863428158449 18.596062759185862 M-62.60863428158449 18.596062759185862 C-62.86165038395533 18.555157077923724, -63.11466648632617 18.514251396661585, -63.79516178815073 18.404234193582475 M-62.60863428158449 18.596062759185862 C-62.96634681805199 18.53823057039195, -63.32405935451949 18.480398381598036, -63.79516178815073 18.404234193582475 M-63.79516178815073 18.404234193582475 C-64.23105099759513 18.30474532596971, -64.66694020703953 18.205256458356942, -64.96696094830325 18.136778681981802 M-63.79516178815073 18.404234193582475 C-64.10741239962962 18.332965029138084, -64.41966301110853 18.26169586469369, -64.96696094830325 18.136778681981802 M-64.96696094830325 18.136778681981802 C-65.20960692750126 18.06476262903057, -65.45225290669926 17.99274657607934, -66.11921658794287 17.79479525645004 M-64.96696094830325 18.136778681981802 C-65.25557075417821 18.0511208065419, -65.54418056005318 17.965462931101996, -66.11921658794287 17.79479525645004 M-66.11921658794287 17.79479525645004 C-66.42904351062954 17.680776084892674, -66.7388704333162 17.566756913335304, -67.24719384148827 17.37968920023791 M-66.11921658794287 17.79479525645004 C-66.381065714112 17.698432357513017, -66.64291484028111 17.602069458575993, -67.24719384148827 17.37968920023791 M-67.24719384148827 17.37968920023791 C-67.63310731135145 17.208856754845822, -68.01902078121464 17.038024309453736, -68.34625760845421 16.893166273170362 M-67.24719384148827 17.37968920023791 C-67.52128712194815 17.258356235666604, -67.79538040240801 17.137023271095295, -68.34625760845421 16.893166273170362 M-68.34625760845421 16.893166273170362 C-68.69062664185009 16.713509169026626, -69.03499567524597 16.53385206488289, -69.41189160007383 16.337225702313557 M-68.34625760845421 16.893166273170362 C-68.72624353266217 16.694927859903668, -69.10622945687014 16.496689446636978, -69.41189160007383 16.337225702313557 M-69.41189160007383 16.337225702313557 C-69.65259343421397 16.19131083593682, -69.8932952683541 16.045395969560083, -70.43971689769778 15.714151966722019 M-69.41189160007383 16.337225702313557 C-69.78926115217675 16.108462062159123, -70.16663070427965 15.87969842200469, -70.43971689769778 15.714151966722019 M-70.43971689769778 15.714151966722019 C-70.68371114541569 15.543952141854753, -70.92770539313359 15.373752316987487, -71.42550994671029 15.026505410024189 M-70.43971689769778 15.714151966722019 C-70.6944969341017 15.536428442576653, -70.94927697050564 15.358704918431288, -71.42550994671029 15.026505410024189 M-71.42550994671029 15.026505410024189 C-71.75973597087179 14.759969049883438, -72.09396199503327 14.493432689742685, -72.36521991202103 14.277111719421274 M-71.42550994671029 15.026505410024189 C-71.6353347840605 14.859175685910822, -71.8451596214107 14.691845961797455, -72.36521991202103 14.277111719421274 M-72.36521991202103 14.277111719421274 C-72.5622619131535 14.098163387438419, -72.759303914286 13.919215055455563, -73.25498532381536 13.469050314332401 M-72.36521991202103 14.277111719421274 C-72.71629168673934 13.958277622472256, -73.06736346145765 13.639443525523237, -73.25498532381536 13.469050314332401 M-73.25498532381536 13.469050314332401 C-73.58244921515852 13.13091696123512, -73.90991310650166 12.792783608137842, -74.09114994516217 12.60564169239969 M-73.25498532381536 13.469050314332401 C-73.5131151154659 13.202510111603207, -73.77124490711641 12.935969908874014, -74.09114994516217 12.60564169239969 M-74.09114994516217 12.60564169239969 C-74.30911963243003 12.349602094908311, -74.52708931969786 12.093562497416933, -74.87027779627556 11.690433784851257 M-74.09114994516217 12.60564169239969 C-74.32459181462916 12.3314275893051, -74.55803368409615 12.057213486210511, -74.87027779627556 11.690433784851257 M-74.87027779627556 11.690433784851257 C-75.10085020358727 11.381487764631999, -75.33142261089898 11.072541744412739, -75.58916727369292 10.727187377290688 M-74.87027779627556 11.690433784851257 C-75.01501848248839 11.496494451473852, -75.1597591687012 11.30255511809645, -75.58916727369292 10.727187377290688 M-75.58916727369292 10.727187377290688 C-75.79353969726066 10.413216453010754, -75.9979121208284 10.099245528730819, -76.24486430635024 9.719860655822355 M-75.58916727369292 10.727187377290688 C-75.756206899461 10.470569655690896, -75.92324652522909 10.213951934091106, -76.24486430635024 9.719860655822355 M-76.24486430635024 9.719860655822355 C-76.39485083974004 9.453544378005349, -76.54483737312984 9.18722810018834, -76.83467449449375 8.672592942015664 M-76.24486430635024 9.719860655822355 C-76.4456125533081 9.363411815384376, -76.64636080026597 9.006962974946397, -76.83467449449375 8.672592942015664 M-76.83467449449375 8.672592942015664 C-76.96376453144289 8.404534718206474, -77.09285456839201 8.136476494397284, -77.35617418154648 7.5896876835448905 M-76.83467449449375 8.672592942015664 C-76.98440996972056 8.36166402388126, -77.13414544494738 8.050735105746858, -77.35617418154648 7.5896876835448905 M-77.35617418154648 7.5896876835448905 C-77.48076410158903 7.281948172257552, -77.60535402163158 6.974208660970213, -77.807220413433 6.475594770399529 M-77.35617418154648 7.5896876835448905 C-77.49297534577926 7.251786163019336, -77.62977651001205 6.913884642493781, -77.807220413433 6.475594770399529 M-77.807220413433 6.475594770399529 C-77.89969770968386 6.197067888348149, -77.99217500593471 5.918541006296769, -78.18595974443738 5.334892249331858 M-77.807220413433 6.475594770399529 C-77.89559694885183 6.209418726606695, -77.98397348427068 5.94324268281386, -78.18595974443738 5.334892249331858 M-78.18595974443738 5.334892249331858 C-78.2585453321599 5.05809194455322, -78.3311309198824 4.781291639774581, -78.4908358534092 4.172267511680899 M-78.18595974443738 5.334892249331858 C-78.29404766658999 4.92270615656219, -78.4021355887426 4.510520063792521, -78.4908358534092 4.172267511680899 M-78.4908358534092 4.172267511680899 C-78.5708114026065 3.7616099693910856, -78.65078695180378 3.350952427101272, -78.72059593902094 2.9924980318758694 M-78.4908358534092 4.172267511680899 C-78.54238790262919 3.907558634465709, -78.59393995184918 3.642849757250519, -78.72059593902094 2.9924980318758694 M-78.72059593902094 2.9924980318758694 C-78.77656162589412 2.5584392161623644, -78.8325273127673 2.1243804004488593, -78.87429586779746 1.8004317357690471 M-78.72059593902094 2.9924980318758694 C-78.76587989475868 2.641284613502448, -78.81116385049641 2.290071195129027, -78.87429586779746 1.8004317357690471 M-78.87429586779746 1.8004317357690471 C-78.8981336669233 1.4291387728589884, -78.92197146604914 1.0578458099489296, -78.9513040537629 0.6009670794685367 M-78.87429586779746 1.8004317357690471 C-78.89317715047196 1.506340517416588, -78.91205843314647 1.212249299064129, -78.9513040537629 0.6009670794685367 M-78.9513040537629 0.6009670794685367 C-78.9513040537629 0.2824049718329014, -78.9513040537629 -0.03615713580273383, -78.9513040537629 -0.6009670794685276 M-78.9513040537629 0.6009670794685367 C-78.9513040537629 0.22120419929826707, -78.9513040537629 -0.15855868087200253, -78.9513040537629 -0.6009670794685276 M-78.9513040537629 -0.6009670794685276 C-78.92937189665108 -0.9425781298037453, -78.90743973953926 -1.284189180138963, -78.87429586779747 -1.8004317357690214 M-78.9513040537629 -0.6009670794685276 C-78.93296514350473 -0.8866104096413618, -78.91462623324657 -1.1722537398141961, -78.87429586779747 -1.8004317357690214 M-78.87429586779747 -1.8004317357690214 C-78.83622616645535 -2.0956928216657227, -78.79815646511321 -2.390953907562424, -78.72059593902094 -2.9924980318758605 M-78.87429586779747 -1.8004317357690214 C-78.83601239046723 -2.097350826014695, -78.79772891313698 -2.3942699162603684, -78.72059593902094 -2.9924980318758605 M-78.72059593902094 -2.9924980318758605 C-78.67403823220678 -3.2315620163917593, -78.62748052539261 -3.470626000907658, -78.4908358534092 -4.17226751168089 M-78.72059593902094 -2.9924980318758605 C-78.66873147281895 -3.2588111042642725, -78.61686700661696 -3.5251241766526844, -78.4908358534092 -4.17226751168089 M-78.4908358534092 -4.17226751168089 C-78.37931603727547 -4.597540903592789, -78.26779622114177 -5.0228142955046895, -78.18595974443738 -5.334892249331849 M-78.4908358534092 -4.17226751168089 C-78.39269980405915 -4.546502800285465, -78.29456375470909 -4.9207380888900385, -78.18595974443738 -5.334892249331849 M-78.18595974443738 -5.334892249331849 C-78.0400518699053 -5.774343520159736, -77.89414399537321 -6.213794790987622, -77.80722041343301 -6.475594770399505 M-78.18595974443738 -5.334892249331849 C-78.10935504088114 -5.565613411141251, -78.0327503373249 -5.796334572950652, -77.80722041343301 -6.475594770399505 M-77.80722041343301 -6.475594770399505 C-77.6924053953858 -6.759190084773469, -77.57759037733861 -7.0427853991474345, -77.35617418154649 -7.589687683544882 M-77.80722041343301 -6.475594770399505 C-77.63532672110557 -6.900175513786754, -77.46343302877813 -7.324756257174004, -77.35617418154649 -7.589687683544882 M-77.35617418154649 -7.589687683544882 C-77.22423739769583 -7.863657238205721, -77.09230061384517 -8.13762679286656, -76.83467449449375 -8.672592942015655 M-77.35617418154649 -7.589687683544882 C-77.1963727242531 -7.921518828818056, -77.0365712669597 -8.25334997409123, -76.83467449449375 -8.672592942015655 M-76.83467449449375 -8.672592942015655 C-76.63625917881825 -9.024899426726884, -76.43784386314276 -9.377205911438114, -76.24486430635024 -9.719860655822348 M-76.83467449449375 -8.672592942015655 C-76.63858489804335 -9.020769876738127, -76.44249530159294 -9.368946811460601, -76.24486430635024 -9.719860655822348 M-76.24486430635024 -9.719860655822348 C-76.1081697932578 -9.929860135548646, -75.97147528016536 -10.139859615274942, -75.58916727369292 -10.727187377290681 M-76.24486430635024 -9.719860655822348 C-76.00744495646688 -10.084600533265306, -75.77002560658353 -10.449340410708263, -75.58916727369292 -10.727187377290681 M-75.58916727369292 -10.727187377290681 C-75.34411982192889 -11.055528638372381, -75.09907237016485 -11.383869899454082, -74.87027779627556 -11.690433784851251 M-75.58916727369292 -10.727187377290681 C-75.41028205270963 -10.966877276629393, -75.23139683172636 -11.206567175968104, -74.87027779627556 -11.690433784851251 M-74.87027779627556 -11.690433784851251 C-74.67653625110648 -11.91801362801307, -74.48279470593741 -12.145593471174887, -74.09114994516217 -12.605641692399683 M-74.87027779627556 -11.690433784851251 C-74.60332946298658 -12.004006486922965, -74.33638112969759 -12.317579188994678, -74.09114994516217 -12.605641692399683 M-74.09114994516217 -12.605641692399683 C-73.77459617689902 -12.932509447679088, -73.45804240863589 -13.259377202958495, -73.25498532381538 -13.469050314332382 M-74.09114994516217 -12.605641692399683 C-73.78526897616281 -12.921488906186124, -73.47938800716345 -13.237336119972563, -73.25498532381538 -13.469050314332382 M-73.25498532381538 -13.469050314332382 C-72.95429954149684 -13.742125186124241, -72.6536137591783 -14.0152000579161, -72.36521991202105 -14.277111719421258 M-73.25498532381538 -13.469050314332382 C-73.06281679718316 -13.643572685719175, -72.87064827055093 -13.818095057105966, -72.36521991202105 -14.277111719421258 M-72.36521991202105 -14.277111719421258 C-72.07356365495208 -14.509699823134804, -71.78190739788312 -14.74228792684835, -71.4255099467103 -15.026505410024182 M-72.36521991202105 -14.277111719421258 C-72.07453575537185 -14.508924598918709, -71.78385159872268 -14.740737478416158, -71.4255099467103 -15.026505410024182 M-71.4255099467103 -15.026505410024182 C-71.21724034910419 -15.171785265468635, -71.00897075149808 -15.317065120913087, -70.43971689769779 -15.714151966722005 M-71.4255099467103 -15.026505410024182 C-71.12576682345897 -15.235593237133632, -70.82602370020766 -15.444681064243083, -70.43971689769779 -15.714151966722005 M-70.43971689769779 -15.714151966722005 C-70.09733906730824 -15.921703419539613, -69.7549612369187 -16.12925487235722, -69.41189160007383 -16.33722570231355 M-70.43971689769779 -15.714151966722005 C-70.19698122322343 -15.861299759061524, -69.95424554874907 -16.00844755140104, -69.41189160007383 -16.33722570231355 M-69.41189160007383 -16.33722570231355 C-69.08977864403936 -16.505271825153542, -68.76766568800488 -16.673317947993535, -68.34625760845422 -16.89316627317036 M-69.41189160007383 -16.33722570231355 C-69.16117384805592 -16.46802499294891, -68.91045609603802 -16.598824283584268, -68.34625760845422 -16.89316627317036 M-68.34625760845422 -16.89316627317036 C-67.9185902946526 -17.082481906690212, -67.490922980851 -17.271797540210066, -67.24719384148827 -17.379689200237905 M-68.34625760845422 -16.89316627317036 C-68.11105058121454 -16.997285446960802, -67.87584355397486 -17.101404620751243, -67.24719384148827 -17.379689200237905 M-67.24719384148827 -17.379689200237905 C-66.9018127884062 -17.506792620439565, -66.55643173532413 -17.633896040641222, -66.1192165879429 -17.794795256450033 M-67.24719384148827 -17.379689200237905 C-66.98677520908008 -17.475525664247566, -66.72635657667189 -17.57136212825723, -66.1192165879429 -17.794795256450033 M-66.1192165879429 -17.794795256450033 C-65.84033500033645 -17.8775658477723, -65.56145341273002 -17.96033643909457, -64.96696094830328 -18.136778681981795 M-66.1192165879429 -17.794795256450033 C-65.77445433985491 -17.897118881988575, -65.42969209176694 -17.99944250752712, -64.96696094830328 -18.136778681981795 M-64.96696094830328 -18.136778681981795 C-64.72255302255073 -18.192563196124045, -64.47814509679819 -18.248347710266298, -63.795161788150736 -18.40423419358247 M-64.96696094830328 -18.136778681981795 C-64.65134508826078 -18.208815942450528, -64.3357292282183 -18.280853202919264, -63.795161788150736 -18.40423419358247 M-63.795161788150736 -18.40423419358247 C-63.47697899304805 -18.455675520350244, -63.158796197945364 -18.50711684711802, -62.6086342815845 -18.596062759185862 M-63.795161788150736 -18.40423419358247 C-63.35475983658059 -18.475434965744192, -62.91435788501044 -18.54663573790591, -62.6086342815845 -18.596062759185862 M-62.6086342815845 -18.596062759185862 C-62.18209684289875 -18.637210312909556, -61.755559404213 -18.678357866633245, -61.412254124638366 -18.711476114068805 M-62.6086342815845 -18.596062759185862 C-62.29885566480785 -18.62594672978301, -61.989077048031206 -18.65583070038016, -61.412254124638366 -18.711476114068805 M-61.412254124638366 -18.711476114068805 C-61.06188147562816 -18.722711882963573, -60.71150882661796 -18.73394765185834, -60.21093750000001 -18.75 M-61.412254124638366 -18.711476114068805 C-61.12770025981018 -18.720601202663346, -60.843146394982 -18.72972629125789, -60.21093750000001 -18.75 M-60.21093750000001 -18.75 C-60.21093750000001 -18.75, -60.21093750000001 -18.75, -60.2109375 -18.75 M-60.21093750000001 -18.75 C-60.21093750000001 -18.75, -60.2109375 -18.75, -60.2109375 -18.75" stroke="#5e8fc4" stroke-width="1.3" fill="none" stroke-dasharray="0 0" style="fill:#e8f1fb !important;stroke:#5e8fc4 !important"/></g><g class="label" style="color:#102a43 !important" transform="translate(-66.7734375, -11.25)"><rect/><foreignObject width="133.546875" height="22.5"><div style="color: rgb(16, 42, 67) !important; display: table-cell; white-space: nowrap; line-height: 1.5; max-width: 200px; text-align: center;" xmlns="http://www.w3.org/1999/xhtml"><span style="color:#102a43 !important" class="nodeLabel"><p>You send a message</p></span></div></foreignObject></g></g><g class="node default gate" id="my-svg-flowchart-Consent-11" data-look="classic" transform="translate(364.65260314941406, 1159.25)"><polygon points="148.75,0 297.5,-148.75 148.75,-297.5 0,-148.75" class="label-container" transform="translate(-148.25, 148.75)" style="fill:#fff3cd !important;stroke:#b78b20 !important"/><g class="label" style="color:#4d3900 !important" transform="translate(-100, -33.75)"><rect/><foreignObject width="200" height="67.5"><div style="color: rgb(77, 57, 0) !important; display: table; white-space: break-spaces; line-height: 1.5; max-width: 200px; text-align: center; width: 200px;" xmlns="http://www.w3.org/1999/xhtml"><span style="color:#4d3900 !important" class="nodeLabel"><p>Learn something new?<br />saved only with your explicit approval</p></span></div></foreignObject></g></g><g class="node default note" id="my-svg-flowchart-Privacy-14" data-look="classic" transform="translate(438.95338439941406, 1719.25)"><rect class="basic label-container" style="fill:#f1edff !important;stroke:#8872c6 !important" x="-130" y="-48.75" width="260" height="97.5"/><g class="label" style="color:#2e2450 !important" transform="translate(-100, -33.75)"><rect/><foreignObject width="200" height="67.5"><div style="color: rgb(46, 36, 80) !important; display: table; white-space: break-spaces; line-height: 1.5; max-width: 200px; text-align: center; width: 200px;" xmlns="http://www.w3.org/1999/xhtml"><span style="color:#2e2450 !important" class="nodeLabel"><p>Your data stays yours:<br />view, export, and delete anything</p></span></div></foreignObject></g></g><g class="node default note" id="my-svg-flowchart-Legend-27" data-look="classic" transform="translate(586.0988273620605, 473)"><rect class="basic label-container" style="fill:#f1edff !important;stroke:#8872c6 !important" x="-130" y="-82.5" width="260" height="165"/><g class="label" style="color:#2e2450 !important" transform="translate(-100, -67.5)"><rect/><foreignObject width="200" height="135"><div style="color: rgb(46, 36, 80) !important; display: table; white-space: break-spaces; line-height: 1.5; max-width: 200px; text-align: center; width: 200px;" xmlns="http://www.w3.org/1999/xhtml"><span style="color:#2e2450 !important" class="nodeLabel"><p>Legend<br />rounded = you · box = automatic step<br />diamond = your decision · cylinder-style = stored memory</p></span></div></foreignObject></g></g></g></g></g><defs><filter id="my-svg-drop-shadow" height="130%" width="130%"><feDropShadow dx="4" dy="4" stdDeviation="0" flood-opacity="0.06" flood-color="#000000"/></filter></defs><defs><filter id="my-svg-drop-shadow-small" height="150%" width="150%"><feDropShadow dx="2" dy="2" stdDeviation="0" flood-opacity="0.06" flood-color="#000000"/></filter></defs><linearGradient id="my-svg-gradient" gradientUnits="objectBoundingBox" x1="0%" y1="0%" x2="100%" y2="0%"><stop offset="0%" stop-color="hsl(240, 0%, 86.4705882353%)" stop-opacity="1"/><stop offset="100%" stop-color="hsl(120, 0%, 86.4705882353%)" stop-opacity="1"/></linearGradient><text text-anchor="middle" x="383.4766845703125" y="-25" class="flowchartTitleText">AniOS Memory — Manager Overview</text></svg>