<!-- Render-Inputs-SHA256: 35d32612f7f6ce9223a91c26361a9aaa06d133e3d32a4b83a109810c2646b964 -->
<svg id="my-svg" width="100%" xmlns="http://www.w3.org/2000/svg" xmlns:xlink="http://www.w3.org/1999/xlink" class="flowchart" style="max-width: 691.293px; background-color: transparent;" viewBox="0 -52 691.29296875 1448" role="graphics-document document" aria-roledescription="flowchart-v2"><style>#my-svg{font-family:Inter,-apple-system,BlinkMacSystemFont,Segoe UI,sans-serif;font-size:15px;fill:#1d1d1f;}@keyframes edge-animation-frame{from{stroke-dashoffset:0;}}@keyframes dash{to{stroke-dashoffset:0;}}#my-svg .edge-animation-slow{stroke-dasharray:9,5!important;stroke-dashoffset:900;animation:dash 50s linear infinite;stroke-linecap:round;}#my-svg .edge-animation-fast{stroke-dasharray:9,5!important;stroke-dashoffset:900;animation:dash 20s linear infinite;stroke-linecap:round;}#my-svg .error-icon{fill:hsl(60, 11.1111111111%, 100%);}#my-svg .error-text{fill:rgb(0, 0, 0);stroke:rgb(0, 0, 0);}#my-svg .edge-thickness-normal{stroke-width:1px;}#my-svg .edge-thickness-thick{stroke-width:3.5px;}#my-svg .edge-pattern-solid{stroke-dasharray:0;}#my-svg .edge-thickness-invisible{stroke-width:0;fill:none;}#my-svg .edge-pattern-dashed{stroke-dasharray:3;}#my-svg .edge-pattern-dotted{stroke-dasharray:2;}#my-svg .marker{fill:#6e6e73;stroke:#6e6e73;}#my-svg .marker.cross{stroke:#6e6e73;}#my-svg svg{font-family:Inter,-apple-system,BlinkMacSystemFont,Segoe UI,sans-serif;font-size:15px;}#my-svg p{margin:0;}#my-svg .label{font-family:Inter,-apple-system,BlinkMacSystemFont,Segoe UI,sans-serif;color:#1d1d1f;}#my-svg .cluster-label text{fill:rgb(0, 0, 0);}#my-svg .cluster-label span{color:rgb(0, 0, 0);}#my-svg .cluster-label span p{background-color:transparent;}#my-svg .label text,#my-svg span{fill:#1d1d1f;color:#1d1d1f;}#my-svg .node rect,#my-svg .node circle,#my-svg .node ellipse,#my-svg .node polygon,#my-svg .node path{fill:#f5f5f7;stroke:hsl(240, 0%, 86.4705882353%);stroke-width:1px;}#my-svg .rough-node .label text,#my-svg .node .label text,#my-svg .image-shape .label,#my-svg .icon-shape .label{text-anchor:middle;}#my-svg .node .katex path{fill:#000;stroke:#000;stroke-width:1px;}#my-svg .rough-node .label,#my-svg .node .label,#my-svg .image-shape .label,#my-svg .icon-shape .label{text-align:center;}#my-svg .node.clickable{cursor:pointer;}#my-svg .root .anchor path{fill:#6e6e73!important;stroke-width:0;stroke:#6e6e73;}#my-svg .arrowheadPath{fill:#000000;}#my-svg .edgePath .path{stroke:#6e6e73;stroke-width:1px;}#my-svg .flowchart-link{stroke:#6e6e73;fill:none;}#my-svg .edgeLabel{background-color:hsl(120, 11.1111111111%, 96.4705882353%);text-align:center;}#my-svg .edgeLabel p{background-color:hsl(120, 11.1111111111%, 96.4705882353%);}#my-svg .edgeLabel rect{opacity:0.5;background-color:hsl(120, 11.1111111111%, 96.4705882353%);fill:hsl(120, 11.1111111111%, 96.4705882353%);}#my-svg .labelBkg{background-color:rgba(245, 247, 245, 0.5);}#my-svg .cluster rect{fill:hsl(60, 11.1111111111%, 100%);stroke:hsl(60, 0%, 90%);stroke-width:1px;}#my-svg .cluster text{fill:rgb(0, 0, 0);}#my-svg .cluster span{color:rgb(0, 0, 0);}#my-svg div.mermaidTooltip{position:absolute;text-align:center;max-width:200px;padding:2px;font-family:Inter,-apple-system,BlinkMacSystemFont,Segoe UI,sans-serif;font-size:12px;background:hsl(60, 11.1111111111%, 100%);border:1px solid hsl(60, 0%, 90%);border-radius:2px;pointer-events:none;z-index:100;}#my-svg .flowchartTitleText{text-anchor:middle;font-size:18px;fill:#1d1d1f;}#my-svg rect.text{fill:none;stroke-width:0;}#my-svg .icon-shape,#my-svg .image-shape{background-color:hsl(120, 11.1111111111%, 96.4705882353%);text-align:center;}#my-svg .icon-shape p,#my-svg .image-shape p{background-color:hsl(120, 11.1111111111%, 96.4705882353%);padding:2px;}#my-svg .icon-shape .label rect,#my-svg .image-shape .label rect{opacity:0.5;background-color:hsl(120, 11.1111111111%, 96.4705882353%);fill:hsl(120, 11.1111111111%, 96.4705882353%);}#my-svg .label-icon{display:inline-block;height:1em;overflow:visible;vertical-align:-0.125em;}#my-svg .node .label-icon path{fill:currentColor;stroke:revert;stroke-width:revert;}#my-svg .node .neo-node{stroke:hsl(240, 0%, 86.4705882353%);}#my-svg [data-look="neo"].node rect,#my-svg [data-look="neo"].cluster rect,#my-svg [data-look="neo"].node polygon{stroke:url(#my-svg-gradient);filter:drop-shadow( 1px 2px 2px rgba(185,185,185,1));}#my-svg [data-look="neo"].swimlane.cluster rect{filter:none;}#my-svg [data-look="neo"].node path{stroke:url(#my-svg-gradient);stroke-width:1px;}#my-svg [data-look="neo"].node .outer-path{filter:drop-shadow( 1px 2px 2px rgba(185,185,185,1));}#my-svg [data-look="neo"].node .neo-line path{stroke:hsl(240, 0%, 86.4705882353%);filter:none;}#my-svg [data-look="neo"].node circle{stroke:url(#my-svg-gradient);filter:drop-shadow( 1px 2px 2px rgba(185,185,185,1));}#my-svg [data-look="neo"].node circle .state-start{fill:#000000;}#my-svg [data-look="neo"].icon-shape .icon{fill:url(#my-svg-gradient);filter:drop-shadow( 1px 2px 2px rgba(185,185,185,1));}#my-svg [data-look="neo"].icon-shape .icon-neo path{stroke:url(#my-svg-gradient);filter:drop-shadow( 1px 2px 2px rgba(185,185,185,1));}#my-svg :root{--mermaid-font-family:Inter,-apple-system,BlinkMacSystemFont,Segoe UI,sans-serif;}#my-svg .person&gt;*{fill:rgb(232, 241, 251)!important;stroke:rgb(94, 143, 196)!important;color:rgb(16, 42, 67)!important;}#my-svg .person span{fill:rgb(232, 241, 251)!important;stroke:rgb(94, 143, 196)!important;color:rgb(16, 42, 67)!important;}#my-svg .person tspan{fill:rgb(16, 42, 67)!important;}#my-svg .step&gt;*{fill:rgb(245, 245, 247)!important;stroke:rgb(134, 134, 139)!important;color:rgb(29, 29, 31)!important;}#my-svg .step span{fill:rgb(245, 245, 247)!important;stroke:rgb(134, 134, 139)!important;color:rgb(29, 29, 31)!important;}#my-svg .step tspan{fill:rgb(29, 29, 31)!important;}#my-svg .store&gt;*{fill:rgb(238, 247, 238)!important;stroke:rgb(95, 149, 98)!important;color:rgb(24, 59, 27)!important;}#my-svg .store span{fill:rgb(238, 247, 238)!important;stroke:rgb(95, 149, 98)!important;color:rgb(24, 59, 27)!important;}#my-svg .store tspan{fill:rgb(24, 59, 27)!important;}#my-svg .note&gt;*{fill:rgb(241, 237, 255)!important;stroke:rgb(136, 114, 198)!important;color:rgb(46, 36, 80)!important;}#my-svg .note span{fill:rgb(241, 237, 255)!important;stroke:rgb(136, 114, 198)!important;color:rgb(46, 36, 80)!important;}#my-svg .note tspan{fill:rgb(46, 36, 80)!important;}</style><g><marker id="my-svg_flowchart-v2-pointEnd" class="marker flowchart-v2" viewBox="0 0 10 10" refX="5" refY="5" markerUnits="userSpaceOnUse" markerWidth="8" markerHeight="8" orient="auto"><path d="M 0 0 L 10 5 L 0 10 z" class="arrowMarkerPath" style="stroke-width: 1; stroke-dasharray: 1, 0;"/></marker><marker id="my-svg_flowchart-v2-pointStart" class="marker flowchart-v2" viewBox="0 0 10 10" refX="4.5" refY="5" markerUnits="userSpaceOnUse" markerWidth="8" markerHeight="8" orient="auto"><path d="M 0 5 L 10 10 L 10 0 z" class="arrowMarkerPath" style="stroke-width: 1; stroke-dasharray: 1, 0;"/></marker><marker id="my-svg_flowchart-v2-pointEnd-margin" class="marker flowchart-v2" viewBox="0 0 11.5 14" refX="11.5" refY="7" markerUnits="userSpaceOnUse" markerWidth="10.5" markerHeight="14" orient="auto"><path d="M 0 0 L 11.5 7 L 0 14 z" class="arrowMarkerPath" style="stroke-width: 0; stroke-dasharray: 1, 0;"/></marker><marker id="my-svg_flowchart-v2-pointStart-margin" class="marker flowchart-v2" viewBox="0 0 11.5 14" refX="1" refY="7" markerUnits="userSpaceOnUse" markerWidth="11.5" markerHeight="14" orient="auto"><polygon points="0,7 11.5,14 11.5,0" class="arrowMarkerPath" style="stroke-width: 0; stroke-dasharray: 1, 0;"/></marker><marker id="my-svg_flowchart-v2-circleEnd" class="marker flowchart-v2" viewBox="0 0 10 10" refX="11" refY="5" markerUnits="userSpaceOnUse" markerWidth="11" markerHeight="11" orient="auto"><circle cx="5" cy="5" r="5" class="arrowMarkerPath" style="stroke-width: 1; stroke-dasharray: 1, 0;"/></marker><marker id="my-svg_flowchart-v2-circleStart" class="marker flowchart-v2" viewBox="0 0 10 10" refX="-1" refY="5" markerUnits="userSpaceOnUse" markerWidth="11" markerHeight="11" orient="auto"><circle cx="5" cy="5" r="5" class="arrowMarkerPath" style="stroke-width: 1; stroke-dasharray: 1, 0;"/></marker><marker id="my-svg_flowchart-v2-circleEnd-margin" class="marker flowchart-v2" viewBox="0 0 10 10" refY="5" refX="12.25" markerUnits="userSpaceOnUse" markerWidth="14" markerHeight="14" orient="auto"><circle cx="5" cy="5" r="5" class="arrowMarkerPath" style="stroke-width: 0; stroke-dasharray: 1, 0;"/></marker><marker id="my-svg_flowchart-v2-circleStart-margin" class="marker flowchart-v2" viewBox="0 0 10 10" refX="-2" refY="5" markerUnits="userSpaceOnUse" markerWidth="14" markerHeight="14" orient="auto"><circle cx="5" cy="5" r="5" class="arrowMarkerPath" style="stroke-width: 0; stroke-dasharray: 1, 0;"/></marker><marker id="my-svg_flowchart-v2-crossEnd" class="marker cross flowchart-v2" viewBox="0 0 11 11" refX="12" refY="5.2" markerUnits="userSpaceOnUse" markerWidth="11" markerHeight="11" orient="auto"><path d="M 1,1 l 9,9 M 10,1 l -9,9" class="arrowMarkerPath" style="stroke-width: 2; stroke-dasharray: 1, 0;"/></marker><marker id="my-svg_flowchart-v2-crossStart" class="marker cross flowchart-v2" viewBox="0 0 11 11" refX="-1" refY="5.2" markerUnits="userSpaceOnUse" markerWidth="11" markerHeight="11" orient="auto"><path d="M 1,1 l 9,9 M 10,1 l -9,9" class="arrowMarkerPath" style="stroke-width: 2; stroke-dasharray: 1, 0;"/></marker><marker id="my-svg_flowchart-v2-crossEnd-margin" class="marker cross flowchart-v2" viewBox="0 0 15 15" refX="17.7" refY="7.5" markerUnits="userSpaceOnUse" markerWidth="12" markerHeight="12" orient="auto"><path d="M 1,1 L 14,14 M 1,14 L 14,1" class="arrowMarkerPath" style="stroke-width: 2.5;"/></marker><marker id="my-svg_flowchart-v2-crossStart-margin" class="marker cross flowchart-v2" viewBox="0 0 15 15" refX="-3.5" refY="7.5" markerUnits="userSpaceOnUse" markerWidth="12" markerHeight="12" orient="auto"><path d="M 1,1 L 14,14 M 1,14 L 14,1" class="arrowMarkerPath" style="stroke-width: 2.5; stroke-dasharray: 1, 0;"/></marker><g class="root"><g class="clusters"><g class="cluster" id="my-svg-Forms" data-look="classic"><rect style="" x="8" y="958" width="637.79296875" height="237.5"/><g class="cluster-label" transform="translate(278.099609375, 958)"><foreignObject width="97.59375" height="22.5"><div xmlns="http://www.w3.org/1999/xhtml" style="display: table-cell; white-space: nowrap; line-height: 1.5;"><span class="nodeLabel"><p>Memory forms</p></span></div></foreignObject></g></g></g><g class="edgePaths"><path d="M392.317,43.229L371.955,47.774C351.594,52.319,310.871,61.41,290.51,69.455C270.148,77.5,270.148,84.5,270.148,88L270.148,91.5" id="my-svg-L_User_Route_0" class="edge-thickness-normal edge-pattern-solid edge-thickness-normal edge-pattern-solid flowchart-link" style=";" data-edge="true" data-et="edge" data-id="L_User_Route_0" data-points="W3sieCI6MzkyLjMxNjg1Nzg4MjY2NTI2LCJ5Ijo0My4yMjg2MTUyMjIwMjE0NH0seyJ4IjoyNzAuMTQ4NDM3NSwieSI6NzAuNX0seyJ4IjoyNzAuMTQ4NDM3NSwieSI6OTUuNX1d" data-look="classic" marker-end="url(#my-svg_flowchart-v2-pointEnd)"/><path d="M270.148,170.5L270.148,174.667C270.148,178.833,270.148,187.167,270.148,194.833C270.148,202.5,270.148,209.5,270.148,213L270.148,216.5" id="my-svg-L_Route_Understand_0" class="edge-thickness-normal edge-pattern-solid edge-thickness-normal edge-pattern-solid flowchart-link" style=";" data-edge="true" data-et="edge" data-id="L_Route_Understand_0" data-points="W3sieCI6MjcwLjE0ODQzNzUsInkiOjE3MC41fSx7IngiOjI3MC4xNDg0Mzc1LCJ5IjoxOTUuNX0seyJ4IjoyNzAuMTQ4NDM3NSwieSI6MjIwLjV9XQ==" data-look="classic" marker-end="url(#my-svg_flowchart-v2-pointEnd)"/><path d="M270.148,295.5L270.148,299.667C270.148,303.833,270.148,312.167,270.148,319.833C270.148,327.5,270.148,334.5,270.148,338L270.148,341.5" id="my-svg-L_Understand_Retrieve_0" class="edge-thickness-normal edge-pattern-solid edge-thickness-normal edge-pattern-solid flowchart-link" style=";" data-edge="true" data-et="edge" data-id="L_Understand_Retrieve_0" data-points="W3sieCI6MjcwLjE0ODQzNzUsInkiOjI5NS41fSx7IngiOjI3MC4xNDg0Mzc1LCJ5IjozMjAuNX0seyJ4IjoyNzAuMTQ4NDM3NSwieSI6MzQ1LjV9XQ==" data-look="classic" marker-end="url(#my-svg_flowchart-v2-pointEnd)"/><path d="M370.781,411.929L390.244,417.525C409.707,423.12,448.633,434.31,468.096,443.405C487.559,452.5,487.559,459.5,487.559,463L487.559,466.5" id="my-svg-L_Retrieve_Curate_0" class="edge-thickness-normal edge-pattern-solid edge-thickness-normal edge-pattern-solid flowchart-link" style=";" data-edge="true" data-et="edge" data-id="L_Retrieve_Curate_0" data-points="W3sieCI6MzcwLjc4MTI1LCJ5Ijo0MTEuOTI5NDI0ODcwMTg3MDZ9LHsieCI6NDg3LjU1ODU5Mzc1LCJ5Ijo0NDUuNX0seyJ4Ijo0ODcuNTU4NTkzNzUsInkiOjQ3MC41fV0=" data-look="classic" marker-end="url(#my-svg_flowchart-v2-pointEnd)"/><path d="M487.559,545.5L487.559,549.667C487.559,553.833,487.559,562.167,490.829,570.002C494.099,577.838,500.639,585.176,503.91,588.845L507.18,592.514" id="my-svg-L_Curate_Answer_0" class="edge-thickness-normal edge-pattern-solid edge-thickness-normal edge-pattern-solid flowchart-link" style=";" data-edge="true" data-et="edge" data-id="L_Curate_Answer_0" data-points="W3sieCI6NDg3LjU1ODU5Mzc1LCJ5Ijo1NDUuNX0seyJ4Ijo0ODcuNTU4NTkzNzUsInkiOjU3MC41fSx7IngiOjUwOS44NDE0MzI3MzMwNTA4NSwieSI6NTk1LjV9XQ==" data-look="classic" marker-end="url(#my-svg_flowchart-v2-pointEnd)"/><path d="M596.745,595.5L600.458,591.333C604.172,587.167,611.6,578.833,615.314,564.25C619.027,549.667,619.027,528.833,619.027,508C619.027,487.167,619.027,466.333,619.027,445.5C619.027,424.667,619.027,403.833,619.027,383C619.027,362.167,619.027,341.333,619.027,320.5C619.027,299.667,619.027,278.833,619.027,258C619.027,237.167,619.027,216.333,619.027,195.5C619.027,174.667,619.027,153.833,619.027,133C619.027,112.167,619.027,91.333,604.397,76.903C589.766,62.472,560.505,54.444,545.874,50.43L531.243,46.416" id="my-svg-L_Answer_User_0" class="edge-thickness-normal edge-pattern-solid edge-thickness-normal edge-pattern-solid flowchart-link" style=";" data-edge="true" data-et="edge" data-id="L_Answer_User_0" data-points="W3sieCI6NTk2Ljc0NDUwNDc2Njk0OTEsInkiOjU5NS41fSx7IngiOjYxOS4wMjczNDM3NSwieSI6NTcwLjV9LHsieCI6NjE5LjAyNzM0Mzc1LCJ5Ijo1MDh9LHsieCI6NjE5LjAyNzM0Mzc1LCJ5Ijo0NDUuNX0seyJ4Ijo2MTkuMDI3MzQzNzUsInkiOjM4M30seyJ4Ijo2MTkuMDI3MzQzNzUsInkiOjMyMC41fSx7IngiOjYxOS4wMjczNDM3NSwieSI6MjU4fSx7IngiOjYxOS4wMjczNDM3NSwieSI6MTk1LjV9LHsieCI6NjE5LjAyNzM0Mzc1LCJ5IjoxMzN9LHsieCI6NjE5LjAyNzM0Mzc1LCJ5Ijo3MC41fSx7IngiOjUyNy4zODU5ODkxMDc2NDMyLCJ5Ijo0NS4zNTc0ODExMjgyMjk3MX1d" data-look="classic" marker-end="url(#my-svg_flowchart-v2-pointEnd)"/><path d="M201.622,420.5L194.008,424.667C186.394,428.833,171.166,437.167,163.552,451.75C155.938,466.333,155.938,487.167,155.938,508C155.938,528.833,155.938,549.667,155.938,572.375C155.938,595.083,155.938,619.667,155.938,646.125C155.938,672.583,155.938,700.917,155.938,729.25C155.938,757.583,155.938,785.917,155.938,816.125C155.938,846.333,155.938,878.417,155.938,902.375C155.938,926.333,155.938,942.167,155.938,959.208C155.938,976.25,155.938,994.5,155.938,1003.625L155.938,1012.75" id="my-svg-L_Retrieve_Short_0" class="edge-thickness-normal edge-pattern-dotted edge-thickness-normal edge-pattern-solid flowchart-link" style=";" data-edge="true" data-et="edge" data-id="L_Retrieve_Short_0" data-points="W3sieCI6MjAxLjYyMTg3NSwieSI6NDIwLjV9LHsieCI6MTU1LjkzNzUsInkiOjQ0NS41fSx7IngiOjE1NS45Mzc1LCJ5Ijo1MDh9LHsieCI6MTU1LjkzNzUsInkiOjU3MC41fSx7IngiOjE1NS45Mzc1LCJ5Ijo2NDQuMjV9LHsieCI6MTU1LjkzNzUsInkiOjcyOS4yNX0seyJ4IjoxNTUuOTM3NSwieSI6ODE0LjI1fSx7IngiOjE1NS45Mzc1LCJ5Ijo5MTAuNX0seyJ4IjoxNTUuOTM3NSwieSI6OTU4fSx7IngiOjE1NS45Mzc1LCJ5IjoxMDE2Ljc1fV0=" data-look="classic" marker-end="url(#my-svg_flowchart-v2-pointEnd)"/><path d="M306.27,420.5L310.284,424.667C314.297,428.833,322.324,437.167,326.338,451.75C330.352,466.333,330.352,487.167,330.352,508C330.352,528.833,330.352,549.667,330.352,572.375C330.352,595.083,330.352,619.667,330.352,646.125C330.352,672.583,330.352,700.917,330.352,729.25C330.352,757.583,330.352,785.917,330.352,816.125C330.352,846.333,330.352,878.417,330.352,902.375C330.352,926.333,330.352,942.167,334.47,953.803C338.588,965.44,346.824,972.879,350.943,976.599L355.061,980.319" id="my-svg-L_Retrieve_Long_0" class="edge-thickness-normal edge-pattern-dotted edge-thickness-normal edge-pattern-solid flowchart-link" style=";" data-edge="true" data-et="edge" data-id="L_Retrieve_Long_0" data-points="W3sieCI6MzA2LjI3MDMxMjUsInkiOjQyMC41fSx7IngiOjMzMC4zNTE1NjI1LCJ5Ijo0NDUuNX0seyJ4IjozMzAuMzUxNTYyNSwieSI6NTA4fSx7IngiOjMzMC4zNTE1NjI1LCJ5Ijo1NzAuNX0seyJ4IjozMzAuMzUxNTYyNSwieSI6NjQ0LjI1fSx7IngiOjMzMC4zNTE1NjI1LCJ5Ijo3MjkuMjV9LHsieCI6MzMwLjM1MTU2MjUsInkiOjgxNC4yNX0seyJ4IjozMzAuMzUxNTYyNSwieSI6OTEwLjV9LHsieCI6MzMwLjM1MTU2MjUsInkiOjk1OH0seyJ4IjozNTguMDI5MTk0MDc4OTQ3NCwieSI6OTgzfV0=" data-look="classic" marker-end="url(#my-svg_flowchart-v2-pointEnd)"/><path d="M553.293,693L553.293,699.042C553.293,705.083,553.293,717.167,553.293,728.583C553.293,740,553.293,750.75,553.293,756.125L553.293,761.5" id="my-svg-L_Answer_Save_0" class="edge-thickness-normal edge-pattern-dotted edge-thickness-normal edge-pattern-solid flowchart-link" style=";" data-edge="true" data-et="edge" data-id="L_Answer_Save_0" data-points="W3sieCI6NTUzLjI5Mjk2ODc1LCJ5Ijo2OTN9LHsieCI6NTUzLjI5Mjk2ODc1LCJ5Ijo3MjkuMjV9LHsieCI6NTUzLjI5Mjk2ODc1LCJ5Ijo3NjUuNX1d" data-look="classic" marker-end="url(#my-svg_flowchart-v2-pointEnd)"/><path d="M553.293,863L553.293,870.917C553.293,878.833,553.293,894.667,553.293,910.5C553.293,926.333,553.293,942.167,550.49,953.722C547.687,965.277,542.082,972.554,539.279,976.193L536.477,979.831" id="my-svg-L_Save_Long_0" class="edge-thickness-normal edge-pattern-solid edge-thickness-normal edge-pattern-solid flowchart-link" style=";" data-edge="true" data-et="edge" data-id="L_Save_Long_0" data-points="W3sieCI6NTUzLjI5Mjk2ODc1LCJ5Ijo4NjN9LHsieCI6NTUzLjI5Mjk2ODc1LCJ5Ijo5MTAuNX0seyJ4Ijo1NTMuMjkyOTY4NzUsInkiOjk1OH0seyJ4Ijo1MzQuMDM1NTY3NDM0MjEwNSwieSI6OTgzfV0=" data-look="classic" marker-end="url(#my-svg_flowchart-v2-pointEnd)"/><path d="M155.938,1136.75L155.938,1146.542C155.938,1156.333,155.938,1175.917,155.938,1189.875C155.938,1203.833,155.938,1212.167,162.839,1220.5C169.74,1228.833,183.542,1237.167,190.443,1241.333L197.344,1245.5" id="my-svg-L_Short_Control_0" class="edge-thickness-normal edge-pattern-solid edge-thickness-normal edge-pattern-solid flowchart-link" style=";" data-edge="true" data-et="edge" data-id="L_Short_Control_0" data-points="W3sieCI6MTU1LjkzNzUsInkiOjExMzYuNzV9LHsieCI6MTU1LjkzNzUsInkiOjExOTUuNX0seyJ4IjoxNTUuOTM3NSwieSI6MTIyMC41fSx7IngiOjE5Ny4zNDM3NSwieSI6MTI0NS41fV0=" data-look="classic"/><path d="M461.82,1170.5L461.82,1174.667C461.82,1178.833,461.82,1187.167,461.82,1195.5C461.82,1203.833,461.82,1212.167,455.48,1220.5C449.139,1228.833,436.458,1237.167,430.117,1241.333L423.776,1245.5" id="my-svg-L_Long_Control_0" class="edge-thickness-normal edge-pattern-solid edge-thickness-normal edge-pattern-solid flowchart-link" style=";" data-edge="true" data-et="edge" data-id="L_Long_Control_0" data-points="W3sieCI6NDYxLjgyMDMxMjUsInkiOjExNzAuNX0seyJ4Ijo0NjEuODIwMzEyNSwieSI6MTE5NS41fSx7IngiOjQ2MS44MjAzMTI1LCJ5IjoxMjIwLjV9LHsieCI6NDIzLjc3NjQ4MTMzMTE2ODg0LCJ5IjoxMjQ1LjV9XQ==" data-look="classic"/></g><g class="edgeLabels"><g class="edgeLabel"><g class="label" data-id="L_User_Route_0" transform="translate(0, 0)"><foreignObject width="0" height="0"><div xmlns="http://www.w3.org/1999/xhtml" class="labelBkg" style="display: table-cell; white-space: nowrap; line-height: 1.5; max-width: 200px; text-align: center;"><span class="edgeLabel"></span></div></foreignObject></g></g><g class="edgeLabel"><g class="label" data-id="L_Route_Understand_0" transform="translate(0, 0)"><foreignObject width="0" height="0"><div xmlns="http://www.w3.org/1999/xhtml" class="labelBkg" style="display: table-cell; white-space: nowrap; line-height: 1.5; max-width: 200px; text-align: center;"><span class="edgeLabel"></span></div></foreignObject></g></g><g class="edgeLabel"><g class="label" data-id="L_Understand_Retrieve_0" transform="translate(0, 0)"><foreignObject width="0" height="0"><div xmlns="http://www.w3.org/1999/xhtml" class="labelBkg" style="display: table-cell; white-space: nowrap; line-height: 1.5; max-width: 200px; text-align: center;"><span class="edgeLabel"></span></div></foreignObject></g></g><g class="edgeLabel"><g class="label" data-id="L_Retrieve_Curate_0" transform="translate(0, 0)"><foreignObject width="0" height="0"><div xmlns="http://www.w3.org/1999/xhtml" class="labelBkg" style="display: table-cell; white-space: nowrap; line-height: 1.5; max-width: 200px; text-align: center;"><span class="edgeLabel"></span></div></foreignObject></g></g><g class="edgeLabel"><g class="label" data-id="L_Curate_Answer_0" transform="translate(0, 0)"><foreignObject width="0" height="0"><div xmlns="http://www.w3.org/1999/xhtml" class="labelBkg" style="display: table-cell; white-space: nowrap; line-height: 1.5; max-width: 200px; text-align: center;"><span class="edgeLabel"></span></div></foreignObject></g></g><g class="edgeLabel"><g class="label" data-id="L_Answer_User_0" transform="translate(0, 0)"><foreignObject width="0" height="0"><div xmlns="http://www.w3.org/1999/xhtml" class="labelBkg" style="display: table-cell; white-space: nowrap; line-height: 1.5; max-width: 200px; text-align: center;"><span class="edgeLabel"></span></div></foreignObject></g></g><g class="edgeLabel" transform="translate(155.9375, 644.25)"><g class="label" data-id="L_Retrieve_Short_0" transform="translate(-17.9453125, -11.25)"><foreignObject width="35.890625" height="22.5"><div xmlns="http://www.w3.org/1999/xhtml" class="labelBkg" style="display: table-cell; white-space: nowrap; line-height: 1.5; max-width: 200px; text-align: center;"><span class="edgeLabel"><p>reads</p></span></div></foreignObject></g></g><g class="edgeLabel" transform="translate(330.3515625, 644.25)"><g class="label" data-id="L_Retrieve_Long_0" transform="translate(-17.9453125, -11.25)"><foreignObject width="35.890625" height="22.5"><div xmlns="http://www.w3.org/1999/xhtml" class="labelBkg" style="display: table-cell; white-space: nowrap; line-height: 1.5; max-width: 200px; text-align: center;"><span class="edgeLabel"><p>reads</p></span></div></foreignObject></g></g><g class="edgeLabel" transform="translate(553.29296875, 729.25)"><g class="label" data-id="L_Answer_Save_0" transform="translate(-28.546875, -11.25)"><foreignObject width="57.09375" height="22.5"><div xmlns="http://www.w3.org/1999/xhtml" class="labelBkg" style="display: table-cell; white-space: nowrap; line-height: 1.5; max-width: 200px; text-align: center;"><span class="edgeLabel"><p>classifies</p></span></div></foreignObject></g></g><g class="edgeLabel" transform="translate(553.29296875, 910.5)"><g class="label" data-id="L_Save_Long_0" transform="translate(-67.390625, -22.5)"><foreignObject width="134.78125" height="45"><div xmlns="http://www.w3.org/1999/xhtml" class="labelBkg" style="display: table-cell; white-space: nowrap; line-height: 1.5; max-width: 200px; text-align: center;"><span class="edgeLabel"><p>written immediately,<br />no approval step</p></span></div></foreignObject></g></g><g class="edgeLabel"><g class="label" data-id="L_Short_Control_0" transform="translate(0, 0)"><foreignObject width="0" height="0"><div xmlns="http://www.w3.org/1999/xhtml" class="labelBkg" style="display: table-cell; white-space: nowrap; line-height: 1.5; max-width: 200px; text-align: center;"><span class="edgeLabel"></span></div></foreignObject></g></g><g class="edgeLabel"><g class="label" data-id="L_Long_Control_0" transform="translate(0, 0)"><foreignObject width="0" height="0"><div xmlns="http://www.w3.org/1999/xhtml" class="labelBkg" style="display: table-cell; white-space: nowrap; line-height: 1.5; max-width: 200px; text-align: center;"><span class="edgeLabel"></span></div></foreignObject></g></g></g><g class="nodes"><g class="node default person" id="my-svg-flowchart-User-0" data-look="classic" transform="translate(461.8203125, 26.75)"><g class="basic label-container outer-path"><path d="M-60.2109375 -18.75 C-17.563167848780253 -18.75, 25.084601802439494 -18.75, 60.2109375 -18.75 C60.2109375 -18.75, 60.2109375 -18.75, 60.2109375 -18.75 C60.50811236109398 -18.74047018062049, 60.80528722218796 -18.730940361240986, 61.412254124638366 -18.711476114068805 C61.742532465435275 -18.679614559749947, 62.072810806232184 -18.647753005431092, 62.608634281584486 -18.596062759185866 C62.86231689949535 -18.55504932086012, 63.11599951740621 -18.51403588253438, 63.79516178815073 -18.40423419358248 C64.193072472556 -18.313413676476856, 64.59098315696126 -18.222593159371236, 64.96696094830325 -18.136778681981802 C65.40196514194925 -18.00767172069128, 65.83696933559524 -17.878564759400756, 66.11921658794289 -17.794795256450037 C66.45948522590477 -17.669573252271253, 66.79975386386667 -17.54435124809247, 67.24719384148827 -17.37968920023791 C67.60472468322646 -17.221420902376003, 67.96225552496468 -17.063152604514094, 68.34625760845421 -16.89316627317036 C68.61331896982394 -16.75384053200474, 68.88038033119366 -16.614514790839124, 69.41189160007383 -16.337225702313553 C69.7189927971637 -16.151059151910722, 70.02609399425356 -15.964892601507891, 70.43971689769779 -15.714151966722014 C70.82291232389686 -15.44685142566819, 71.20610775009591 -15.179550884614365, 71.42550994671029 -15.026505410024187 C71.71285638893227 -14.797354268962136, 72.00020283115423 -14.568203127900084, 72.36521991202103 -14.277111719421272 C72.67027541263329 -14.00006838509148, 72.97533091324553 -13.723025050761688, 73.25498532381538 -13.469050314332392 C73.4818336718922 -13.234810770347318, 73.70868201996903 -13.000571226362243, 74.09114994516216 -12.605641692399693 C74.2801879770927 -12.383586863525347, 74.46922600902323 -12.161532034650998, 74.87027779627556 -11.690433784851255 C75.15534575916773 -11.308468684801426, 75.4404137220599 -10.926503584751597, 75.58916727369292 -10.727187377290685 C75.77838566802559 -10.43649711134243, 75.96760406235828 -10.145806845394175, 76.24486430635024 -9.719860655822346 C76.46345953355684 -9.331722694750011, 76.68205476076345 -8.943584733677676, 76.83467449449375 -8.672592942015662 C76.97084639562367 -8.389829075707475, 77.10701829675357 -8.107065209399288, 77.35617418154648 -7.589687683544889 C77.51451722178086 -7.198577312811543, 77.67286026201525 -6.807466942078198, 77.807220413433 -6.475594770399527 C77.93394815549648 -6.093911002627999, 78.06067589755996 -5.71222723485647, 78.18595974443738 -5.334892249331864 C78.25868709946991 -5.0575513243578, 78.33141445450242 -4.780210399383738, 78.4908358534092 -4.172267511680897 C78.53775277064771 -3.9313590575550847, 78.58466968788623 -3.6904506034292717, 78.72059593902094 -2.9924980318758676 C78.75959490064336 -2.6900297867483984, 78.79859386226579 -2.3875615416209297, 78.87429586779747 -1.8004317357690365 C78.89476351137552 -1.4816316658565065, 78.91523115495355 -1.1628315959439768, 78.9513040537629 -0.6009670794685343 C78.9513040537629 -0.2518355854040962, 78.9513040537629 0.09729590866034199, 78.9513040537629 0.6009670794685298 C78.93127097252665 0.912998490135241, 78.9112378912904 1.2250299008019523, 78.87429586779747 1.8004317357690236 C78.82422778095342 2.1887499302694664, 78.77415969410936 2.5770681247699097, 78.72059593902094 2.9924980318758543 C78.64682824536877 3.371279547972219, 78.57306055171658 3.750061064068584, 78.4908358534092 4.172267511680893 C78.38022267533847 4.59408349971917, 78.26960949726775 5.015899487757447, 78.18595974443738 5.334892249331851 C78.09727893299136 5.601984724038779, 78.00859812154533 5.869077198745707, 77.80722041343301 6.475594770399514 C77.68693971114374 6.7726904305232285, 77.56665900885444 7.069786090646942, 77.35617418154649 7.589687683544883 C77.20269799653325 7.9083842655891665, 77.04922181152001 8.22708084763345, 76.83467449449375 8.672592942015656 C76.69441894027554 8.921630880945013, 76.55416338605733 9.17066881987437, 76.24486430635024 9.719860655822343 C76.09952169725452 9.94314593334863, 75.95417908815878 10.166431210874917, 75.58916727369292 10.727187377290674 C75.33783390504202 11.063951194341962, 75.08650053639113 11.400715011393252, 74.87027779627556 11.690433784851251 C74.58553320480151 12.024910984422924, 74.30078861332746 12.359388183994598, 74.09114994516217 12.605641692399683 C73.82672334578831 12.87868386608076, 73.56229674641443 13.151726039761837, 73.25498532381538 13.469050314332389 C72.9936443037479 13.706393314053194, 72.73230328368042 13.943736313774002, 72.36521991202105 14.27711171942126 C72.12619925578993 14.467724332158783, 71.88717859955882 14.658336944896305, 71.4255099467103 15.026505410024184 C71.11846878192685 15.240684034979319, 70.8114276171434 15.454862659934456, 70.43971689769779 15.714151966722007 C70.10250696398013 15.918570610207182, 69.76529703026249 16.122989253692356, 69.41189160007383 16.337225702313553 C69.1501594747987 16.473771184422162, 68.88842734952358 16.610316666530768, 68.34625760845422 16.89316627317036 C68.01090645756746 17.04161627982948, 67.6755553066807 17.190066286488605, 67.24719384148827 17.379689200237905 C66.82963366784975 17.533355204020815, 66.41207349421123 17.687021207803724, 66.1192165879429 17.794795256450033 C65.75927715205817 17.901623391659967, 65.39933771617343 18.008451526869905, 64.96696094830328 18.1367786819818 C64.53146226090934 18.236178415484943, 64.09596357351538 18.33557814898809, 63.795161788150736 18.404234193582475 C63.45577529983721 18.45910356903148, 63.116388811523684 18.513972944480486, 62.6086342815845 18.596062759185862 C62.136490237824646 18.641609927251086, 61.664346194064784 18.68715709531631, 61.412254124638366 18.711476114068805 C60.962958514715176 18.72588414977819, 60.51366290479199 18.740292185487576, 60.2109375 18.75 C60.2109375 18.75, 60.2109375 18.75, 60.2109375 18.75 C21.739734425491385 18.75, -16.73146864901723 18.75, -60.2109375 18.75 C-60.680851686768804 18.7349307666628, -61.150765873537615 18.719861533325602, -61.41225412463836 18.711476114068805 C-61.81733228973812 18.6723987106594, -62.22241045483787 18.633321307249997, -62.60863428158449 18.596062759185862 C-62.85908764036777 18.555571402432587, -63.109540999151044 18.515080045679316, -63.79516178815073 18.404234193582475 C-64.13073455465356 18.327641899445155, -64.46630732115638 18.251049605307834, -64.96696094830325 18.136778681981802 C-65.33825419609227 18.02658079499605, -65.70954744388129 17.9163829080103, -66.11921658794287 17.79479525645004 C-66.43470508702106 17.678692572445552, -66.75019358609926 17.562589888441064, -67.24719384148827 17.37968920023791 C-67.67791355559302 17.189022359650092, -68.10863326969776 16.998355519062276, -68.34625760845421 16.893166273170362 C-68.67007477943687 16.724231062483508, -68.99389195041952 16.55529585179665, -69.41189160007383 16.337225702313557 C-69.65539877404056 16.189610222447932, -69.89890594800728 16.041994742582308, -70.43971689769778 15.714151966722019 C-70.73418517966353 15.50874364054919, -71.02865346162928 15.30333531437636, -71.42550994671029 15.026505410024189 C-71.65169042315283 14.846132498976527, -71.87787089959537 14.665759587928866, -72.36521991202103 14.277111719421274 C-72.71771789511712 13.95698237775896, -73.0702158782132 13.636853036096644, -73.25498532381536 13.469050314332401 C-73.48340620222712 13.233187003669372, -73.71182708063888 12.997323693006342, -74.09114994516217 12.60564169239969 C-74.35963964402208 12.290258414622178, -74.62812934288199 11.974875136844666, -74.87027779627556 11.690433784851257 C-75.0571832629678 11.43999748692197, -75.24408872966002 11.18956118899268, -75.58916727369292 10.727187377290688 C-75.77804451049892 10.437021220917039, -75.96692174730491 10.146855064543391, -76.24486430635024 9.719860655822355 C-76.42580213769374 9.398587214329792, -76.60673996903724 9.077313772837229, -76.83467449449375 8.672592942015664 C-77.03660478340763 8.253280376469975, -77.2385350723215 7.833967810924288, -77.35617418154648 7.5896876835448905 C-77.49781828105668 7.239824019252327, -77.63946238056688 6.889960354959764, -77.807220413433 6.475594770399529 C-77.90235806579236 6.189055319619527, -77.99749571815173 5.902515868839524, -78.18595974443738 5.334892249331858 C-78.28330322200387 4.963679380440822, -78.38064669957035 4.5924665115497865, -78.4908358534092 4.172267511680899 C-78.56742924052405 3.7789766568642507, -78.64402262763889 3.385685802047602, -78.72059593902094 2.9924980318758694 C-78.75927382886756 2.6925199560387045, -78.79795171871417 2.39254188020154, -78.87429586779746 1.8004317357690471 C-78.90260304044497 1.3595246726455885, -78.93091021309247 0.9186176095221299, -78.9513040537629 0.6009670794685367 C-78.9513040537629 0.3268191805464716, -78.9513040537629 0.052671281624406485, -78.9513040537629 -0.6009670794685276 C-78.92974150261608 -0.9368212185581809, -78.90817895146927 -1.2726753576478342, -78.87429586779747 -1.8004317357690214 C-78.8417530106979 -2.0528277091192413, -78.80921015359834 -2.305223682469461, -78.72059593902094 -2.9924980318758605 C-78.66330173417947 -3.286691664602342, -78.606007529338 -3.580885297328823, -78.4908358534092 -4.17226751168089 C-78.40158271988352 -4.5126283923670245, -78.31232958635786 -4.85298927305316, -78.18595974443738 -5.334892249331849 C-78.05761344242389 -5.721450861790346, -77.92926714041039 -6.108009474248842, -77.80722041343301 -6.475594770399505 C-77.65574798817002 -6.849734589319228, -77.50427556290703 -7.223874408238951, -77.35617418154649 -7.589687683544882 C-77.24479867007211 -7.820961316175602, -77.13342315859775 -8.052234948806321, -76.83467449449375 -8.672592942015655 C-76.68846235397119 -8.932207403098166, -76.54225021344861 -9.19182186418068, -76.24486430635024 -9.719860655822348 C-76.05732033383259 -10.007978560217502, -75.86977636131495 -10.296096464612656, -75.58916727369292 -10.727187377290681 C-75.39433627358571 -10.988243167965091, -75.19950527347851 -11.249298958639502, -74.87027779627556 -11.690433784851251 C-74.59249552237648 -12.016732650032258, -74.31471324847742 -12.343031515213266, -74.09114994516217 -12.605641692399683 C-73.75791194345143 -12.949737288514774, -73.42467394174069 -13.293832884629865, -73.25498532381538 -13.469050314332382 C-73.03167749035892 -13.671852580276035, -72.80836965690246 -13.874654846219688, -72.36521991202105 -14.277111719421258 C-72.06291136983762 -14.518194737044379, -71.76060282765418 -14.759277754667501, -71.4255099467103 -15.026505410024182 C-71.16589546327575 -15.207601235138279, -70.90628097984117 -15.388697060252378, -70.43971689769779 -15.714151966722005 C-70.11806713425443 -15.909137943545193, -69.79641737081107 -16.104123920368384, -69.41189160007383 -16.33722570231355 C-68.99216645904035 -16.556196039543934, -68.57244131800687 -16.775166376774322, -68.34625760845422 -16.89316627317036 C-68.00559893742572 -17.043965761554244, -67.66494026639721 -17.19476524993813, -67.24719384148827 -17.379689200237905 C-66.8580392897918 -17.522901672567446, -66.46888473809534 -17.666114144896987, -66.1192165879429 -17.794795256450033 C-65.8190341759657 -17.883887820635234, -65.5188517639885 -17.972980384820435, -64.96696094830328 -18.136778681981795 C-64.64655195345205 -18.209909944192496, -64.32614295860081 -18.283041206403198, -63.795161788150736 -18.40423419358247 C-63.44357866072458 -18.46107542705686, -63.09199553329844 -18.517916660531245, -62.6086342815845 -18.596062759185862 C-62.17661272071739 -18.637739359580767, -61.74459115985028 -18.679415959975675, -61.412254124638366 -18.711476114068805 C-61.12403030749431 -18.72071889089099, -60.835806490350244 -18.729961667713173, -60.21093750000001 -18.75 C-60.21093750000001 -18.75, -60.2109375 -18.75, -60.2109375 -18.75" stroke="none" stroke-width="0" fill="#e8f1fb" style="fill:#e8f1fb !important;stroke:#5e8fc4 !important"/><path d="M-60.2109375 -18.75 C-33.62296704472055 -18.75, -7.034996589441107 -18.75, 60.2109375 -18.75 M-60.2109375 -18.75 C-25.987650135918415 -18.75, 8.23563722816317 -18.75, 60.2109375 -18.75 M60.2109375 -18.75 C60.2109375 -18.75, 60.2109375 -18.75, 60.2109375 -18.75 M60.2109375 -18.75 C60.2109375 -18.75, 60.2109375 -18.75, 60.2109375 -18.75 M60.2109375 -18.75 C60.5549792435061 -18.73896725092239, 60.89902098701219 -18.72793450184478, 61.412254124638366 -18.711476114068805 M60.2109375 -18.75 C60.498492219345785 -18.74077867984189, 60.78604693869157 -18.731557359683773, 61.412254124638366 -18.711476114068805 M61.412254124638366 -18.711476114068805 C61.82142979510925 -18.67200342924422, 62.23060546558014 -18.632530744419636, 62.608634281584486 -18.596062759185866 M61.412254124638366 -18.711476114068805 C61.65475270067606 -18.688082568085658, 61.89725127671375 -18.664689022102507, 62.608634281584486 -18.596062759185866 M62.608634281584486 -18.596062759185866 C63.00210148860482 -18.53245003253858, 63.39556869562515 -18.4688373058913, 63.79516178815073 -18.40423419358248 M62.608634281584486 -18.596062759185866 C62.94680769956653 -18.541389503540554, 63.28498111754857 -18.486716247895245, 63.79516178815073 -18.40423419358248 M63.79516178815073 -18.40423419358248 C64.12052163999424 -18.32997293057065, 64.44588149183775 -18.25571166755882, 64.96696094830325 -18.136778681981802 M63.79516178815073 -18.40423419358248 C64.10795710684437 -18.33284070327087, 64.420752425538 -18.261447212959258, 64.96696094830325 -18.136778681981802 M64.96696094830325 -18.136778681981802 C65.25339037474562 -18.051767931712448, 65.53981980118799 -17.966757181443096, 66.11921658794289 -17.794795256450037 M64.96696094830325 -18.136778681981802 C65.30425244795678 -18.036672335363846, 65.6415439476103 -17.93656598874589, 66.11921658794289 -17.794795256450037 M66.11921658794289 -17.794795256450037 C66.35611966180517 -17.707612735360712, 66.59302273566745 -17.620430214271384, 67.24719384148827 -17.37968920023791 M66.11921658794289 -17.794795256450037 C66.56471829764 -17.63084650910884, 67.01022000733713 -17.46689776176764, 67.24719384148827 -17.37968920023791 M67.24719384148827 -17.37968920023791 C67.65433302382525 -17.199460761572062, 68.06147220616222 -17.019232322906216, 68.34625760845421 -16.89316627317036 M67.24719384148827 -17.37968920023791 C67.57447972339197 -17.23480944890988, 67.90176560529568 -17.089929697581848, 68.34625760845421 -16.89316627317036 M68.34625760845421 -16.89316627317036 C68.71119827567247 -16.702776960838243, 69.07613894289075 -16.512387648506124, 69.41189160007383 -16.337225702313553 M68.34625760845421 -16.89316627317036 C68.74908079212051 -16.683013676272214, 69.15190397578681 -16.472861079374074, 69.41189160007383 -16.337225702313553 M69.41189160007383 -16.337225702313553 C69.77508662972417 -16.117054740968612, 70.13828165937451 -15.896883779623673, 70.43971689769779 -15.714151966722014 M69.41189160007383 -16.337225702313553 C69.78518637055805 -16.110932218722446, 70.15848114104229 -15.884638735131336, 70.43971689769779 -15.714151966722014 M70.43971689769779 -15.714151966722014 C70.73601068972789 -15.50747024375335, 71.03230448175798 -15.300788520784685, 71.42550994671029 -15.026505410024187 M70.43971689769779 -15.714151966722014 C70.7694049585744 -15.484175847420618, 71.09909301945102 -15.254199728119223, 71.42550994671029 -15.026505410024187 M71.42550994671029 -15.026505410024187 C71.6430201637165 -14.853046800151704, 71.86053038072271 -14.679588190279219, 72.36521991202103 -14.277111719421272 M71.42550994671029 -15.026505410024187 C71.78887581619188 -14.736730798684505, 72.15224168567347 -14.446956187344824, 72.36521991202103 -14.277111719421272 M72.36521991202103 -14.277111719421272 C72.61187278342713 -14.053108107687615, 72.85852565483323 -13.829104495953956, 73.25498532381538 -13.469050314332392 M72.36521991202103 -14.277111719421272 C72.61328866512682 -14.051822241390136, 72.8613574182326 -13.826532763358998, 73.25498532381538 -13.469050314332392 M73.25498532381538 -13.469050314332392 C73.55697484226293 -13.157221342734719, 73.85896436071049 -12.845392371137045, 74.09114994516216 -12.605641692399693 M73.25498532381538 -13.469050314332392 C73.47749183522482 -13.23929407317781, 73.69999834663426 -13.009537832023227, 74.09114994516216 -12.605641692399693 M74.09114994516216 -12.605641692399693 C74.30332226153556 -12.356412016640686, 74.51549457790895 -12.107182340881678, 74.87027779627556 -11.690433784851255 M74.09114994516216 -12.605641692399693 C74.2514438904797 -12.417351303245836, 74.41173783579724 -12.229060914091978, 74.87027779627556 -11.690433784851255 M74.87027779627556 -11.690433784851255 C75.14881639435266 -11.317217438816249, 75.42735499242976 -10.944001092781244, 75.58916727369292 -10.727187377290685 M74.87027779627556 -11.690433784851255 C75.09420115933536 -11.390396878189165, 75.31812452239515 -11.090359971527073, 75.58916727369292 -10.727187377290685 M75.58916727369292 -10.727187377290685 C75.81832584606737 -10.375138272430766, 76.04748441844181 -10.023089167570847, 76.24486430635024 -9.719860655822346 M75.58916727369292 -10.727187377290685 C75.73968384160206 -10.495953509624531, 75.89020040951118 -10.264719641958377, 76.24486430635024 -9.719860655822346 M76.24486430635024 -9.719860655822346 C76.37248830943534 -9.493251315013076, 76.50011231252044 -9.266641974203807, 76.83467449449375 -8.672592942015662 M76.24486430635024 -9.719860655822346 C76.38954467547057 -9.46296600997318, 76.53422504459091 -9.206071364124012, 76.83467449449375 -8.672592942015662 M76.83467449449375 -8.672592942015662 C76.95614380152334 -8.420359326941899, 77.07761310855294 -8.168125711868136, 77.35617418154648 -7.589687683544889 M76.83467449449375 -8.672592942015662 C76.98906527564141 -8.351997181529043, 77.14345605678906 -8.031401421042425, 77.35617418154648 -7.589687683544889 M77.35617418154648 -7.589687683544889 C77.50610168688567 -7.219363846705948, 77.65602919222488 -6.849040009867008, 77.807220413433 -6.475594770399527 M77.35617418154648 -7.589687683544889 C77.48128048834944 -7.280672686975673, 77.6063867951524 -6.971657690406457, 77.807220413433 -6.475594770399527 M77.807220413433 -6.475594770399527 C77.93439315074639 -6.092570747835652, 78.06156588805976 -5.709546725271777, 78.18595974443738 -5.334892249331864 M77.807220413433 -6.475594770399527 C77.89565649300238 -6.209239389112349, 77.98409257257174 -5.94288400782517, 78.18595974443738 -5.334892249331864 M78.18595974443738 -5.334892249331864 C78.27623042240178 -4.990651030694285, 78.3665011003662 -4.6464098120567074, 78.4908358534092 -4.172267511680897 M78.18595974443738 -5.334892249331864 C78.30781140485925 -4.870219057299614, 78.4296630652811 -4.4055458652673645, 78.4908358534092 -4.172267511680897 M78.4908358534092 -4.172267511680897 C78.54018162359316 -3.9188874110185066, 78.5895273937771 -3.6655073103561158, 78.72059593902094 -2.9924980318758676 M78.4908358534092 -4.172267511680897 C78.57465831277914 -3.7418568986993392, 78.65848077214906 -3.311446285717781, 78.72059593902094 -2.9924980318758676 M78.72059593902094 -2.9924980318758676 C78.77984930852283 -2.5329405989204643, 78.83910267802473 -2.073383165965061, 78.87429586779747 -1.8004317357690365 M78.72059593902094 -2.9924980318758676 C78.77421868847486 -2.576610576120841, 78.82784143792878 -2.160723120365814, 78.87429586779747 -1.8004317357690365 M78.87429586779747 -1.8004317357690365 C78.8986280172151 -1.4214388680318584, 78.92296016663273 -1.0424460002946803, 78.9513040537629 -0.6009670794685343 M78.87429586779747 -1.8004317357690365 C78.89528270118986 -1.4735448654155907, 78.91626953458224 -1.146657995062145, 78.9513040537629 -0.6009670794685343 M78.9513040537629 -0.6009670794685343 C78.9513040537629 -0.312267966371455, 78.9513040537629 -0.023568853274375634, 78.9513040537629 0.6009670794685298 M78.9513040537629 -0.6009670794685343 C78.9513040537629 -0.1836245617554942, 78.9513040537629 0.23371795595754596, 78.9513040537629 0.6009670794685298 M78.9513040537629 0.6009670794685298 C78.92075354466789 1.0768159185503667, 78.89020303557288 1.5526647576322035, 78.87429586779747 1.8004317357690236 M78.9513040537629 0.6009670794685298 C78.93021776820942 0.9294029975074547, 78.90913148265592 1.2578389155463796, 78.87429586779747 1.8004317357690236 M78.87429586779747 1.8004317357690236 C78.8172773162447 2.2426563620257176, 78.76025876469194 2.684880988282412, 78.72059593902094 2.9924980318758543 M78.87429586779747 1.8004317357690236 C78.832973457751 2.1209201880566404, 78.79165104770452 2.4414086403442568, 78.72059593902094 2.9924980318758543 M78.72059593902094 2.9924980318758543 C78.64762745604934 3.3671757700407237, 78.57465897307773 3.741853508205593, 78.4908358534092 4.172267511680893 M78.72059593902094 2.9924980318758543 C78.63392691035783 3.43752517655523, 78.54725788169472 3.8825523212346056, 78.4908358534092 4.172267511680893 M78.4908358534092 4.172267511680893 C78.40177056325315 4.511912064186788, 78.31270527309712 4.851556616692684, 78.18595974443738 5.334892249331851 M78.4908358534092 4.172267511680893 C78.40022397671414 4.517809868954897, 78.3096121000191 4.863352226228901, 78.18595974443738 5.334892249331851 M78.18595974443738 5.334892249331851 C78.09697637216627 5.602895989037444, 78.00799299989515 5.870899728743037, 77.80722041343301 6.475594770399514 M78.18595974443738 5.334892249331851 C78.06629304884886 5.69530927014581, 77.94662635326033 6.055726290959769, 77.80722041343301 6.475594770399514 M77.80722041343301 6.475594770399514 C77.65185560221433 6.859348857883943, 77.49649079099565 7.243102945368372, 77.35617418154649 7.589687683544883 M77.80722041343301 6.475594770399514 C77.69503383213595 6.752697795183257, 77.58284725083888 7.029800819967001, 77.35617418154649 7.589687683544883 M77.35617418154649 7.589687683544883 C77.15354854107686 8.010444161474254, 76.95092290060721 8.431200639403626, 76.83467449449375 8.672592942015656 M77.35617418154649 7.589687683544883 C77.15915200354084 7.9988084517729074, 76.96212982553517 8.407929220000932, 76.83467449449375 8.672592942015656 M76.83467449449375 8.672592942015656 C76.6282602216756 9.039102385115896, 76.42184594885747 9.405611828216134, 76.24486430635024 9.719860655822343 M76.83467449449375 8.672592942015656 C76.65730077159422 8.987537948060835, 76.4799270486947 9.302482954106011, 76.24486430635024 9.719860655822343 M76.24486430635024 9.719860655822343 C76.01295531830635 10.076135137740529, 75.78104633026248 10.432409619658717, 75.58916727369292 10.727187377290674 M76.24486430635024 9.719860655822343 C76.08973940783004 9.95817415681713, 75.93461450930984 10.196487657811916, 75.58916727369292 10.727187377290674 M75.58916727369292 10.727187377290674 C75.3689562419657 11.02225009816745, 75.14874521023849 11.317312819044227, 74.87027779627556 11.690433784851251 M75.58916727369292 10.727187377290674 C75.43258427253225 10.936994333841103, 75.27600127137158 11.146801290391531, 74.87027779627556 11.690433784851251 M74.87027779627556 11.690433784851251 C74.68513915470403 11.907908167928309, 74.5000005131325 12.125382551005366, 74.09114994516217 12.605641692399683 M74.87027779627556 11.690433784851251 C74.68101983107113 11.912746959863671, 74.49176186586669 12.13506013487609, 74.09114994516217 12.605641692399683 M74.09114994516217 12.605641692399683 C73.75689688485662 12.950785419851785, 73.42264382455106 13.29592914730389, 73.25498532381538 13.469050314332389 M74.09114994516217 12.605641692399683 C73.82022150655659 12.885397548898426, 73.54929306795101 13.165153405397172, 73.25498532381538 13.469050314332389 M73.25498532381538 13.469050314332389 C73.02440842936397 13.67845414914283, 72.79383153491258 13.88785798395327, 72.36521991202105 14.27711171942126 M73.25498532381538 13.469050314332389 C73.01765095247622 13.68459111085925, 72.78031658113707 13.90013190738611, 72.36521991202105 14.27711171942126 M72.36521991202105 14.27711171942126 C72.12003140676333 14.472643027624141, 71.87484290150562 14.668174335827022, 71.4255099467103 15.026505410024184 M72.36521991202105 14.27711171942126 C72.03723865759605 14.538668041877461, 71.70925740317107 14.80022436433366, 71.4255099467103 15.026505410024184 M71.4255099467103 15.026505410024184 C71.09804092935268 15.254933620627574, 70.77057191199506 15.483361831230965, 70.43971689769779 15.714151966722007 M71.4255099467103 15.026505410024184 C71.15543929229122 15.21489500737674, 70.88536863787212 15.403284604729294, 70.43971689769779 15.714151966722007 M70.43971689769779 15.714151966722007 C70.12993857809637 15.901941404523866, 69.82016025849494 16.089730842325725, 69.41189160007383 16.337225702313553 M70.43971689769779 15.714151966722007 C70.0559433050616 15.94679777388203, 69.67216971242541 16.179443581042054, 69.41189160007383 16.337225702313553 M69.41189160007383 16.337225702313553 C69.03442897816527 16.5341477103869, 68.6569663562567 16.73106971846025, 68.34625760845422 16.89316627317036 M69.41189160007383 16.337225702313553 C69.02513222027927 16.53899782302117, 68.6383728404847 16.740769943728786, 68.34625760845422 16.89316627317036 M68.34625760845422 16.89316627317036 C68.06794790618895 17.016365722599204, 67.78963820392367 17.139565172028053, 67.24719384148827 17.379689200237905 M68.34625760845422 16.89316627317036 C68.10449728030213 17.00018639887796, 67.86273695215003 17.107206524585564, 67.24719384148827 17.379689200237905 M67.24719384148827 17.379689200237905 C66.87081553684968 17.518199895547816, 66.49443723221108 17.656710590857728, 66.1192165879429 17.794795256450033 M67.24719384148827 17.379689200237905 C66.8378680966029 17.53032485812143, 66.42854235171754 17.68096051600495, 66.1192165879429 17.794795256450033 M66.1192165879429 17.794795256450033 C65.75650970693654 17.902444754845455, 65.39380282593018 18.010094253240872, 64.96696094830328 18.1367786819818 M66.1192165879429 17.794795256450033 C65.85825197356452 17.872248184166324, 65.59728735918613 17.949701111882618, 64.96696094830328 18.1367786819818 M64.96696094830328 18.1367786819818 C64.50331147904733 18.242603647743927, 64.03966200979137 18.348428613506055, 63.795161788150736 18.404234193582475 M64.96696094830328 18.1367786819818 C64.6158122934237 18.21692607099894, 64.26466363854412 18.297073460016083, 63.795161788150736 18.404234193582475 M63.795161788150736 18.404234193582475 C63.47590708520733 18.455848818097166, 63.156652382263935 18.507463442611858, 62.6086342815845 18.596062759185862 M63.795161788150736 18.404234193582475 C63.43066405414966 18.463163360493624, 63.06616632014858 18.522092527404773, 62.6086342815845 18.596062759185862 M62.6086342815845 18.596062759185862 C62.13972305707889 18.641298061065662, 61.67081183257328 18.686533362945465, 61.412254124638366 18.711476114068805 M62.6086342815845 18.596062759185862 C62.20556840894438 18.63494603916182, 61.80250253630426 18.673829319137777, 61.412254124638366 18.711476114068805 M61.412254124638366 18.711476114068805 C61.088615735737854 18.721854567276935, 60.76497734683734 18.73223302048507, 60.2109375 18.75 M61.412254124638366 18.711476114068805 C61.13826461366242 18.720262424397575, 60.864275102686484 18.72904873472634, 60.2109375 18.75 M60.2109375 18.75 C60.2109375 18.75, 60.2109375 18.75, 60.2109375 18.75 M60.2109375 18.75 C60.2109375 18.75, 60.2109375 18.75, 60.2109375 18.75 M60.2109375 18.75 C26.228518510791147 18.75, -7.753900478417705 18.75, -60.2109375 18.75 M60.2109375 18.75 C25.58484043547884 18.75, -9.041256629042323 18.75, -60.2109375 18.75 M-60.2109375 18.75 C-60.50075948718412 18.74070597297528, -60.79058147436824 18.731411945950562, -61.41225412463836 18.711476114068805 M-60.2109375 18.75 C-60.59043951673436 18.737830108979193, -60.96994153346872 18.725660217958385, -61.41225412463836 18.711476114068805 M-61.41225412463836 18.711476114068805 C-61.759547997640546 18.677973091822274, -62.10684187064274 18.644470069575746, -62.60863428158449 18.596062759185862 M-61.41225412463836 18.711476114068805 C-61.705915475456266 18.68314695673485, -61.999576826274165 18.65481779940089, -62.60863428158449 18.596062759185862 M-62.60863428158449 18.596062759185862 C-63.03165950587219 18.527671321532637, -63.4546847301599 18.459279883879415, -63.79516178815073 18.404234193582475 M-62.60863428158449 18.596062759185862 C-62.863797278782435 18.554809984617496, -63.11896027598038 18.51355721004913, -63.79516178815073 18.404234193582475 M-63.79516178815073 18.404234193582475 C-64.17000686226952 18.31867825150757, -64.54485193638831 18.233122309432662, -64.96696094830325 18.136778681981802 M-63.79516178815073 18.404234193582475 C-64.19696233193397 18.312525841457536, -64.59876287571723 18.220817489332592, -64.96696094830325 18.136778681981802 M-64.96696094830325 18.136778681981802 C-65.33836056151178 18.026549226297867, -65.7097601747203 17.916319770613928, -66.11921658794287 17.79479525645004 M-64.96696094830325 18.136778681981802 C-65.34410619988662 18.02484395098768, -65.72125145147 17.912909219993562, -66.11921658794287 17.79479525645004 M-66.11921658794287 17.79479525645004 C-66.37085660907405 17.702189402538913, -66.62249663020523 17.609583548627782, -67.24719384148827 17.37968920023791 M-66.11921658794287 17.79479525645004 C-66.47575458993178 17.663585975916963, -66.83229259192068 17.53237669538389, -67.24719384148827 17.37968920023791 M-67.24719384148827 17.37968920023791 C-67.54118276582456 17.249549024305818, -67.83517169016085 17.11940884837373, -68.34625760845421 16.893166273170362 M-67.24719384148827 17.37968920023791 C-67.62457206789247 17.21263505393611, -68.00195029429668 17.045580907634314, -68.34625760845421 16.893166273170362 M-68.34625760845421 16.893166273170362 C-68.75898091270604 16.677848789704083, -69.17170421695785 16.4625313062378, -69.41189160007383 16.337225702313557 M-68.34625760845421 16.893166273170362 C-68.76760371648193 16.673350278497367, -69.18894982450965 16.45353428382437, -69.41189160007383 16.337225702313557 M-69.41189160007383 16.337225702313557 C-69.81532429201586 16.09266243362464, -70.2187569839579 15.84809916493572, -70.43971689769778 15.714151966722019 M-69.41189160007383 16.337225702313557 C-69.69509622340097 16.165545395357547, -69.97830084672809 15.99386508840154, -70.43971689769778 15.714151966722019 M-70.43971689769778 15.714151966722019 C-70.74362714022378 15.502157337598238, -71.0475373827498 15.290162708474455, -71.42550994671029 15.026505410024189 M-70.43971689769778 15.714151966722019 C-70.74670279662905 15.500011892832946, -71.05368869556031 15.285871818943875, -71.42550994671029 15.026505410024189 M-71.42550994671029 15.026505410024189 C-71.7810527229155 14.742969507391159, -72.13659549912073 14.459433604758129, -72.36521991202103 14.277111719421274 M-71.42550994671029 15.026505410024189 C-71.70834195733153 14.800954408029646, -71.99117396795278 14.575403406035104, -72.36521991202103 14.277111719421274 M-72.36521991202103 14.277111719421274 C-72.58188574181858 14.080341545462858, -72.79855157161613 13.883571371504441, -73.25498532381536 13.469050314332401 M-72.36521991202103 14.277111719421274 C-72.69744756200839 13.975391357964686, -73.02967521199574 13.673670996508095, -73.25498532381536 13.469050314332401 M-73.25498532381536 13.469050314332401 C-73.42620281152814 13.292254201051788, -73.59742029924092 13.115458087771177, -74.09114994516217 12.60564169239969 M-73.25498532381536 13.469050314332401 C-73.45648535639155 13.260984987237148, -73.65798538896775 13.052919660141892, -74.09114994516217 12.60564169239969 M-74.09114994516217 12.60564169239969 C-74.32601304763024 12.329758128151575, -74.56087615009831 12.05387456390346, -74.87027779627556 11.690433784851257 M-74.09114994516217 12.60564169239969 C-74.39545514422663 12.248187490122218, -74.6997603432911 11.890733287844746, -74.87027779627556 11.690433784851257 M-74.87027779627556 11.690433784851257 C-75.05399226372553 11.444273135200575, -75.23770673117552 11.198112485549895, -75.58916727369292 10.727187377290688 M-74.87027779627556 11.690433784851257 C-75.02045273346593 11.48921305023439, -75.1706276706563 11.287992315617524, -75.58916727369292 10.727187377290688 M-75.58916727369292 10.727187377290688 C-75.76055375793524 10.46389171377955, -75.93194024217755 10.200596050268409, -76.24486430635024 9.719860655822355 M-75.58916727369292 10.727187377290688 C-75.8028196934449 10.398959886843864, -76.01647211319688 10.070732396397041, -76.24486430635024 9.719860655822355 M-76.24486430635024 9.719860655822355 C-76.47530546778728 9.310689038992953, -76.70574662922434 8.90151742216355, -76.83467449449375 8.672592942015664 M-76.24486430635024 9.719860655822355 C-76.4262886147333 9.397723425084903, -76.60771292311635 9.075586194347451, -76.83467449449375 8.672592942015664 M-76.83467449449375 8.672592942015664 C-76.95621584519604 8.420209726714068, -77.07775719589831 8.167826511412473, -77.35617418154648 7.5896876835448905 M-76.83467449449375 8.672592942015664 C-76.97398219432151 8.383317522616055, -77.11328989414926 8.094042103216447, -77.35617418154648 7.5896876835448905 M-77.35617418154648 7.5896876835448905 C-77.46599703654996 7.318423108405834, -77.57581989155344 7.047158533266777, -77.807220413433 6.475594770399529 M-77.35617418154648 7.5896876835448905 C-77.49693365198176 7.242009070170505, -77.63769312241705 6.89433045679612, -77.807220413433 6.475594770399529 M-77.807220413433 6.475594770399529 C-77.89084732144131 6.2237238476168155, -77.97447422944964 5.971852924834103, -78.18595974443738 5.334892249331858 M-77.807220413433 6.475594770399529 C-77.91010911469589 6.165710395284032, -78.01299781595877 5.855826020168535, -78.18595974443738 5.334892249331858 M-78.18595974443738 5.334892249331858 C-78.27496474269955 4.995477615947975, -78.3639697409617 4.656062982564091, -78.4908358534092 4.172267511680899 M-78.18595974443738 5.334892249331858 C-78.27768353171962 4.985109695083819, -78.36940731900185 4.635327140835781, -78.4908358534092 4.172267511680899 M-78.4908358534092 4.172267511680899 C-78.53850815030212 3.9274803426792615, -78.58618044719503 3.682693173677624, -78.72059593902094 2.9924980318758694 M-78.4908358534092 4.172267511680899 C-78.56771367715675 3.777516134871044, -78.64459150090428 3.382764758061189, -78.72059593902094 2.9924980318758694 M-78.72059593902094 2.9924980318758694 C-78.7650843644783 2.6474545892618035, -78.80957278993567 2.3024111466477373, -78.87429586779746 1.8004317357690471 M-78.72059593902094 2.9924980318758694 C-78.77075865119161 2.603445942027983, -78.8209213633623 2.2143938521800965, -78.87429586779746 1.8004317357690471 M-78.87429586779746 1.8004317357690471 C-78.89248493831043 1.5171222805759914, -78.9106740088234 1.2338128253829357, -78.9513040537629 0.6009670794685367 M-78.87429586779746 1.8004317357690471 C-78.9008378190038 1.3870194214530007, -78.92737977021012 0.9736071071369544, -78.9513040537629 0.6009670794685367 M-78.9513040537629 0.6009670794685367 C-78.9513040537629 0.1760456240907306, -78.9513040537629 -0.24887583128707547, -78.9513040537629 -0.6009670794685276 M-78.9513040537629 0.6009670794685367 C-78.9513040537629 0.29604573667959777, -78.9513040537629 -0.008875606109341128, -78.9513040537629 -0.6009670794685276 M-78.9513040537629 -0.6009670794685276 C-78.92982246888928 -0.935560103498277, -78.90834088401567 -1.2701531275280264, -78.87429586779747 -1.8004317357690214 M-78.9513040537629 -0.6009670794685276 C-78.92412562143095 -1.024293101074474, -78.89694718909898 -1.4476191226804205, -78.87429586779747 -1.8004317357690214 M-78.87429586779747 -1.8004317357690214 C-78.8142023327933 -2.2665053264506176, -78.75410879778914 -2.732578917132214, -78.72059593902094 -2.9924980318758605 M-78.87429586779747 -1.8004317357690214 C-78.84101986478102 -2.058513844074625, -78.80774386176455 -2.3165959523802284, -78.72059593902094 -2.9924980318758605 M-78.72059593902094 -2.9924980318758605 C-78.67334627919206 -3.2351150488780416, -78.62609661936317 -3.4777320658802227, -78.4908358534092 -4.17226751168089 M-78.72059593902094 -2.9924980318758605 C-78.66998674726892 -3.2523655352660037, -78.6193775555169 -3.512233038656147, -78.4908358534092 -4.17226751168089 M-78.4908358534092 -4.17226751168089 C-78.42351656229819 -4.4289851450524536, -78.3561972711872 -4.685702778424017, -78.18595974443738 -5.334892249331849 M-78.4908358534092 -4.17226751168089 C-78.3931149064411 -4.544919834996582, -78.29539395947299 -4.917572158312273, -78.18595974443738 -5.334892249331849 M-78.18595974443738 -5.334892249331849 C-78.07279514302039 -5.67572599846918, -77.95963054160339 -6.016559747606511, -77.80722041343301 -6.475594770399505 M-78.18595974443738 -5.334892249331849 C-78.0518258235325 -5.738882247759375, -77.91769190262761 -6.142872246186901, -77.80722041343301 -6.475594770399505 M-77.80722041343301 -6.475594770399505 C-77.65493978785923 -6.851730859712352, -77.50265916228545 -7.227866949025198, -77.35617418154649 -7.589687683544882 M-77.80722041343301 -6.475594770399505 C-77.63295725960182 -6.906028129511443, -77.45869410577062 -7.336461488623382, -77.35617418154649 -7.589687683544882 M-77.35617418154649 -7.589687683544882 C-77.18173012740824 -7.95192449446778, -77.00728607327 -8.314161305390677, -76.83467449449375 -8.672592942015655 M-77.35617418154649 -7.589687683544882 C-77.1766413683728 -7.962491411486871, -76.9971085551991 -8.33529513942886, -76.83467449449375 -8.672592942015655 M-76.83467449449375 -8.672592942015655 C-76.6021593621489 -9.08544710420421, -76.36964422980402 -9.498301266392765, -76.24486430635024 -9.719860655822348 M-76.83467449449375 -8.672592942015655 C-76.6409371424985 -9.016593228517422, -76.44719979050325 -9.360593515019191, -76.24486430635024 -9.719860655822348 M-76.24486430635024 -9.719860655822348 C-76.0470796180512 -10.023711049674938, -75.84929492975218 -10.32756144352753, -75.58916727369292 -10.727187377290681 M-76.24486430635024 -9.719860655822348 C-76.04882159858934 -10.0210348997811, -75.85277889082843 -10.32220914373985, -75.58916727369292 -10.727187377290681 M-75.58916727369292 -10.727187377290681 C-75.30229646178165 -11.111568130783189, -75.01542564987037 -11.495948884275696, -74.87027779627556 -11.690433784851251 M-75.58916727369292 -10.727187377290681 C-75.40436709371772 -10.97480278281471, -75.21956691374253 -11.22241818833874, -74.87027779627556 -11.690433784851251 M-74.87027779627556 -11.690433784851251 C-74.60668293279772 -12.000067310464942, -74.3430880693199 -12.309700836078633, -74.09114994516217 -12.605641692399683 M-74.87027779627556 -11.690433784851251 C-74.58988036681997 -12.019804560555512, -74.30948293736438 -12.349175336259773, -74.09114994516217 -12.605641692399683 M-74.09114994516217 -12.605641692399683 C-73.80792979529606 -12.898089749943194, -73.52470964542994 -13.190537807486706, -73.25498532381538 -13.469050314332382 M-74.09114994516217 -12.605641692399683 C-73.88872131016987 -12.814665877729247, -73.68629267517757 -13.023690063058812, -73.25498532381538 -13.469050314332382 M-73.25498532381538 -13.469050314332382 C-73.00461304753732 -13.69643179116069, -72.75424077125928 -13.923813267988997, -72.36521991202105 -14.277111719421258 M-73.25498532381538 -13.469050314332382 C-72.93574899815013 -13.758972298771234, -72.6165126724849 -14.048894283210085, -72.36521991202105 -14.277111719421258 M-72.36521991202105 -14.277111719421258 C-72.13614736600151 -14.459790978995379, -71.90707481998197 -14.6424702385695, -71.4255099467103 -15.026505410024182 M-72.36521991202105 -14.277111719421258 C-71.9934569579003 -14.573582782304854, -71.62169400377958 -14.87005384518845, -71.4255099467103 -15.026505410024182 M-71.4255099467103 -15.026505410024182 C-71.16172790988013 -15.21050833997658, -70.89794587304995 -15.394511269928978, -70.43971689769779 -15.714151966722005 M-71.4255099467103 -15.026505410024182 C-71.18626965320135 -15.193389082230638, -70.94702935969241 -15.360272754437094, -70.43971689769779 -15.714151966722005 M-70.43971689769779 -15.714151966722005 C-70.11680625166724 -15.909902297979318, -69.79389560563668 -16.105652629236634, -69.41189160007383 -16.33722570231355 M-70.43971689769779 -15.714151966722005 C-70.1649099936231 -15.880741526916706, -69.89010308954842 -16.047331087111406, -69.41189160007383 -16.33722570231355 M-69.41189160007383 -16.33722570231355 C-69.1972553939406 -16.44920127357221, -68.98261918780734 -16.561176844830875, -68.34625760845422 -16.89316627317036 M-69.41189160007383 -16.33722570231355 C-69.06213365276427 -16.519694199394294, -68.7123757054547 -16.70216269647504, -68.34625760845422 -16.89316627317036 M-68.34625760845422 -16.89316627317036 C-68.00734787966128 -17.043191556707082, -67.66843815086835 -17.193216840243807, -67.24719384148827 -17.379689200237905 M-68.34625760845422 -16.89316627317036 C-67.95654590162327 -17.065680085397375, -67.56683419479232 -17.238193897624395, -67.24719384148827 -17.379689200237905 M-67.24719384148827 -17.379689200237905 C-66.88094026252848 -17.51447390290608, -66.51468668356868 -17.649258605574254, -66.1192165879429 -17.794795256450033 M-67.24719384148827 -17.379689200237905 C-66.94576955446404 -17.490616124198386, -66.64434526743982 -17.60154304815887, -66.1192165879429 -17.794795256450033 M-66.1192165879429 -17.794795256450033 C-65.78212401735678 -17.894842561964982, -65.44503144677067 -17.99488986747993, -64.96696094830328 -18.136778681981795 M-66.1192165879429 -17.794795256450033 C-65.87940509740326 -17.865970048045995, -65.63959360686363 -17.93714483964196, -64.96696094830328 -18.136778681981795 M-64.96696094830328 -18.136778681981795 C-64.58914081977602 -18.22301366081139, -64.21132069124877 -18.309248639640984, -63.795161788150736 -18.40423419358247 M-64.96696094830328 -18.136778681981795 C-64.61435927335303 -18.217257713348225, -64.26175759840278 -18.29773674471466, -63.795161788150736 -18.40423419358247 M-63.795161788150736 -18.40423419358247 C-63.43227664909405 -18.462902648648875, -63.069391510037356 -18.521571103715278, -62.6086342815845 -18.596062759185862 M-63.795161788150736 -18.40423419358247 C-63.33812015077264 -18.47812514110293, -62.88107851339454 -18.552016088623386, -62.6086342815845 -18.596062759185862 M-62.6086342815845 -18.596062759185862 C-62.14553830230804 -18.640737071352262, -61.68244232303157 -18.685411383518662, -61.412254124638366 -18.711476114068805 M-62.6086342815845 -18.596062759185862 C-62.19680322868798 -18.635791605559483, -61.78497217579146 -18.675520451933107, -61.412254124638366 -18.711476114068805 M-61.412254124638366 -18.711476114068805 C-61.05395883111139 -18.722965946752733, -60.69566353758441 -18.734455779436665, -60.21093750000001 -18.75 M-61.412254124638366 -18.711476114068805 C-61.150773325115026 -18.71986129436802, -60.889292525591685 -18.72824647466723, -60.21093750000001 -18.75 M-60.21093750000001 -18.75 C-60.21093750000001 -18.75, -60.21093750000001 -18.75, -60.2109375 -18.75 M-60.21093750000001 -18.75 C-60.21093750000001 -18.75, -60.2109375 -18.75, -60.2109375 -18.75" stroke="#5e8fc4" stroke-width="1.3" fill="none" stroke-dasharray="0 0" style="fill:#e8f1fb !important;stroke:#5e8fc4 !important"/></g><g class="label" style="color:#102a43 !important" transform="translate(-66.7734375, -11.25)"><rect/><foreignObject width="133.546875" height="22.5"><div style="color: rgb(16, 42, 67) !important; display: table-cell; white-space: nowrap; line-height: 1.5; max-width: 200px; text-align: center;" xmlns="http://www.w3.org/1999/xhtml"><span style="color:#102a43 !important" class="nodeLabel"><p>You send a message</p></span></div></foreignObject></g></g><g class="node default step" id="my-svg-flowchart-Route-2" data-look="classic" transform="translate(270.1484375, 133)"><rect class="basic label-container" style="fill:#f5f5f7 !important;stroke:#86868b !important" x="-111.296875" y="-37.5" width="222.59375" height="75"/><g class="label" style="color:#1d1d1f !important" transform="translate(-81.296875, -22.5)"><rect/><foreignObject width="162.59375" height="45"><div style="color: rgb(29, 29, 31) !important; display: table-cell; white-space: nowrap; line-height: 1.5; max-width: 200px; text-align: center;" xmlns="http://www.w3.org/1999/xhtml"><span style="color:#1d1d1f !important" class="nodeLabel"><p>1. Decide which memory<br />could help</p></span></div></foreignObject></g></g><g class="node default step" id="my-svg-flowchart-Understand-4" data-look="classic" transform="translate(270.1484375, 258)"><rect class="basic label-container" style="fill:#f5f5f7 !important;stroke:#86868b !important" x="-103.7734375" y="-37.5" width="207.546875" height="75"/><g class="label" style="color:#1d1d1f !important" transform="translate(-73.7734375, -22.5)"><rect/><foreignObject width="147.546875" height="45"><div style="color: rgb(29, 29, 31) !important; display: table-cell; white-space: nowrap; line-height: 1.5; max-width: 200px; text-align: center;" xmlns="http://www.w3.org/1999/xhtml"><span style="color:#1d1d1f !important" class="nodeLabel"><p>2. Create one reusable<br />meaning vector</p></span></div></foreignObject></g></g><g class="node default step" id="my-svg-flowchart-Retrieve-6" data-look="classic" transform="translate(270.1484375, 383)"><rect class="basic label-container" style="fill:#f5f5f7 !important;stroke:#86868b !important" x="-100.6328125" y="-37.5" width="201.265625" height="75"/><g class="label" style="color:#1d1d1f !important" transform="translate(-70.6328125, -22.5)"><rect/><foreignObject width="141.265625" height="45"><div style="color: rgb(29, 29, 31) !important; display: table-cell; white-space: nowrap; line-height: 1.5; max-width: 200px; text-align: center;" xmlns="http://www.w3.org/1999/xhtml"><span style="color:#1d1d1f !important" class="nodeLabel"><p>3. Retrieve permitted,<br />relevant memories</p></span></div></foreignObject></g></g><g class="node default step" id="my-svg-flowchart-Curate-8" data-look="classic" transform="translate(487.55859375, 508)"><rect class="basic label-container" style="fill:#f5f5f7 !important;stroke:#86868b !important" x="-96.46875" y="-37.5" width="192.9375" height="75"/><g class="label" style="color:#1d1d1f !important" transform="translate(-66.46875, -22.5)"><rect/><foreignObject width="132.9375" height="45"><div style="color: rgb(29, 29, 31) !important; display: table-cell; white-space: nowrap; line-height: 1.5; max-width: 200px; text-align: center;" xmlns="http://www.w3.org/1999/xhtml"><span style="color:#1d1d1f !important" class="nodeLabel"><p>4. Rank, deduplicate<br />and limit context</p></span></div></foreignObject></g></g><g class="node default step" id="my-svg-flowchart-Answer-10" data-look="classic" transform="translate(553.29296875, 644.25)"><rect class="basic label-container" style="fill:#f5f5f7 !important;stroke:#86868b !important" x="-130" y="-48.75" width="260" height="97.5"/><g class="label" style="color:#1d1d1f !important" transform="translate(-100, -33.75)"><rect/><foreignObject width="200" height="67.5"><div style="color: rgb(29, 29, 31) !important; display: table; white-space: break-spaces; line-height: 1.5; max-width: 200px; text-align: center; width: 200px;" xmlns="http://www.w3.org/1999/xhtml"><span style="color:#1d1d1f !important" class="nodeLabel"><p>5. Assistant answers<br />memory is data, not instructions</p></span></div></foreignObject></g></g><g class="node default store" id="my-svg-flowchart-Short-13" data-look="classic" transform="translate(155.9375, 1076.75)"><rect class="basic label-container" style="fill:#eef7ee !important;stroke:#5f9562 !important" x="-112.9375" y="-60" width="225.875" height="120"/><g class="label" style="color:#183b1b !important" transform="translate(-82.9375, -45)"><rect/><foreignObject width="165.875" height="90"><div style="color: rgb(24, 59, 27) !important; display: table-cell; white-space: nowrap; line-height: 1.5; max-width: 200px; text-align: center;" xmlns="http://www.w3.org/1999/xhtml"><span style="color:#183b1b !important" class="nodeLabel"><p>Short term<br />LLM context window<br />Session working memory<br />Semantic cache</p></span></div></foreignObject></g></g><g class="node default store" id="my-svg-flowchart-Long-14" data-look="classic" transform="translate(461.8203125, 1076.75)"><rect class="basic label-container" style="fill:#eef7ee !important;stroke:#5f9562 !important" x="-130" y="-93.75" width="260" height="187.5"/><g class="label" style="color:#183b1b !important" transform="translate(-100, -78.75)"><rect/><foreignObject width="200" height="157.5"><div style="color: rgb(24, 59, 27) !important; display: table; white-space: break-spaces; line-height: 1.5; max-width: 200px; text-align: center; width: 200px;" xmlns="http://www.w3.org/1999/xhtml"><span style="color:#183b1b !important" class="nodeLabel"><p>Long term<br />Procedural / workflow · Toolbox · Entity<br />Knowledge base · Persona · Semantic<br />Episodic · Summaries · Conversations</p></span></div></foreignObject></g></g><g class="node default step" id="my-svg-flowchart-Save-20" data-look="classic" transform="translate(553.29296875, 814.25)"><rect class="basic label-container" style="fill:#f5f5f7 !important;stroke:#86868b !important" x="-130" y="-48.75" width="260" height="97.5"/><g class="label" style="color:#1d1d1f !important" transform="translate(-100, -33.75)"><rect/><foreignObject width="200" height="67.5"><div style="color: rgb(29, 29, 31) !important; display: table; white-space: break-spaces; line-height: 1.5; max-width: 200px; text-align: center; width: 200px;" xmlns="http://www.w3.org/1999/xhtml"><span style="color:#1d1d1f !important" class="nodeLabel"><p>6. Auto-save whatever was<br />classified as worth remembering</p></span></div></foreignObject></g></g><g class="node default note" id="my-svg-flowchart-Control-23" data-look="classic" transform="translate(315.3515625, 1316.75)"><rect class="basic label-container" style="fill:#f1edff !important;stroke:#8872c6 !important" x="-130" y="-71.25" width="260" height="142.5"/><g class="label" style="color:#2e2450 !important" transform="translate(-100, -56.25)"><rect/><foreignObject width="200" height="112.5"><div style="color: rgb(46, 36, 80) !important; display: table; white-space: break-spaces; line-height: 1.5; max-width: 200px; text-align: center; width: 200px;" xmlns="http://www.w3.org/1999/xhtml"><span style="color:#2e2450 !important" class="nodeLabel"><p>Inspect short-term state<br />View, correct, export or delete durable memory<br />same path for what auto-save wrote</p></span></div></foreignObject></g></g></g></g></g><defs><filter id="my-svg-drop-shadow" height="130%" width="130%"><feDropShadow dx="4" dy="4" stdDeviation="0" flood-opacity="0.06" flood-color="#000000"/></filter></defs><defs><filter id="my-svg-drop-shadow-small" height="150%" width="150%"><feDropShadow dx="2" dy="2" stdDeviation="0" flood-opacity="0.06" flood-color="#000000"/></filter></defs><linearGradient id="my-svg-gradient" gradientUnits="objectBoundingBox" x1="0%" y1="0%" x2="100%" y2="0%"><stop offset="0%" stop-color="hsl(240, 0%, 86.4705882353%)" stop-opacity="1"/><stop offset="100%" stop-color="hsl(120, 0%, 86.4705882353%)" stop-opacity="1"/></linearGradient><text text-anchor="middle" x="345.646484375" y="-25" class="flowchartTitleText">AniOS Memory - Manager Overview</text></svg>